<?xml version="1.0" standalone="no"?>
<!DOCTYPE svg PUBLIC "-//W3C//DTD SVG 20010904//EN"
 "http://www.w3.org/TR/2001/REC-SVG-20010904/DTD/svg10.dtd">
<svg version="1.0" xmlns="http://www.w3.org/2000/svg"
 width="1184.000000pt" height="905.000000pt" viewBox="0 0 1184.000000 905.000000"
 preserveAspectRatio="xMidYMid meet">

<g transform="translate(0.000000,905.000000) scale(0.100000,-0.100000)"
fill="#000000" stroke="none">
<path d="M5551 9019 c-5 -13 -16 -42 -25 -63 -25 -61 -54 -183 -62 -263 -22
-235 155 -480 426 -590 82 -33 206 -63 261 -63 41 0 51 4 77 35 43 48 108 161
134 231 31 84 32 268 1 334 -56 122 -166 226 -318 300 -135 66 -225 90 -367
97 -117 6 -117 6 -127 -18z m327 -49 c202 -55 363 -172 433 -315 30 -60 34
-81 37 -160 3 -80 0 -99 -27 -175 -28 -75 -125 -240 -142 -240 -4 0 -9 14 -13
31 -7 37 -157 349 -223 463 -62 109 -159 239 -229 306 l-57 55 46 -56 c73 -87
198 -296 303 -504 53 -104 110 -212 126 -238 17 -26 28 -51 24 -54 -13 -13
-185 30 -272 68 -201 88 -323 219 -369 396 -26 101 -12 244 35 363 12 30 26
64 30 75 7 20 13 20 114 13 59 -4 142 -16 184 -28z"/>
<path d="M7267 8305 c-246 -47 -441 -193 -552 -414 -44 -88 -83 -199 -91 -259
l-6 -49 49 -16 c71 -23 218 -39 293 -32 170 17 329 82 438 181 l63 57 40 -12
c58 -17 150 -100 207 -185 l50 -75 7 42 c21 135 88 284 176 388 83 99 249 200
389 235 88 22 254 22 345 -1 475 -118 715 -606 509 -1032 -71 -148 -153 -219
-294 -254 l-55 -14 120 -6 c141 -8 225 -32 311 -87 314 -204 363 -687 106
-1046 -151 -210 -397 -327 -657 -313 -217 12 -373 83 -524 237 -54 56 -68 66
-78 55 -19 -21 -119 -29 -187 -17 -34 7 -89 25 -122 42 -59 29 -144 107 -144
131 0 25 142 149 207 181 60 29 77 33 182 38 96 4 116 8 119 21 4 22 -72 53
-187 77 l-93 19 48 42 c138 121 368 233 568 276 55 12 19 14 -74 4 -241 -24
-520 -130 -754 -284 l-29 -19 7 104 c11 149 9 349 -4 470 -13 119 -50 298 -74
350 -14 32 -15 33 -8 5 4 -16 7 -131 6 -255 0 -213 -2 -233 -32 -377 -17 -83
-48 -203 -68 -267 l-37 -115 -55 -7 c-77 -9 -202 1 -297 26 -102 26 -253 101
-313 155 l-46 42 24 13 c56 30 180 128 264 209 113 110 219 248 276 361 29 59
24 52 -48 -55 -60 -90 -219 -256 -317 -333 -87 -68 -216 -152 -232 -152 -9 0
22 39 75 94 156 161 346 439 425 621 54 125 53 138 -5 40 -160 -268 -310 -441
-512 -590 l-79 -58 -18 22 c-20 24 -20 27 -45 211 -9 69 -27 179 -40 244 l-24
119 26 86 c34 113 79 200 149 289 31 40 55 75 52 78 -6 6 -98 -91 -138 -146
-18 -24 -49 -80 -70 -124 l-37 -80 -12 45 c-6 24 -12 49 -14 54 -2 6 8 27 21
49 14 21 31 55 38 77 19 53 28 166 18 214 -9 40 -9 40 -21 -39 -11 -73 -63
-207 -80 -206 -4 1 -36 88 -70 194 -35 106 -84 233 -108 282 -24 49 -42 80
-39 70 12 -42 85 -397 99 -481 25 -150 36 -271 43 -469 l6 -189 -44 30 c-134
92 -253 235 -353 423 -59 111 -64 104 -25 -33 57 -196 175 -371 353 -523 l58
-50 -17 -159 c-18 -173 -77 -471 -123 -627 l-28 -98 -245 -3 c-275 -5 -461
-23 -684 -69 -82 -17 -161 -33 -175 -35 -23 -4 -33 7 -100 108 -133 201 -221
401 -251 574 -21 125 1 405 33 405 5 0 22 -7 38 -15 27 -14 28 -17 18 -52 -6
-21 -8 -67 -6 -103 15 -200 199 -341 403 -308 113 18 203 85 257 191 26 53 31
72 31 137 0 46 -7 90 -16 112 l-16 38 35 24 c34 23 38 23 72 9 85 -36 202 8
246 92 28 53 27 136 -1 190 -16 30 -19 45 -11 59 5 10 20 49 33 87 l22 69 -59
27 -59 28 8 40 c15 73 8 167 -14 217 -46 101 -151 170 -270 176 -64 4 -80 1
-137 -26 -150 -70 -224 -212 -187 -359 11 -43 11 -49 -5 -58 -9 -5 -39 -25
-66 -43 -72 -48 -82 -38 -83 80 -1 112 -21 163 -92 239 -107 114 -255 145
-413 86 -59 -22 -146 -100 -176 -159 l-17 -32 -21 26 c-11 14 -28 39 -38 56
-16 29 -58 62 -58 44 0 -5 16 -27 35 -49 19 -23 35 -51 35 -63 0 -12 7 -34 16
-49 11 -19 13 -35 7 -58 l-8 -32 -60 45 c-166 125 -384 184 -565 152 l-75 -13
0 66 c0 60 -3 71 -31 105 -49 61 -77 77 -144 82 -73 5 -109 -8 -154 -59 -56
-61 -66 -137 -30 -210 16 -31 75 -85 103 -94 19 -6 15 -13 -41 -75 l-62 -69
-22 53 c-141 348 -550 522 -927 395 -309 -104 -525 -355 -567 -659 -40 -290
101 -584 363 -758 20 -13 37 -26 37 -28 0 -2 -23 -15 -52 -30 -28 -14 -75 -48
-103 -75 l-52 -49 -52 69 c-28 38 -73 89 -99 112 -56 50 -225 163 -276 184
l-36 15 -35 -47 c-51 -68 -132 -237 -152 -313 -23 -92 -21 -237 6 -320 38
-120 125 -234 251 -329 78 -58 247 -151 277 -151 8 0 23 10 32 21 17 21 17 21
50 -29 43 -68 170 -187 256 -241 39 -23 62 -40 52 -37 -10 3 -53 9 -95 12
l-78 7 -24 44 c-13 24 -41 59 -62 78 -43 36 -147 90 -193 100 l-30 6 25 -18
c102 -74 148 -114 174 -150 16 -24 28 -44 25 -46 -2 -2 -44 0 -94 4 -134 11
-469 19 -459 10 5 -5 43 -14 84 -20 283 -47 622 -128 805 -191 66 -23 122 -43
124 -46 5 -5 -36 -39 -90 -73 l-45 -28 -16 27 c-25 44 -102 84 -160 83 -104
-2 -192 -93 -186 -193 l2 -45 -39 -5 -40 -6 4 74 c6 126 -43 215 -150 272 -54
28 -74 34 -129 34 -98 1 -159 -25 -219 -89 -28 -31 -56 -74 -65 -101 -19 -55
-21 -141 -5 -194 18 -59 78 -130 139 -164 49 -28 64 -31 135 -31 67 0 88 5
131 27 48 25 134 109 134 131 0 6 24 7 67 3 57 -6 72 -12 104 -41 95 -85 229
-57 290 61 18 35 36 52 74 71 28 14 85 48 127 75 l76 49 130 -65 c229 -115
411 -230 584 -368 l86 -70 -77 -156 c-81 -166 -124 -277 -170 -439 l-28 -98
-49 -7 c-140 -19 -409 1 -564 41 -101 26 -250 90 -250 107 0 10 8 12 33 6 64
-14 170 -6 231 18 75 29 148 99 184 178 21 47 26 72 26 142 0 73 -4 94 -28
148 -32 70 -98 137 -170 172 -125 60 -293 33 -400 -65 l-39 -35 -41 38 c-50
46 -116 91 -176 122 l-45 23 -63 -69 c-35 -38 -82 -100 -105 -139 -22 -38 -42
-72 -43 -74 -2 -1 -15 9 -31 23 -15 15 -53 39 -83 53 -45 22 -69 27 -136 27
-103 0 -170 -30 -243 -109 -61 -68 -86 -134 -85 -230 1 -95 29 -158 103 -229
55 -52 76 -62 185 -90 5 -1 -13 -16 -40 -33 -27 -18 -66 -50 -88 -72 l-38 -39
-50 15 c-28 8 -53 11 -56 8 -4 -4 10 -20 30 -37 l38 -30 -30 -43 c-16 -23 -41
-77 -55 -118 -37 -113 -33 -267 11 -381 6 -17 4 -18 -17 -12 -13 5 -52 16 -86
25 -49 14 -60 20 -52 32 17 26 10 102 -14 143 -63 112 -232 110 -295 -2 -25
-45 -28 -110 -8 -157 l13 -30 -68 -31 c-130 -61 -216 -143 -295 -281 -104
-183 -119 -413 -40 -645 91 -269 262 -439 512 -509 105 -30 284 -31 392 -2
l74 20 -9 -61 c-16 -120 -9 -284 16 -366 63 -208 200 -369 386 -456 100 -46
175 -64 300 -71 242 -12 486 67 703 230 153 114 254 259 304 434 29 101 31
285 5 383 -38 140 -119 269 -204 321 -36 22 -36 22 -12 32 32 12 416 22 502
13 66 -7 69 -9 79 -39 25 -72 169 -341 250 -464 127 -193 213 -304 351 -454
376 -406 750 -655 1217 -809 384 -127 660 -167 1105 -157 479 10 839 91 1247
279 558 257 1097 775 1366 1313 86 173 202 493 202 558 0 11 14 18 47 23 71
10 398 -2 493 -20 270 -49 507 -160 673 -316 37 -34 67 -59 67 -56 0 14 -54
113 -90 166 -42 61 -106 125 -160 162 l-35 23 235 -3 c129 -2 236 -5 238 -6 1
-2 -13 -26 -32 -54 -90 -134 -54 -325 78 -421 153 -109 376 -55 464 113 24 45
27 62 27 141 -1 74 -5 98 -23 133 -35 65 -85 115 -148 146 l-57 28 54 30 c121
69 225 169 301 288 33 51 72 170 83 248 l7 53 27 -43 c97 -152 348 -120 400
51 31 104 -17 218 -113 268 -43 23 -142 22 -186 -1 -52 -27 -108 -85 -122
-125 l-11 -36 -13 58 c-8 32 -29 92 -49 134 -19 42 -35 76 -35 77 0 1 53 1
118 2 131 0 192 12 304 60 145 60 254 155 342 297 55 90 82 168 94 277 22 212
-31 402 -157 554 -226 275 -583 352 -910 196 l-84 -40 7 31 c3 17 6 53 6 80
l0 49 63 0 c83 0 187 23 261 58 65 31 163 104 173 128 10 25 -44 146 -92 207
-55 70 -151 142 -263 197 -186 92 -301 104 -519 53 l-71 -16 -39 30 c-94 75
-179 95 -283 69 -35 -9 -70 -22 -79 -29 -8 -6 13 29 46 78 85 127 137 213 161
268 27 62 17 54 -54 -40 -114 -151 -269 -326 -374 -421 -123 -112 -249 -216
-254 -211 -2 2 -9 28 -15 57 -14 66 -42 122 -86 170 l-34 38 24 58 c13 32 26
61 30 64 3 3 26 0 52 -6 25 -7 48 -11 50 -8 3 2 -16 16 -41 31 -25 15 -46 28
-46 30 0 5 44 79 62 104 l17 24 38 -26 c60 -41 111 -58 177 -59 149 -2 262 76
302 208 34 113 9 209 -75 295 -59 59 -107 83 -192 94 l-46 6 -6 97 c-4 53 -11
112 -17 131 -9 31 -8 33 8 18 28 -26 125 -66 173 -73 27 -4 67 0 104 10 32 8
60 14 62 13 1 -2 9 -38 18 -82 19 -91 84 -236 141 -312 46 -61 52 -65 96 -52
18 5 54 6 81 3 58 -8 122 14 160 54 14 15 53 43 88 62 281 156 354 485 184
835 -23 50 -53 103 -66 119 -20 25 -26 27 -61 22 -117 -19 -349 -115 -442
-183 l-39 -28 -50 52 c-73 78 -142 108 -242 108 -64 0 -90 -5 -129 -24 -95
-47 -158 -132 -177 -240 l-10 -57 -72 71 c-74 74 -137 113 -255 155 l-63 23
34 35 35 34 34 -37 c60 -66 165 -77 240 -24 88 63 96 201 16 276 -31 29 -89
53 -129 53 -26 0 -30 3 -24 18 14 35 25 129 25 207 -1 273 -162 522 -428 658
-147 76 -214 92 -382 91 -130 0 -153 -2 -225 -27 -101 -33 -187 -85 -276 -166
-119 -108 -210 -245 -239 -362 l-11 -45 -67 66 c-37 37 -85 77 -107 88 -73 39
-72 35 -33 89 20 26 54 83 77 125 43 83 106 270 98 292 -14 36 -306 56 -440
31z m302 -40 c46 -8 86 -17 89 -20 10 -9 -48 -175 -88 -255 -100 -200 -259
-337 -455 -391 -96 -27 -275 -32 -372 -10 -65 14 -78 25 -43 36 11 3 118 74
237 157 224 156 403 275 554 369 124 77 129 81 84 64 -147 -57 -515 -290 -807
-512 -54 -40 -99 -73 -102 -73 -10 0 37 147 69 218 151 325 465 482 834 417z
m-4182 -505 c18 0 82 -59 99 -91 19 -37 18 -73 -3 -116 -22 -47 -106 -88 -164
-80 -117 16 -166 156 -85 244 31 35 83 55 121 47 11 -2 25 -4 32 -4z m-741
-40 c133 -33 238 -91 324 -179 95 -96 169 -235 182 -341 3 -21 9 -16 47 43
142 219 388 324 641 273 294 -60 516 -268 616 -576 24 -76 27 -100 28 -230 1
-148 -5 -185 -46 -290 -62 -157 -170 -278 -314 -352 -49 -25 -98 -48 -109 -51
-11 -3 -39 -11 -63 -17 -36 -9 -42 -14 -31 -26 16 -20 5 -102 -21 -154 -29
-57 -84 -115 -154 -163 -42 -28 -63 -37 -74 -31 -24 15 -100 148 -122 213 -42
126 -19 271 59 369 17 22 31 43 31 47 0 18 -129 -87 -174 -142 -28 -34 -54
-62 -57 -62 -9 -1 -56 106 -78 180 -31 104 -43 174 -50 313 l-7 131 -12 -66
c-27 -145 -34 -276 -22 -407 13 -147 43 -298 77 -387 2 -6 -56 19 -129 54
-155 74 -440 171 -592 200 -174 34 -188 26 -46 -24 302 -108 586 -284 813
-505 l87 -85 -44 -75 c-79 -133 -177 -233 -302 -306 -41 -24 -213 -88 -220
-82 -1 2 -7 56 -13 121 -6 65 -18 148 -27 185 -33 134 -165 394 -244 482 l-31
35 29 -45 c45 -68 126 -235 160 -330 38 -103 59 -199 67 -305 l6 -80 -23 45
c-12 25 -44 90 -71 145 -81 165 -250 407 -376 538 -56 59 -76 62 -29 5 162
-197 345 -584 364 -766 l7 -61 -39 10 c-22 5 -120 28 -219 50 -211 48 -339
103 -446 192 -70 58 -146 150 -175 209 -16 34 -15 36 14 104 51 116 64 172 69
299 4 100 2 133 -15 198 l-20 78 31 36 c64 72 187 132 272 133 26 0 21 5 -40
36 -233 121 -381 311 -428 551 -18 93 -20 116 -10 201 20 175 83 311 202 435
120 125 262 200 456 241 60 12 217 5 291 -14z m2877 -20 c96 -36 162 -119 174
-220 6 -54 -13 -140 -31 -140 -6 0 -43 7 -81 15 -91 19 -264 19 -338 0 -76
-20 -74 -20 -87 21 -17 50 -7 150 18 201 61 118 213 172 345 123z m-779 -63
c114 -52 181 -159 181 -287 0 -89 -25 -149 -92 -221 -64 -69 -127 -93 -238
-94 -127 0 -134 3 -172 83 -18 37 -57 97 -87 134 -46 56 -56 74 -56 105 0 132
103 262 237 299 65 19 162 10 227 -19z m746 -307 c97 -12 208 -43 262 -72 l37
-21 -29 -77 c-33 -92 -94 -185 -167 -257 -198 -194 -455 -250 -748 -162 l-70
21 50 24 c28 12 129 60 225 105 96 45 272 125 390 179 250 113 324 149 317
157 -8 7 -144 -42 -312 -115 -161 -69 -592 -282 -638 -314 -16 -11 -30 -18
-33 -15 -10 9 18 104 51 173 59 122 141 213 263 292 82 53 140 70 307 91 6 0
49 -4 95 -9z m3873 -141 c66 -34 96 -99 78 -167 -19 -68 -94 -119 -159 -107
-46 8 -102 60 -102 94 0 31 64 161 87 179 21 15 67 16 96 1z m-4442 -27 c-5
-10 -18 -25 -27 -33 -16 -12 -17 -12 -9 1 10 18 37 50 42 50 2 0 -1 -8 -6 -18z
m-107 -144 c-25 -40 -63 -95 -85 -123 -56 -72 -115 -197 -136 -292 l-17 -81
-25 35 c-22 33 -24 47 -26 162 -1 78 -8 151 -18 191 -25 97 -28 93 56 85 86
-8 180 17 243 64 21 16 42 30 46 30 3 1 -14 -32 -38 -71z m952 -13 c20 -48 18
-75 -9 -125 -27 -51 -75 -80 -134 -80 -74 0 -74 6 -8 74 33 35 76 87 95 115
19 28 36 51 38 51 2 0 10 -16 18 -35z m4861 -110 c85 -159 115 -302 95 -451
-20 -151 -91 -263 -218 -344 -58 -36 -66 -37 -58 -6 16 66 -45 162 -121 192
l-44 16 23 47 c13 25 40 91 60 146 66 180 99 259 148 360 l49 100 -40 -45
c-22 -25 -53 -70 -70 -100 -42 -79 -113 -266 -151 -397 -29 -99 -36 -113 -55
-113 -42 0 -120 -48 -143 -89 -26 -46 -29 -124 -7 -179 l15 -37 -25 30 c-42
49 -104 185 -120 260 -22 103 -20 114 23 150 21 18 51 57 67 86 27 49 30 63
32 154 0 55 1 105 2 112 1 13 110 84 167 108 134 57 230 84 289 82 38 -2 40
-4 82 -82z m-717 9 c91 -50 143 -137 142 -239 -1 -152 -119 -265 -278 -265
-145 0 -250 94 -270 243 -15 110 66 239 176 278 76 27 160 21 230 -17z m-4481
-259 c14 -81 -3 -156 -53 -224 -45 -60 -98 -94 -184 -116 -187 -48 -366 93
-367 290 0 105 1 106 77 87 96 -24 314 -21 400 6 36 11 75 25 85 30 23 13 28
4 42 -73z m-3966 -211 c104 -53 176 -106 250 -184 163 -170 203 -351 132 -595
-31 -106 -90 -234 -112 -242 -19 -7 -117 39 -208 98 -88 58 -200 176 -241 254
-83 160 -80 340 10 520 40 81 101 175 112 175 3 0 28 -12 57 -26z m3041 -91
c67 -135 166 -593 166 -773 l0 -45 -144 -72 c-79 -39 -203 -108 -276 -152
l-133 -81 -41 24 c-65 38 -228 179 -305 263 l-70 77 62 42 c115 77 189 180
205 284 l7 51 85 33 c47 17 112 50 145 73 82 56 182 164 230 251 22 39 41 72
42 72 2 0 13 -21 27 -47z m2183 -14 c82 -91 243 -182 391 -220 50 -13 123 -22
207 -25 95 -4 129 -8 127 -17 -2 -7 -28 -62 -57 -123 -57 -118 -194 -331 -242
-377 l-29 -27 -70 24 c-93 33 -413 126 -431 126 -12 0 -14 9 -9 43 4 23 9 166
12 317 l5 275 27 22 c15 12 28 22 30 23 1 0 19 -18 39 -41z m3639 -85 c52 -25
78 -68 79 -130 0 -90 -65 -149 -156 -141 -79 7 -129 64 -129 150 0 106 107
168 206 121z m-645 -124 c102 -31 173 -115 186 -218 16 -137 -91 -269 -231
-286 -67 -9 -147 15 -193 58 l-36 33 51 89 c51 89 93 200 107 284 4 25 9 48
12 53 7 12 37 8 104 -13z m-1950 -392 c82 -63 242 -100 344 -79 l50 9 70 -67
c67 -64 101 -88 206 -143 l47 -24 -57 -48 c-96 -81 -270 -192 -403 -256 l-126
-61 -106 81 c-59 44 -157 115 -219 156 -92 62 -111 80 -109 97 11 68 112 287
180 390 l26 38 30 -33 c17 -18 47 -46 67 -60z m-1421 -32 c87 -12 93 -14 67
-24 -16 -7 -39 -12 -53 -12 -14 0 -36 -11 -49 -26 l-23 -25 -41 20 c-78 40
-133 21 -112 -40 6 -18 10 -33 9 -34 -11 -8 -68 -22 -68 -17 1 4 7 18 15 32
19 33 19 60 -2 82 -20 23 -49 23 -99 1 -22 -9 -50 -18 -64 -19 -97 -10 -188
-28 -202 -41 -28 -25 -23 -79 7 -99 14 -9 25 -23 25 -31 0 -12 -3 -12 -22 1
-39 28 -104 19 -213 -28 -98 -42 -100 -44 -103 -78 -4 -43 24 -68 75 -68 39 0
42 -13 9 -35 -22 -15 -30 -15 -84 -1 -33 9 -68 16 -79 16 -12 0 -23 10 -29 26
-9 26 -12 27 -99 30 -80 2 -189 16 -237 30 -10 3 -19 20 -23 45 -4 22 -13 43
-21 46 -36 14 -273 -82 -416 -169 -54 -32 -103 -58 -110 -58 -10 0 -73 -35
-175 -97 -14 -8 -23 -23 -23 -38 0 -18 -13 -32 -57 -59 -78 -47 -172 -129
-226 -196 -55 -68 -67 -92 -67 -125 0 -15 -9 -38 -20 -52 -27 -34 -26 -69 1
-76 44 -12 81 6 136 64 41 43 66 60 98 68 65 16 81 14 93 -15 9 -19 17 -24 32
-19 29 9 26 -31 -8 -118 -43 -108 -45 -121 -26 -249 18 -127 15 -144 -29 -150
-29 -4 -33 -41 -13 -109 35 -116 19 -200 -59 -329 -66 -108 -88 -182 -89 -300
-2 -157 19 -198 163 -310 28 -22 33 -35 45 -107 14 -81 47 -159 126 -293 52
-90 109 -140 160 -140 17 0 20 6 20 50 0 27 -7 68 -16 90 -22 54 -13 59 20 12
15 -22 58 -69 96 -106 l68 -67 8 -76 c5 -61 11 -81 29 -97 13 -12 81 -40 151
-63 71 -23 194 -62 274 -88 93 -31 205 -78 315 -132 200 -101 236 -124 334
-216 l74 -70 63 6 64 6 0 -114 c0 -121 -6 -143 -54 -212 -28 -41 -29 -45 -17
-85 7 -23 26 -65 42 -93 l29 -52 0 -603 0 -603 -147 6 c-631 27 -1219 241
-1688 614 -351 280 -689 703 -871 1090 -206 440 -308 1124 -236 1587 35 226
89 424 164 606 127 307 326 605 578 864 198 203 323 305 535 438 392 246 823
390 1310 437 61 6 126 13 145 15 68 8 496 -5 590 -18z m280 -73 c41 -13 86
-31 98 -39 23 -15 23 -16 7 -35 -10 -10 -26 -21 -36 -24 -11 -4 -19 -13 -19
-22 0 -8 -9 -26 -20 -40 -11 -14 -20 -36 -20 -49 0 -31 -15 -38 -42 -20 -37
23 -100 36 -133 27 -29 -8 -28 -9 30 -26 114 -33 112 -66 -4 -57 -108 8 -143
22 -168 67 -13 22 -22 49 -21 60 4 31 -40 75 -74 75 -42 0 -68 17 -68 45 0 35
11 37 69 9 29 -13 64 -24 77 -24 26 0 41 -33 29 -69 -12 -39 56 -55 96 -23
l22 19 -25 6 c-15 4 -36 25 -56 57 -18 28 -32 53 -32 55 0 1 15 5 33 8 17 3
50 12 72 20 46 19 79 15 185 -20z m-556 -12 c10 -16 -34 -61 -59 -61 -29 0
-51 33 -32 48 27 21 81 29 91 13z m-144 -37 c0 -9 -10 -24 -22 -33 -12 -10
-18 -23 -14 -29 9 -15 51 -15 75 0 15 9 25 9 46 0 62 -28 -1 -70 -107 -71 -74
-1 -110 12 -106 39 2 14 -5 25 -22 33 -14 7 -26 23 -28 35 -2 12 -2 22 0 23
43 8 165 24 171 21 4 -2 7 -10 7 -18z m895 16 c17 -7 15 -9 -12 -9 -17 -1 -35
4 -38 9 -7 12 22 12 50 0z m175 -60 c57 -14 142 -48 256 -104 266 -130 391
-223 557 -416 142 -165 161 -212 99 -244 -15 -8 -42 -30 -61 -50 -19 -19 -47
-38 -63 -41 -43 -10 -58 -40 -56 -116 1 -62 -12 -105 -36 -121 -33 -22 -61 -6
-168 100 -61 59 -116 118 -123 132 -7 14 -25 67 -39 119 -22 76 -25 99 -17
124 14 38 16 31 -21 74 -18 21 -38 47 -44 57 -6 11 -37 36 -69 55 -48 29 -65
48 -93 100 -40 72 -72 96 -149 111 -29 5 -78 15 -108 21 -68 13 -104 42 -111
90 -5 29 -2 40 15 56 14 13 19 26 15 37 -4 11 -1 22 7 27 24 15 120 10 209
-11z m-792 -29 c8 -1 12 -10 10 -23 -2 -15 5 -26 21 -34 59 -30 39 -70 -23
-45 -17 7 -42 16 -56 19 -29 6 -80 54 -80 74 0 13 45 16 128 9z m3053 -4 c0
-4 -7 -28 -17 -53 -13 -34 -21 -43 -33 -39 -9 4 -33 12 -53 18 -21 7 -38 14
-38 17 0 8 123 69 133 67 5 -2 8 -6 8 -10z m-2543 -40 c-8 -28 -7 -42 10 -80
26 -58 52 -72 177 -92 54 -8 110 -21 124 -28 14 -7 40 -39 59 -72 43 -78 57
-92 114 -121 26 -13 53 -34 59 -46 6 -13 21 -33 32 -45 16 -18 18 -30 13 -62
-7 -44 29 -182 65 -254 12 -22 71 -89 131 -149 109 -107 111 -108 158 -108 90
0 102 16 110 144 5 89 5 89 35 99 26 9 51 27 153 117 46 41 14 133 -84 239
-31 34 -53 61 -49 61 15 0 173 -141 277 -247 172 -175 291 -328 416 -533 61
-101 63 -105 40 -108 -58 -9 -60 -34 -13 -128 19 -38 35 -83 35 -101 0 -21 10
-44 29 -65 15 -18 33 -49 40 -69 15 -47 42 -71 88 -78 36 -6 38 -8 58 -76 12
-39 25 -85 28 -102 6 -32 5 -33 -27 -33 -19 0 -43 -8 -55 -17 -20 -17 -21 -22
-10 -113 16 -139 36 -228 66 -289 l27 -53 -26 -72 c-49 -132 -188 -467 -205
-492 -15 -23 -15 -35 -4 -112 7 -48 17 -114 21 -147 5 -33 18 -78 29 -100 12
-22 21 -58 21 -83 0 -64 27 -106 97 -147 6 -3 -45 -123 -102 -240 -131 -269
-276 -467 -530 -720 -195 -196 -287 -274 -465 -394 -135 -91 -171 -112 -305
-179 -185 -92 -384 -163 -610 -217 -107 -26 -331 -65 -370 -65 -18 0 97 88
145 111 67 32 129 72 208 136 44 36 60 43 97 43 39 0 49 5 87 43 24 24 81 62
128 86 140 72 177 99 229 171 39 53 63 75 115 104 37 20 75 36 85 36 48 0 148
65 226 148 44 46 139 143 212 216 163 162 200 230 156 285 -21 25 -173 81
-221 81 -22 0 -40 7 -51 21 -12 14 -30 22 -61 24 -25 1 -82 15 -127 31 l-82
29 -1 56 c0 47 -4 59 -27 81 -39 36 -62 46 -124 53 -132 17 -256 76 -272 130
-19 63 -40 94 -71 105 -35 11 -115 1 -185 -24 -61 -22 -78 -20 -132 15 -64 41
-150 55 -261 42 -89 -11 -105 -17 -201 -76 -67 -41 -116 -52 -187 -42 l-50 7
-1 61 c-3 236 -4 377 -2 377 0 0 26 -10 57 -21 l56 -22 -25 -29 c-20 -23 -23
-33 -15 -49 24 -43 108 -72 149 -50 26 14 36 52 21 80 -10 20 -8 21 30 21 36
0 40 -2 40 -25 0 -38 35 -68 73 -62 18 2 84 12 147 22 63 9 127 22 141 29 23
12 27 10 41 -14 27 -48 134 -50 164 -4 13 20 14 27 2 51 -12 25 -19 28 -72 31
-38 2 -65 -2 -80 -12 -21 -13 -23 -12 -33 14 -19 50 -63 65 -196 65 -106 0
-120 -2 -133 -19 -11 -15 -14 -16 -14 -5 0 26 -43 58 -105 79 -33 11 -66 22
-73 25 -10 4 -9 11 4 36 9 17 14 42 11 55 -3 20 1 23 27 26 39 4 58 38 44 79
-19 56 -99 78 -139 38 -25 -25 -18 -55 22 -90 25 -22 29 -31 23 -53 -8 -35
-33 -45 -50 -21 -16 21 -30 12 -36 -20 -3 -19 -7 -20 -45 -12 -39 7 -43 11
-43 37 0 22 7 32 28 42 61 29 79 132 41 232 -20 52 -20 57 -6 80 10 14 37 31
69 42 85 28 209 82 229 100 10 9 30 48 45 88 39 103 76 151 137 182 124 63
187 120 187 170 0 38 20 55 106 90 l52 21 19 -25 18 -24 75 27 c41 14 110 38
153 53 82 27 104 49 90 89 -13 39 -35 53 -82 53 -28 0 -59 8 -78 20 -41 24
-41 28 -3 22 44 -6 74 23 67 65 l-6 33 49 0 48 0 -21 -49 c-19 -46 -19 -51 -4
-74 9 -15 30 -28 49 -32 18 -4 68 -23 111 -42 94 -42 160 -44 165 -5 6 40 -17
78 -84 142 -61 59 -64 63 -58 100 4 21 1 55 -6 76 -16 49 -100 137 -184 194
-57 39 -68 51 -102 123 -41 84 -78 137 -97 137 -6 0 -28 -12 -49 -27 -39 -26
-39 -26 -65 -7 -14 11 -31 35 -37 53 -13 41 -17 43 -206 117 -19 7 -60 13 -91
14 -41 0 -58 4 -63 15 -7 19 2 42 20 49 19 7 95 -17 146 -47 24 -13 89 -48
146 -77 92 -47 108 -51 146 -46 66 10 79 24 78 84 -1 37 2 52 12 52 24 0 47
37 53 87 7 61 -15 113 -63 150 -19 14 -34 34 -34 46 0 44 -25 100 -54 123
-106 81 -224 158 -271 176 l-56 21 31 32 c16 17 30 38 30 48 0 19 32 86 42 87
3 0 2 -15 -4 -33z m-1006 -18 c13 -5 35 -31 48 -57 31 -59 65 -67 112 -27 38
32 85 32 80 0 -2 -11 -17 -41 -33 -66 -33 -51 -36 -77 -14 -118 18 -37 5 -50
-57 -58 -56 -7 -78 -19 -78 -43 0 -43 90 -51 160 -15 l30 16 0 -173 0 -173
-45 -29 c-112 -70 -171 -163 -145 -227 17 -39 92 -107 146 -130 l44 -20 -1
-812 0 -812 -26 32 c-15 17 -36 57 -47 89 -20 55 -23 58 -74 75 -29 10 -87 23
-130 29 -92 14 -128 4 -138 -36 l-7 -26 -81 8 c-200 18 -300 0 -359 -66 -59
-64 -71 -186 -30 -313 29 -93 112 -147 196 -128 21 5 79 33 130 62 81 47 100
54 157 57 92 4 95 1 75 -91 -27 -124 -26 -126 83 -157 135 -39 159 -68 129
-156 -17 -52 -11 -78 24 -109 23 -19 42 -25 75 -25 l45 0 -3 -37 c-3 -32 -7
-38 -42 -49 -21 -8 -50 -11 -64 -7 -14 3 -62 40 -107 82 -70 65 -109 90 -268
174 -167 87 -213 106 -434 178 -371 119 -363 114 -363 206 0 63 -14 89 -88
161 -40 39 -111 130 -170 217 -56 83 -113 164 -127 180 l-24 30 -1 -40 c0 -44
32 -120 79 -188 33 -48 77 -152 87 -203 5 -26 3 -34 -8 -34 -27 0 -79 67 -143
186 -62 113 -68 130 -101 291 -2 13 -33 46 -69 74 -36 28 -78 72 -93 98 -25
43 -27 54 -27 161 l0 115 48 95 c26 52 61 121 79 152 49 90 49 198 2 323 -4
11 5 20 31 31 l38 15 -6 82 c-4 45 -10 111 -13 147 -6 59 -3 74 30 159 26 66
36 105 34 135 -3 39 -4 41 -36 40 -27 -2 -33 2 -38 23 -6 24 -10 25 -52 19
-98 -13 -125 -26 -183 -87 -31 -32 -64 -59 -73 -59 -23 0 -20 13 9 40 20 19
24 30 19 52 -5 24 2 39 35 82 58 75 133 143 224 204 60 41 77 58 77 77 0 14 7
26 18 29 10 4 49 26 87 51 37 25 78 45 90 45 11 0 37 12 56 26 50 38 219 122
332 164 l97 37 0 -38 c0 -28 5 -41 20 -49 36 -19 169 -40 256 -40 80 0 85 -1
94 -24 9 -26 20 -31 89 -41 26 -4 55 -18 75 -35 30 -27 30 -30 18 -62 -7 -18
-14 -37 -15 -43 -1 -6 37 -11 94 -13 78 -2 100 0 113 13 31 31 20 45 -35 45
-61 0 -84 11 -105 52 -15 30 -15 32 2 45 10 7 26 13 36 13 19 0 21 16 9 60 -6
22 -14 26 -61 30 -42 4 -56 9 -58 23 -2 9 1 17 7 17 6 0 53 18 104 40 99 43
114 46 149 29z m137 -56 c-19 -22 -49 -15 -59 13 -6 14 -10 27 -10 29 0 2 18
-4 40 -12 32 -13 38 -19 29 -30z m184 -3 c-21 -27 -41 -49 -45 -50 -5 0 -8 20
-8 44 0 47 6 52 63 55 l28 1 -38 -50z m4115 21 c104 -53 157 -137 156 -251 -1
-104 -48 -182 -143 -238 -40 -23 -57 -27 -126 -27 -92 0 -133 16 -193 74 -96
93 -109 248 -29 358 74 104 222 142 335 84z m-6567 -58 c84 -106 169 -234 213
-322 l37 -73 -78 -82 c-43 -45 -108 -116 -146 -158 l-67 -77 -78 44 c-106 60
-270 132 -429 190 -102 37 -133 52 -133 66 0 13 13 20 50 28 141 30 285 108
386 209 57 58 151 191 160 230 4 12 10 22 15 22 5 0 36 -35 70 -77z m5567 41
c78 -24 136 -74 174 -151 29 -59 33 -77 33 -144 -1 -63 -6 -85 -30 -133 -33
-65 -88 -118 -155 -149 -34 -15 -66 -21 -130 -21 -73 0 -92 4 -135 26 -62 32
-130 103 -158 166 -29 66 -29 169 2 237 24 55 89 128 136 153 78 41 164 47
263 16z m-3008 -19 c11 -13 26 -15 90 -9 53 4 80 3 84 -5 4 -6 -15 -31 -43
-57 -38 -35 -57 -63 -77 -115 -30 -77 -28 -85 28 -103 20 -7 34 -19 36 -31 6
-33 20 -40 42 -20 25 22 26 66 5 166 -15 71 -15 73 7 96 20 22 29 24 73 19 27
-4 95 -10 150 -14 114 -10 128 -16 264 -111 150 -105 165 -121 166 -174 0 -41
5 -49 48 -89 43 -40 47 -49 47 -89 0 -25 -7 -54 -14 -65 -14 -18 -17 -17 -61
29 -41 42 -75 60 -75 39 0 -4 20 -39 45 -77 57 -86 57 -116 2 -129 -35 -9 -46
-5 -160 54 -67 36 -144 76 -172 91 -67 34 -69 53 -8 68 56 14 93 45 93 77 0
20 -6 23 -42 26 -42 3 -43 4 -48 43 -5 36 -9 41 -51 59 -67 27 -95 17 -120
-42 -27 -62 -54 -90 -101 -102 -53 -15 -52 -47 4 -93 28 -24 39 -39 35 -51 -4
-9 -13 -13 -21 -10 -9 3 -48 9 -88 13 -73 6 -73 6 -73 36 0 26 -3 30 -25 27
-14 -1 -63 -20 -108 -42 -46 -22 -86 -40 -88 -40 -2 0 -4 78 -4 174 0 106 -4
177 -10 181 -19 11 -10 22 40 49 51 28 94 72 84 87 -3 5 -23 9 -45 9 -57 0
-57 29 2 108 42 55 55 57 89 17z m2653 2 c18 11 5 -16 -19 -38 -63 -58 -102
-193 -84 -288 20 -107 69 -182 156 -240 l45 -29 -46 -28 c-58 -34 -251 -120
-367 -164 l-88 -33 -22 29 c-13 16 -60 72 -105 124 -45 52 -83 103 -83 112 0
21 110 186 187 281 72 87 193 200 265 247 52 34 60 37 105 30 26 -4 51 -6 56
-3z m1933 -28 c150 -46 307 -145 377 -237 21 -27 49 -78 63 -113 l26 -63 -34
-28 c-50 -42 -156 -94 -224 -112 -77 -20 -197 -20 -289 -1 -77 16 -269 107
-323 152 l-32 28 20 41 c11 23 26 68 32 101 l11 59 107 -26 c58 -15 187 -59
286 -98 110 -43 213 -77 267 -87 110 -21 145 -15 52 8 -38 10 -164 56 -280
102 -189 75 -302 111 -405 129 -33 6 -36 10 -52 63 -9 32 -15 59 -13 61 2 2
34 12 72 22 99 27 251 26 339 -1z m-4763 -98 c6 -30 -1 -71 -13 -71 -16 0 -27
45 -18 73 13 35 24 34 31 -2z m312 -94 l7 -57 -31 17 c-34 19 -36 33 -11 98
15 39 25 21 35 -58z m-245 53 c0 -5 -11 -10 -25 -10 -14 0 -25 5 -25 10 0 6
11 10 25 10 14 0 25 -4 25 -10z m3720 -180 c38 -75 68 -106 132 -140 111 -59
238 -51 338 21 l41 30 87 -55 c90 -57 198 -104 290 -127 l52 -13 0 -50 c0 -59
-18 -130 -48 -200 -12 -27 -16 -44 -9 -39 111 85 148 109 204 134 288 131 595
73 809 -154 178 -187 234 -448 150 -695 -34 -103 -79 -173 -166 -261 -134
-136 -319 -211 -520 -211 -85 0 -116 4 -210 26 -21 5 -16 -4 31 -53 162 -170
183 -444 52 -679 -38 -67 -153 -186 -232 -238 -195 -129 -474 -175 -684 -112
-246 74 -395 215 -479 456 -32 91 -33 101 -33 246 l0 150 -58 34 c-65 38 -111
85 -150 152 -33 55 -63 166 -49 180 16 16 169 30 246 24 187 -17 306 -79 418
-219 35 -46 38 -47 38 -23 0 43 -38 143 -80 212 l-39 64 61 0 c134 0 338 -57
527 -146 125 -60 128 -51 10 32 -173 122 -459 246 -689 299 -56 13 -104 25
-106 28 -3 2 19 22 48 44 178 135 415 395 522 573 26 43 24 42 -41 -25 -197
-204 -470 -387 -739 -495 l-82 -33 -48 28 c-69 40 -175 150 -222 231 -62 108
-94 212 -100 328 -5 94 -4 99 14 92 167 -68 266 -91 454 -106 135 -11 264 -8
415 11 86 11 219 39 213 45 -2 2 -43 -3 -90 -11 -213 -34 -474 -27 -698 19
-156 32 -312 98 -287 122 3 3 43 -1 89 -10 290 -54 663 -50 973 10 143 27 156
38 30 23 -269 -31 -744 9 -926 79 l-47 17 75 65 c41 36 90 82 109 103 19 20
35 37 36 37 2 0 1 -25 0 -55 -13 -210 253 -281 348 -94 74 143 -82 307 -236
249 -22 -9 -16 2 37 62 36 40 92 104 124 141 l60 69 6 -74 c3 -48 13 -88 29
-118z m-3880 50 c-20 -13 -50 -13 -50 0 0 6 15 10 33 10 24 0 28 -3 17 -10z
m695 -62 c17 -7 25 -19 25 -35 0 -34 17 -63 43 -72 18 -7 14 -10 -31 -25 -53
-18 -72 -38 -72 -75 0 -14 -8 -21 -27 -23 -19 -2 -32 -12 -41 -31 -17 -35 -28
-28 -36 23 -5 33 -13 45 -42 62 l-36 21 44 23 c48 24 73 54 84 100 4 16 9 32
11 37 6 11 49 9 78 -5z m-4932 -75 c97 -55 150 -170 123 -272 -27 -107 -97
-173 -202 -193 -191 -35 -340 141 -282 333 20 69 89 134 168 160 48 16 137 3
193 -28z m7997 -38 c92 -48 105 -180 23 -242 -44 -33 -123 -38 -167 -10 -86
56 -87 196 -2 248 37 23 106 25 146 4z m-7495 -84 c95 -54 98 -187 6 -248 -89
-60 -209 -5 -227 104 -11 70 30 133 103 158 42 15 73 11 118 -14z m4078 -79
c29 -3 37 -7 37 -23 0 -41 19 -59 61 -59 22 0 51 -7 65 -16 16 -11 36 -15 59
-11 41 7 42 4 15 -54 -26 -59 -26 -119 2 -154 17 -21 19 -33 12 -53 -13 -36
-27 -36 -44 1 -13 27 -21 32 -56 35 -35 3 -45 -1 -63 -25 -32 -40 -13 -103 32
-103 19 0 18 -2 -6 -24 -14 -13 -33 -48 -43 -79 -12 -39 -21 -54 -31 -50 -10
4 -12 16 -7 48 12 83 -29 118 -194 165 l-72 21 2 172 3 172 84 43 84 43 11
-23 c8 -17 22 -24 49 -26z m127 -22 c13 -9 13 -12 -3 -25 -21 -15 -47 -10 -47
9 0 26 24 33 50 16z m125 -20 c10 -15 -14 -50 -34 -50 -24 0 -45 25 -37 45 6
17 61 21 71 5z m-496 -187 c1 -79 -1 -143 -4 -143 -3 0 -25 9 -48 21 -50 25
-94 64 -112 100 -21 40 13 100 89 156 75 55 74 57 75 -134z m705 122 c26 -14
69 -32 96 -41 28 -9 50 -22 50 -30 0 -29 24 -63 60 -83 48 -27 52 -26 89 5 17
14 35 23 41 19 6 -4 29 -45 52 -91 43 -90 64 -113 168 -191 36 -26 80 -70 98
-97 27 -41 32 -57 32 -107 l0 -58 75 -75 c41 -41 75 -80 75 -86 0 -24 -33 -20
-107 13 -43 20 -97 40 -120 46 -23 7 -45 16 -48 21 -3 5 6 26 20 46 30 44 29
64 -5 81 -30 15 -114 17 -141 3 -20 -11 -26 -45 -9 -55 18 -11 11 -35 -10 -35
-12 0 -34 7 -50 15 -23 12 -30 22 -30 46 0 29 -1 30 -37 23 -113 -20 -137 -61
-53 -89 28 -9 63 -27 78 -39 66 -54 96 -69 151 -75 46 -5 57 -10 59 -26 2 -17
-15 -26 -135 -67 l-138 -47 -13 25 c-16 30 -33 28 -122 -12 -75 -34 -110 -69
-110 -110 0 -39 -38 -76 -137 -130 -108 -59 -118 -72 -196 -256 -19 -43 -45
-58 -192 -112 -150 -55 -167 -85 -124 -213 21 -61 21 -64 4 -109 -15 -40 -38
-64 -50 -52 -2 2 -7 370 -11 816 l-7 813 29 -7 c67 -17 169 -55 186 -71 14
-12 18 -31 18 -79 0 -59 2 -64 24 -70 53 -13 69 -3 82 56 13 58 20 66 124 143
61 44 72 87 40 148 l-22 44 28 87 28 88 56 0 c42 0 70 -7 104 -25z m2336 -460
c54 -170 161 -314 294 -395 l40 -24 -32 -13 c-92 -38 -456 -91 -470 -69 -3 6
-20 53 -38 106 -38 112 -130 321 -173 390 l-30 48 110 69 c61 37 145 95 187
129 l77 60 7 -115 c4 -75 14 -141 28 -186z m-7161 224 c181 -121 277 -281 288
-479 8 -149 -20 -256 -111 -418 -45 -81 -70 -112 -91 -112 -25 0 -163 100
-232 168 -75 76 -135 168 -161 252 -26 84 -23 246 6 330 47 131 168 300 217
300 12 0 50 -19 84 -41z m587 -22 c146 -74 210 -252 143 -397 -35 -76 -80
-124 -145 -156 -57 -28 -155 -42 -217 -30 l-34 6 -6 108 c-6 127 -30 203 -95
310 l-44 74 29 30 c28 29 85 63 133 79 14 5 61 7 105 5 62 -2 91 -8 131 -29z
m3952 -19 c16 -16 15 -23 -4 -42 -20 -21 -30 -20 -55 5 -16 16 -18 23 -8 35
14 17 51 18 67 2z m-4988 -100 c25 -10 61 -35 81 -54 l36 -35 -13 -50 c-22
-83 -28 -189 -14 -253 14 -70 5 -84 -85 -127 -48 -23 -74 -29 -131 -29 -155 0
-268 110 -282 276 -13 168 146 316 318 297 25 -3 65 -14 90 -25z m7218 -159
c13 -22 34 -70 48 -105 13 -36 32 -74 42 -84 26 -28 57 -119 44 -132 -22 -22
-47 -3 -63 47 -10 33 -24 55 -41 64 -21 12 -27 24 -31 69 -4 34 -15 69 -32 93
-29 44 -46 85 -39 92 14 14 52 -9 72 -44z m-1652 -156 c-3 -3 -13 -2 -23 2
-17 7 -17 8 2 15 19 7 34 -5 21 -17z m-5391 -290 c70 -106 166 -194 294 -272
99 -60 94 -61 149 29 27 43 64 111 82 149 19 39 39 71 45 71 26 0 145 -81 205
-140 89 -88 138 -166 179 -285 48 -139 53 -252 18 -385 l-26 -95 43 -45 c23
-25 51 -61 63 -80 49 -81 66 -210 40 -310 -14 -54 -29 -58 -136 -36 -159 33
-271 118 -341 258 -22 43 -42 94 -46 113 -10 57 -24 29 -24 -48 0 -77 27 -192
61 -258 l19 -39 -28 0 c-111 0 -349 129 -557 302 l-40 33 46 -60 c75 -98 240
-248 356 -325 106 -70 243 -142 296 -155 15 -4 27 -11 27 -15 0 -4 -28 -20
-62 -35 -113 -50 -281 -146 -388 -221 -105 -73 -300 -239 -300 -255 0 -5 31
11 68 36 222 143 509 260 784 320 l76 17 54 -35 c78 -50 135 -113 174 -192
104 -211 80 -484 -61 -701 -50 -77 -206 -230 -278 -272 -73 -44 -218 -106
-298 -129 -49 -13 -101 -18 -224 -18 -181 0 -221 8 -365 77 -71 34 -100 56
-175 132 -108 109 -164 209 -191 346 -21 107 -15 266 15 360 12 36 21 66 21
67 0 1 -26 -9 -58 -22 -121 -49 -255 -65 -382 -44 -366 59 -620 375 -620 770
0 96 27 206 76 308 62 128 173 243 288 297 l78 37 47 -16 c75 -27 141 -19 186
23 17 16 27 17 72 9 81 -15 116 -34 195 -103 40 -36 74 -64 76 -62 1 2 -19 39
-46 83 -72 119 -87 174 -87 318 0 115 1 123 33 190 82 173 228 292 422 344 41
11 82 20 91 20 9 1 33 -25 54 -56z m7251 -161 c15 -9 58 -206 76 -342 20 -160
17 -577 -5 -715 -29 -182 -109 -485 -129 -485 -3 0 -20 11 -36 25 -25 21 -31
35 -37 88 -4 34 -14 73 -23 87 -9 14 -19 54 -23 90 -3 36 -12 97 -19 135 l-13
70 71 175 c39 96 91 224 117 283 53 124 54 144 11 263 -23 65 -56 239 -56 298
0 29 40 46 66 28z m-6211 -89 c55 -13 156 -46 225 -73 l125 -50 -3 -187 c-4
-215 7 -370 45 -597 21 -133 23 -160 12 -167 -40 -25 -313 -98 -325 -87 -1 2
4 28 12 58 36 139 -5 290 -108 402 l-38 41 16 46 c63 184 30 413 -86 603 l-30
48 27 -6 c16 -3 73 -17 128 -31z m6647 -27 c12 -102 107 -244 205 -305 l43
-27 4 -144 c2 -92 9 -167 20 -205 23 -86 88 -209 152 -288 32 -40 48 -67 40
-67 -51 0 -402 124 -653 231 l-103 44 0 160 c0 138 -11 281 -36 480 l-6 51 55
28 c60 30 257 97 268 90 3 -2 9 -24 11 -48z m-8557 -220 c124 -52 80 -246 -55
-246 -134 0 -178 184 -59 243 42 20 70 21 114 3z m10692 -61 c50 -21 72 -42
94 -90 36 -78 19 -156 -44 -212 -110 -97 -257 -47 -298 100 -14 51 3 108 46
156 53 58 131 76 202 46z m-5621 -225 c61 -21 62 -22 83 -78 19 -54 71 -122
92 -122 5 0 9 -18 9 -40 l0 -40 -98 0 c-108 0 -142 -13 -142 -55 0 -47 21 -56
168 -71 34 -3 65 -11 69 -17 4 -7 8 -112 9 -235 1 -173 -1 -225 -11 -228 -7
-3 -29 1 -48 10 -45 18 -54 48 -32 100 40 96 -13 153 -172 186 -35 7 -63 18
-63 24 0 6 7 36 15 66 21 79 20 127 -5 140 -11 6 -53 11 -93 12 -80 0 -105 -8
-206 -71 -161 -101 -261 -37 -269 174 -3 79 0 95 20 129 49 84 124 105 308 86
130 -14 155 -8 166 37 7 25 8 26 72 20 36 -4 94 -16 128 -27z m444 -128 c30
-24 18 -46 -19 -37 -32 8 -51 23 -51 41 0 20 44 17 70 -4z m-174 -197 c27 -8
59 -15 71 -15 12 0 34 -7 50 -15 15 -8 55 -25 88 -37 46 -18 61 -28 63 -46 3
-18 -2 -22 -25 -23 -74 -4 -125 6 -202 38 -61 24 -120 40 -208 52 -68 10 -126
21 -131 25 -4 4 2 14 12 22 27 20 216 19 282 -1z m584 -129 c22 -8 36 -20 38
-33 3 -23 11 -21 -211 -54 -70 -11 -80 -10 -95 5 -16 16 -16 18 4 34 12 9 27
27 33 40 11 20 18 22 104 21 51 0 108 -6 127 -13z m224 -64 c12 -20 -13 -33
-55 -30 -32 2 -45 8 -47 21 -3 14 4 17 47 17 27 0 52 -4 55 -8z m-635 -21 c13
-24 5 -31 -33 -31 -35 0 -80 26 -71 41 4 5 26 9 50 9 33 0 47 -5 54 -19z
m4495 -169 c87 -47 146 -143 146 -237 0 -113 -83 -224 -194 -259 -100 -32
-194 -8 -269 67 -145 145 -90 389 100 442 32 9 63 18 68 20 23 9 104 -9 149
-33z m-4036 -121 c67 -43 98 -47 174 -23 142 46 177 39 203 -37 31 -95 136
-151 330 -177 74 -10 105 -47 105 -124 0 -58 0 -58 33 -66 17 -3 64 -20 104
-35 58 -24 76 -27 99 -19 15 6 27 9 28 8 1 -2 7 -15 14 -30 10 -25 17 -28 59
-28 27 0 84 -13 128 -28 l80 -27 -1 -37 c-2 -50 -53 -118 -160 -209 -47 -41
-101 -95 -120 -120 -64 -87 -184 -193 -247 -217 -33 -12 -65 -22 -73 -22 -7 0
-42 -16 -78 -36 -48 -26 -73 -48 -96 -84 -48 -75 -107 -123 -230 -185 -68 -35
-127 -73 -149 -96 -26 -28 -41 -37 -57 -33 -32 8 -81 -17 -159 -80 -38 -31
-106 -75 -150 -97 -44 -22 -93 -53 -110 -68 -38 -36 -73 -54 -91 -47 -18 7
-19 88 0 124 7 15 19 51 25 81 6 29 25 87 41 128 l30 75 0 211 0 212 -75 39
c-105 55 -170 117 -214 201 -30 59 -42 72 -71 81 -28 9 -44 26 -78 80 -49 80
-53 121 -12 141 36 18 50 42 50 84 0 31 7 43 45 75 l44 39 -6 99 -6 98 -49 -6
-49 -7 3 38 3 38 88 1 c87 0 90 1 190 54 118 62 150 70 269 66 78 -3 93 -7
136 -35z m-628 -228 c0 -21 3 -54 6 -74 5 -30 2 -38 -20 -52 l-26 -17 0 90 c0
83 1 90 20 90 16 0 20 -7 20 -37z m1 -573 c5 0 22 -30 39 -66 37 -83 125 -165
236 -222 l41 -21 5 -188 c6 -182 5 -190 -19 -248 -36 -89 -85 -263 -90 -322
-3 -28 0 -60 6 -71 10 -18 6 -20 -57 -26 -37 -3 -97 -6 -134 -6 l-68 0 0 591
c0 535 2 591 16 585 9 -3 20 -6 25 -6z"/>
<path d="M1405 6390 c25 -220 99 -469 230 -775 78 -184 103 -230 90 -165 -9
43 -26 92 -103 290 -65 167 -158 460 -193 605 -25 106 -33 121 -24 45z"/>
<path d="M7988 4719 c-12 -6 -18 -22 -18 -43 0 -27 14 -49 76 -120 42 -47 84
-91 94 -96 29 -16 107 -12 113 5 9 23 -20 108 -52 152 -36 50 -86 88 -126 96
-16 4 -39 9 -50 12 -11 3 -28 0 -37 -6z m83 -45 c40 -13 58 -27 89 -68 36 -47
60 -94 60 -117 0 -23 -52 -6 -87 29 -70 69 -133 144 -133 158 0 18 10 18 71
-2z"/>
<path d="M6277 2602 c-20 -22 -22 -83 -5 -100 17 -17 64 -15 82 4 22 21 20 56
-5 88 -24 30 -49 33 -72 8z m51 -50 c3 -17 -2 -22 -17 -22 -16 0 -21 6 -21 26
0 33 33 30 38 -4z"/>
<path d="M6971 2311 c-39 -54 -16 -111 44 -111 63 0 82 67 34 119 -27 29 -54
26 -78 -8z m61 -36 c8 -19 8 -29 0 -37 -18 -18 -42 -1 -42 32 0 38 26 41 42 5z"/>
<path d="M1707 4414 c-31 -31 73 -670 144 -889 29 -90 58 -152 59 -127 0 7
-20 102 -44 210 -61 268 -101 490 -127 697 -12 99 -19 122 -32 109z"/>
<path d="M4434 8251 c-69 -32 -124 -115 -124 -191 0 -91 69 -180 158 -206 84
-25 150 -7 213 56 77 77 86 178 24 271 -51 79 -180 111 -271 70z m187 -50
c107 -68 110 -217 6 -287 -34 -23 -53 -28 -103 -29 -51 0 -66 4 -97 28 -55 41
-80 98 -75 164 5 63 28 99 84 130 58 33 127 31 185 -6z"/>
<path d="M3882 8200 c-62 -13 -140 -59 -177 -105 -54 -67 -68 -103 -73 -191
-4 -72 -1 -89 20 -136 34 -75 79 -122 146 -155 49 -24 70 -28 142 -28 73 0 93
4 142 28 58 29 108 79 144 147 15 27 19 56 19 130 0 84 -3 101 -27 146 -63
121 -207 190 -336 164z m164 -59 c131 -59 194 -202 152 -342 -15 -51 -68 -112
-126 -147 -41 -24 -57 -27 -132 -27 -75 0 -91 3 -132 27 -201 119 -192 394 17
489 54 25 166 25 221 0z"/>
<path d="M4918 8041 c-119 -75 -115 -255 7 -319 137 -70 285 18 285 171 0 33
-24 94 -48 120 -57 63 -169 76 -244 28z m166 -25 c75 -31 109 -139 64 -206
-32 -48 -105 -83 -153 -74 -45 8 -93 47 -111 91 -53 126 70 243 200 189z"/>
<path d="M10235 5819 c-76 -22 -117 -118 -81 -188 47 -90 183 -95 236 -8 39
63 16 146 -52 187 -35 21 -56 23 -103 9z m84 -43 c30 -16 51 -53 51 -92 0 -39
-51 -84 -95 -84 -27 0 -44 8 -66 29 -33 34 -37 69 -12 111 28 48 73 61 122 36z"/>
<path d="M9479 5533 c-74 -46 -78 -158 -7 -207 32 -22 106 -20 146 4 40 25 55
61 49 120 -7 63 -49 100 -115 100 -26 0 -59 -8 -73 -17z m129 -49 c31 -36 29
-79 -7 -115 -16 -16 -39 -29 -50 -29 -72 0 -116 80 -75 138 33 48 92 50 132 6z"/>
<path d="M521 5455 c-90 -25 -142 -53 -238 -126 -137 -104 -293 -293 -278
-338 3 -11 43 -55 89 -98 189 -179 420 -255 635 -209 187 40 370 172 450 325
22 43 41 89 41 101 0 29 -165 192 -255 253 -135 91 -315 128 -444 92z m292
-60 c99 -40 201 -111 291 -203 l79 -81 -13 -32 c-25 -60 -107 -174 -162 -226
-128 -120 -325 -174 -503 -138 -88 18 -212 71 -284 122 -57 41 -171 152 -171
168 0 23 107 162 180 235 84 83 161 133 259 168 93 32 226 27 324 -13z"/>
<path d="M950 5104 c-257 -20 -352 -30 -590 -60 -392 -50 -378 -54 65 -18 99
8 268 21 375 29 107 9 231 20 274 25 79 10 112 20 64 20 -14 0 -52 2 -84 4
-32 2 -79 2 -104 0z"/>
<path d="M842 4640 c-66 -40 -92 -132 -57 -200 18 -35 81 -70 124 -70 74 0
146 58 157 126 17 118 -120 207 -224 144z m122 -30 c75 -28 78 -148 4 -186
-65 -34 -142 -4 -154 61 -18 96 59 160 150 125z"/>
<path d="M463 4434 c-45 -26 -86 -86 -98 -141 -9 -46 18 -133 52 -165 78 -75
194 -76 272 -4 43 40 61 83 61 148 0 70 -25 115 -84 156 -64 42 -139 45 -203
6z m175 -34 c47 -29 72 -76 72 -135 0 -159 -187 -213 -284 -82 -15 21 -21 43
-21 82 0 45 5 59 31 92 17 21 42 44 55 50 37 19 109 16 147 -7z"/>
<path d="M452 3912 c-230 -82 -296 -378 -123 -551 87 -87 226 -115 346 -71 80
30 164 114 191 191 29 83 25 189 -9 260 -32 67 -99 132 -165 162 -66 29 -172
33 -240 9z m236 -51 c174 -89 215 -329 78 -466 -93 -92 -215 -115 -328 -61
-107 51 -173 152 -172 266 1 219 229 359 422 261z"/>
<path d="M11154 2557 c-144 -37 -237 -157 -238 -307 0 -91 29 -163 93 -227 66
-66 120 -87 221 -87 74 0 93 3 143 29 64 32 114 81 149 147 33 61 33 202 1
268 -36 73 -79 117 -147 150 -74 36 -148 45 -222 27z m171 -48 c71 -26 113
-63 149 -129 101 -186 -35 -410 -250 -410 -111 0 -224 84 -260 192 -47 141 30
301 168 349 70 24 125 24 193 -2z"/>
<path d="M9534 2006 c-23 -7 -63 -28 -88 -47 -90 -64 -133 -163 -124 -288 8
-104 57 -183 153 -240 113 -68 272 -50 373 42 24 23 56 64 70 92 22 43 26 63
27 140 0 79 -3 96 -27 141 -30 57 -98 122 -156 150 -48 23 -173 28 -228 10z
m237 -63 c37 -21 66 -48 94 -87 37 -53 40 -64 43 -136 3 -61 0 -87 -16 -123
-59 -133 -202 -199 -345 -158 -105 30 -191 149 -191 266 0 112 75 222 178 259
67 25 172 16 237 -21z"/>
<path d="M11135 1801 c-79 -22 -136 -66 -161 -128 -43 -103 13 -233 118 -277
161 -68 336 73 299 240 -26 113 -150 193 -256 165z m132 -63 c121 -74 117
-235 -8 -298 -76 -39 -189 -13 -229 52 -41 67 -35 163 14 216 56 63 150 75
223 30z"/>
<path d="M10145 1712 c-11 -2 -32 -13 -48 -24 -69 -49 -75 -139 -12 -197 35
-31 41 -33 92 -29 44 4 60 11 85 35 57 57 46 163 -20 196 -35 18 -72 25 -97
19z m86 -61 c56 -57 27 -145 -53 -158 -32 -5 -41 -1 -69 26 -28 29 -31 36 -26
74 11 83 91 114 148 58z"/>
<path d="M10688 1440 c-96 -51 -114 -199 -33 -276 67 -63 169 -65 239 -4 45
40 59 78 54 145 -5 62 -26 97 -78 133 -43 29 -129 30 -182 2z m139 -25 c12 -3
36 -22 52 -41 59 -66 36 -165 -47 -205 -30 -15 -52 -19 -77 -15 -112 21 -151
172 -62 240 44 33 75 38 134 21z"/>
<path d="M10137 1416 c-167 -62 -249 -244 -186 -413 28 -73 94 -144 162 -174
72 -32 193 -32 258 -1 70 34 125 87 156 150 38 77 40 190 4 269 -27 62 -94
126 -159 156 -60 26 -181 33 -235 13z m193 -42 c70 -21 149 -98 173 -168 45
-132 -11 -268 -137 -334 -68 -35 -180 -38 -241 -5 -137 73 -195 240 -129 371
62 124 194 178 334 136z"/>
<path d="M9640 1338 c-116 -60 -122 -207 -11 -272 100 -58 231 18 231 133 0
57 -15 86 -60 122 -50 40 -104 46 -160 17z m143 -55 c77 -69 42 -178 -63 -198
-40 -7 -96 23 -118 65 -30 58 15 154 77 162 36 5 80 -8 104 -29z"/>
</g>
</svg>
