<?xml version="1.0" standalone="no"?>
<!DOCTYPE svg PUBLIC "-//W3C//DTD SVG 20010904//EN"
 "http://www.w3.org/TR/2001/REC-SVG-20010904/DTD/svg10.dtd">
<svg version="1.0" xmlns="http://www.w3.org/2000/svg"
 width="700.000000pt" height="700.000000pt" viewBox="0 0 700.000000 700.000000"
 preserveAspectRatio="xMidYMid meet">

<g transform="translate(0.000000,700.000000) scale(0.100000,-0.100000)"
fill="#000000" stroke="none">
<path d="M3271 6184 c-46 -8 -131 -30 -189 -49 -454 -152 -782 -523 -883 -998
-31 -144 -31 -380 0 -524 78 -371 303 -688 621 -877 658 -390 1512 -146 1858
531 107 210 145 369 145 608 0 224 -35 382 -129 580 -178 377 -558 662 -974
730 -117 18 -334 18 -449 -1z m425 -169 c424 -74 770 -374 903 -784 41 -126
55 -220 54 -366 -2 -322 -124 -602 -360 -826 -129 -123 -272 -208 -438 -262
-134 -43 -192 -52 -355 -52 -163 0 -221 9 -355 52 -166 54 -309 139 -438 262
-524 498 -472 1337 109 1767 142 106 306 176 480 208 107 19 292 19 400 1z"/>
<path d="M2427 3639 c-238 -26 -444 -128 -639 -317 -379 -367 -625 -829 -717
-1350 -33 -182 -45 -406 -32 -568 30 -357 131 -525 356 -589 48 -14 84 -17
190 -12 157 6 268 33 676 160 637 200 887 250 1254 250 373 1 653 -55 1287
-253 374 -118 596 -160 736 -140 269 38 391 208 423 587 12 149 1 380 -26 541
-89 521 -337 998 -707 1358 -158 154 -267 227 -417 279 -124 44 -207 57 -346
58 -158 0 -241 -17 -424 -84 -249 -93 -443 -122 -664 -101 -153 15 -248 38
-418 101 -204 75 -362 99 -532 80z m2191 -180 c163 -26 317 -109 468 -252 481
-455 750 -1144 703 -1798 -13 -183 -54 -298 -129 -361 -52 -45 -103 -59 -209
-59 -138 1 -258 29 -701 166 -812 251 -1242 289 -1845 164 -180 -37 -337 -80
-670 -184 -450 -140 -555 -165 -695 -165 -133 0 -205 38 -258 138 -62 117 -88
330 -71 585 36 546 258 1051 638 1450 215 227 426 327 688 327 133 0 216 -16
354 -69 245 -92 365 -115 609 -115 246 0 356 21 620 119 184 68 319 83 498 54z"/>
</g>
</svg>
