<?xml version="1.0" standalone="no"?>
<!DOCTYPE svg PUBLIC "-//W3C//DTD SVG 20010904//EN"
 "http://www.w3.org/TR/2001/REC-SVG-20010904/DTD/svg10.dtd">
<svg version="1.0" xmlns="http://www.w3.org/2000/svg"
 width="896.000000pt" height="320.000000pt" viewBox="0 0 896.000000 320.000000"
 preserveAspectRatio="xMidYMid meet">

<g transform="translate(0.000000,320.000000) scale(0.100000,-0.100000)"
fill="#000000" stroke="none">
<path d="M7530 3189 c-356 -42 -649 -203 -874 -478 -82 -100 -118 -159 -167
-271 -173 -399 -139 -825 95 -1188 46 -72 79 -113 185 -231 84 -93 384 -435
670 -763 118 -135 220 -244 225 -241 6 3 79 82 163 176 83 95 222 251 309 347
86 96 202 227 257 290 56 63 104 117 108 120 27 22 201 229 239 285 226 334
277 756 136 1134 -106 284 -342 548 -615 686 -89 45 -240 96 -341 115 -118 23
-291 31 -390 19z m360 -410 c233 -57 447 -215 563 -416 90 -157 122 -276 121
-458 -1 -231 -81 -428 -243 -598 -42 -44 -101 -96 -131 -117 -415 -282 -952
-200 -1264 193 -55 69 -117 196 -148 303 -33 114 -33 343 0 458 87 305 305
526 617 626 132 43 332 46 485 9z"/>
<path d="M7580 2389 c-125 -21 -285 -139 -339 -252 -132 -275 13 -583 310
-662 306 -82 618 177 592 489 -10 120 -79 252 -170 324 -59 46 -158 90 -233
101 -73 12 -83 12 -160 0z"/>
<path d="M6690 2976 c-282 -86 -503 -239 -672 -464 -170 -226 -250 -470 -250
-757 1 -212 41 -380 132 -561 81 -159 128 -213 889 -1032 57 -62 112 -122 121
-133 10 -10 20 -19 22 -19 3 0 47 47 98 105 l92 105 -49 53 c-26 29 -156 169
-288 312 -382 412 -455 495 -512 583 -139 211 -203 430 -203 688 0 332 119
625 351 868 97 102 167 157 291 229 91 52 88 56 -22 23z"/>
<path d="M4866 2773 c-21 -62 -21 -83 3 -83 36 0 52 12 92 71 l40 59 -60 0
-59 0 -16 -47z"/>
<path d="M80 2587 c-77 -20 -80 -33 -80 -359 l0 -278 60 0 60 0 0 130 0 129
118 3 117 3 3 52 3 52 -118 3 -118 3 1 68 c0 39 6 73 13 80 8 8 59 13 152 15
l140 4 -3 51 -3 52 -150 2 c-90 1 -168 -3 -195 -10z"/>
<path d="M862 2592 c-12 -2 -29 -13 -36 -25 -14 -22 -216 -591 -216 -609 0 -5
28 -8 62 -6 l63 3 15 53 15 52 111 0 112 0 10 -27 c6 -16 14 -40 18 -55 6 -27
9 -28 70 -28 35 0 64 2 64 4 0 13 -213 613 -221 622 -12 15 -37 21 -67 16z
m90 -406 c3 -19 -3 -21 -66 -24 -38 -2 -73 1 -77 5 -7 7 52 220 69 247 5 9 68
-186 74 -228z"/>
<path d="M1375 2587 c-4 -8 -5 -134 -3 -280 3 -251 4 -267 24 -294 34 -46 69
-58 188 -61 134 -5 184 11 222 68 50 75 44 168 -13 231 -35 39 -36 40 -16 54
82 57 62 223 -32 270 -54 26 -361 37 -370 12z m310 -122 c32 -31 32 -69 0
-101 -23 -23 -31 -25 -107 -22 l-83 3 -3 59 c-4 86 -5 86 88 86 73 0 83 -3
105 -25z m11 -256 c26 -29 26 -99 0 -128 -16 -18 -31 -21 -91 -21 -98 0 -108
9 -113 99 l-4 71 94 0 c84 0 97 -2 114 -21z"/>
<path d="M2205 2594 c-105 -26 -105 -26 -105 -364 l0 -280 60 0 60 0 0 120 0
120 48 0 48 0 63 -120 62 -120 71 0 70 0 -43 78 c-23 42 -55 100 -71 129 l-29
51 31 18 c17 10 43 37 57 59 39 58 40 150 1 217 -39 66 -93 90 -212 94 -50 2
-100 1 -111 -2z m179 -115 c33 -15 59 -71 51 -109 -4 -16 -20 -41 -37 -55 -26
-22 -39 -25 -104 -25 l-74 0 0 84 c0 76 2 86 22 100 26 19 106 21 142 5z"/>
<path d="M2820 2275 l0 -325 60 0 60 0 0 325 0 325 -60 0 -60 0 0 -325z"/>
<path d="M3355 2591 c-49 -13 -90 -38 -123 -75 -43 -49 -55 -121 -50 -281 6
-156 22 -199 94 -245 63 -40 122 -50 289 -50 l145 0 0 55 0 55 -47 -7 -48 -6
22 24 c39 43 53 102 53 228 0 64 -5 134 -11 156 -13 48 -59 99 -114 127 -44
23 -157 33 -210 19z m173 -125 c28 -25 42 -91 42 -198 0 -154 -25 -202 -111
-214 -60 -8 -112 14 -136 58 -14 26 -17 58 -18 158 0 139 11 181 54 206 36 20
143 14 169 -10z"/>
<path d="M3917 2593 c-12 -11 -8 -445 4 -488 41 -150 244 -209 392 -116 29 19
51 44 65 72 20 41 21 63 23 289 l1 245 -58 0 -59 0 -5 -241 c-5 -218 -7 -244
-24 -263 -43 -47 -144 -51 -185 -7 -35 37 -41 81 -41 303 l0 213 -53 0 c-30 0
-57 -3 -60 -7z"/>
<path d="M4670 2328 c0 -253 1 -275 20 -305 35 -58 67 -67 243 -71 l157 -4 0
56 0 56 -134 0 c-163 0 -166 2 -166 96 l0 64 95 0 c105 0 95 -7 109 78 l6 32
-105 0 -105 0 0 80 0 80 150 0 150 0 0 55 0 55 -210 0 -210 0 0 -272z"/>
<path d="M2 1452 c3 -245 5 -281 21 -305 37 -56 57 -62 240 -65 l168 -4 -3 54
-3 53 -137 5 c-91 3 -141 9 -150 18 -6 6 -14 41 -16 77 l-4 65 106 0 106 0 0
55 0 55 -105 0 -106 0 3 78 3 77 153 3 153 3 -3 52 -3 52 -213 3 -213 2 3
-278z"/>
<path d="M597 1724 c-4 -4 -7 -151 -7 -326 l0 -318 60 0 60 0 0 199 c0 110 3
202 8 204 4 3 63 -83 131 -190 100 -157 130 -198 158 -211 31 -15 37 -15 61
-1 l27 15 3 317 2 318 -57 -3 -58 -3 -5 -210 -5 -210 -132 210 -131 210 -54 3
c-30 2 -57 0 -61 -4z"/>
<path d="M1628 1723 c-15 -2 -39 -18 -53 -34 l-25 -31 -2 -269 c-1 -148 -2
-277 -2 -286 -1 -15 9 -18 62 -21 l62 -3 0 131 0 130 110 0 c121 0 115 -3 123
68 l5 42 -119 0 -120 0 3 72 c4 94 11 98 176 98 l122 0 0 55 0 55 -157 -1
c-87 -1 -170 -4 -185 -6z"/>
<path d="M2211 1718 c-19 -7 -44 -26 -55 -41 -20 -27 -21 -42 -24 -313 l-3
-284 61 0 60 0 0 121 0 120 51 -3 51 -3 62 -117 61 -118 68 0 c37 0 67 3 67 7
0 4 -30 61 -66 126 l-67 120 43 35 c51 43 70 84 70 152 0 87 -34 146 -105 183
-50 25 -220 34 -274 15z m236 -132 c28 -33 30 -80 3 -123 -22 -36 -54 -46
-140 -41 l-55 3 -3 55 c-7 121 10 142 112 137 50 -3 63 -8 83 -31z"/>
<path d="M2964 1720 c-11 -4 -28 -23 -36 -42 -17 -34 -208 -581 -208 -592 0
-4 28 -6 62 -4 l61 3 17 50 17 50 113 0 113 0 16 -52 15 -53 63 0 c65 0 70 4
53 42 -5 13 -53 147 -105 298 -107 308 -118 326 -181 300z m70 -296 c20 -67
36 -124 36 -128 0 -9 -148 -7 -154 2 -3 5 11 57 30 118 42 133 44 138 48 133
2 -2 20 -58 40 -125z"/>
<path d="M3400 1405 l0 -325 60 0 60 0 2 207 3 207 51 -80 c28 -43 81 -128
119 -187 98 -156 148 -189 194 -131 20 26 21 38 21 330 l0 304 -60 0 -60 0 0
-210 c0 -115 -3 -210 -7 -210 -5 0 -66 95 -138 210 l-130 209 -57 1 -58 0 0
-325z"/>
<path d="M4205 1718 c-115 -40 -164 -159 -152 -370 9 -173 65 -247 199 -270
157 -26 278 68 278 216 l0 36 -55 0 c-50 0 -55 -2 -55 -22 0 -13 -9 -42 -19
-65 -16 -34 -27 -44 -60 -54 -48 -14 -107 -1 -135 30 -36 40 -45 252 -15 340
14 39 54 61 112 61 53 0 86 -23 102 -71 11 -33 14 -34 70 -37 l58 -3 -7 48
c-14 106 -103 174 -225 172 -37 0 -79 -5 -96 -11z"/>
<path d="M4694 1716 c-3 -7 -4 -130 -2 -272 3 -281 6 -297 61 -338 26 -19 45
-21 198 -24 l169 -4 0 56 0 56 -131 0 c-72 0 -139 5 -150 10 -16 9 -19 22 -19
80 l0 70 100 0 100 0 0 39 c0 22 3 46 6 55 5 14 -7 16 -100 16 l-106 0 0 80 0
80 150 0 150 0 0 55 0 55 -210 0 c-170 0 -212 -3 -216 -14z"/>
</g>
</svg>
