<?xml version="1.0" standalone="no"?>
<!DOCTYPE svg PUBLIC "-//W3C//DTD SVG 20010904//EN"
 "http://www.w3.org/TR/2001/REC-SVG-20010904/DTD/svg10.dtd">
<svg version="1.0" xmlns="http://www.w3.org/2000/svg"
 width="1536.000000pt" height="1024.000000pt" viewBox="0 0 1536.000000 1024.000000"
 preserveAspectRatio="xMidYMid meet">

<g transform="translate(0.000000,1024.000000) scale(0.100000,-0.100000)"
fill="#000000" stroke="none">
<path d="M2826 9123 c-3 -27 -13 -129 -21 -228 -41 -493 -120 -911 -230 -1215
-81 -222 -115 -401 -96 -503 12 -63 41 -138 48 -120 2 6 -3 26 -13 44 -9 19
-18 66 -21 113 -7 111 21 239 107 495 38 113 80 256 94 316 47 208 95 530 121
815 14 157 28 295 32 308 3 12 1 22 -5 22 -5 0 -12 -21 -16 -47z"/>
<path d="M3492 9093 c-25 -116 -92 -475 -101 -543 -49 -346 -21 -761 68 -1015
17 -50 34 -97 37 -105 3 -9 -6 -22 -25 -33 -57 -33 -191 -169 -241 -243 -56
-85 -70 -125 -70 -205 l0 -57 -46 -11 c-25 -6 -112 -38 -193 -70 -209 -84
-250 -95 -361 -95 -94 0 -189 21 -216 48 -19 18 -62 149 -78 238 -21 114 -34
277 -46 583 -36 920 -66 1525 -75 1533 -4 4 -5 -54 -1 -128 18 -392 28 -600
46 -1055 31 -785 44 -922 101 -1079 16 -44 27 -81 25 -83 -9 -9 -79 36 -140
90 -76 67 -162 175 -266 332 -76 115 -156 207 -202 231 -26 14 -27 15 -13 53
36 102 69 321 86 571 14 195 6 399 -32 815 -20 216 -24 245 -33 234 -3 -4 6
-172 24 -434 27 -399 2 -866 -60 -1107 -28 -107 -26 -105 -81 -110 -28 -3 -63
-14 -77 -25 -36 -26 -83 -123 -111 -225 -15 -56 -32 -93 -51 -113 -26 -28
-101 -190 -104 -225 -1 -8 -8 -26 -17 -40 -9 -14 -24 -48 -33 -77 -10 -28 -34
-71 -56 -95 -54 -62 -103 -157 -139 -268 -19 -60 -43 -110 -63 -134 -48 -58
-172 -311 -193 -394 -16 -60 -24 -76 -46 -88 -15 -7 -36 -26 -47 -41 -33 -48
-92 -199 -92 -235 0 -25 -7 -41 -26 -57 -21 -18 -90 -147 -100 -186 -1 -5 -9
-30 -18 -54 -9 -24 -21 -83 -28 -132 l-12 -89 -75 -2 -76 -2 80 -5 80 -6 6
-51 c17 -135 114 -254 279 -341 l35 -18 -120 -5 -120 -6 133 -2 c128 -2 136
-3 285 -51 83 -27 170 -52 192 -56 81 -15 61 -20 -62 -16 -90 2 -124 0 -119
-8 5 -7 62 -12 164 -13 l157 -2 -160 -6 -160 -6 160 -3 c113 -3 145 -6 110
-11 -31 -4 30 -8 165 -11 l215 -3 -185 -6 c-102 -3 153 -6 565 -6 413 0 684 2
603 5 -80 4 -150 10 -155 15 -4 4 16 6 47 2 37 -4 49 -3 35 3 -13 6 65 11 225
13 l245 2 -255 6 c-178 4 -216 6 -125 8 72 2 194 5 272 8 l141 6 -5 -40 c-5
-35 -3 -40 18 -45 13 -4 49 -7 80 -7 54 0 56 1 52 23 -3 17 0 24 11 24 10 0
16 -9 16 -25 0 -23 2 -24 48 -19 26 3 56 2 67 -3 13 -5 -29 -9 -115 -11 -74
-1 -270 -5 -435 -9 -288 -7 -282 -7 160 -6 l460 1 65 -29 c108 -47 230 -106
230 -111 0 -3 -45 -5 -100 -5 -112 0 -140 14 -140 68 l0 27 -122 -3 c-188 -4
-209 -8 -47 -10 l145 -2 10 -37 c5 -23 18 -42 32 -49 21 -10 18 -12 -35 -18
-113 -13 -113 -13 -113 -56 0 -28 -6 -42 -22 -53 -19 -13 -20 -16 -5 -16 15
-1 17 -14 17 -136 l0 -135 -1257 -3 -1258 -2 1258 -3 1257 -2 0 -45 0 -45 -87
-1 c-49 0 -107 -4 -130 -7 l-43 -7 98 -78 c126 -100 301 -235 329 -254 20 -14
26 -11 90 37 37 28 141 111 230 183 l162 132 -140 3 -139 3 0 39 0 40 193 0
c107 0 262 3 345 7 l152 6 0 -46 0 -47 -117 -2 c-65 -1 -126 -2 -135 -1 -34 0
-48 11 277 -244 145 -114 164 -126 178 -116 77 58 447 359 447 364 0 4 -6 7
-12 6 -7 0 -71 1 -141 1 l-128 2 3 38 3 37 348 3 347 2 0 -33 c0 -34 -1 -34
-52 -41 -29 -3 -88 -6 -130 -6 -43 0 -78 -4 -78 -9 0 -13 435 -361 452 -361 5
0 77 55 160 123 83 67 186 149 229 182 93 72 92 73 -89 74 l-123 1 3 33 3 32
2630 1 c1952 1 2665 4 2765 13 291 26 489 65 638 127 89 37 246 126 259 147 4
7 -6 3 -22 -7 -190 -125 -363 -185 -647 -225 -345 -48 -718 -57 -1803 -42
-650 10 -1175 10 -2155 2 -712 -5 -1380 -7 -1483 -4 l-188 6 3 131 3 131 55 7
c320 44 396 48 958 48 l522 0 -2 48 -1 47 -4 -42 -4 -43 -507 2 -507 1 273 10
c149 5 272 12 272 16 0 3 -71 6 -157 5 l-158 0 125 6 c69 3 103 7 75 8 -27 1
-81 5 -120 9 l-70 7 45 7 c25 4 196 9 380 10 l335 3 -292 6 c-160 3 -295 8
-299 13 -4 4 0 7 9 7 9 0 69 20 133 46 l116 45 223 -3 c123 -2 221 0 218 5 -2
4 -99 7 -214 7 l-210 0 65 56 c36 30 66 59 66 65 0 14 19 11 89 -17 155 -62
481 -148 731 -193 170 -30 379 -61 409 -60 43 1 14 7 -137 29 -213 31 -481 84
-654 129 -183 49 -364 106 -395 126 l-22 15 24 43 c34 60 56 176 54 277 l-2
85 119 5 119 6 -121 2 -121 2 -14 53 c-14 49 -16 52 -46 51 -25 -1 -33 4 -46
30 -8 17 -29 51 -47 74 -48 66 -103 86 -305 112 -420 53 -665 111 -1030 240
-144 51 -165 61 -181 91 -15 30 -60 59 -92 59 -12 0 -24 11 -32 30 -16 38 -94
110 -120 110 -13 0 -25 12 -35 35 -10 25 -25 40 -52 51 -21 9 -51 28 -68 43
-56 52 -128 101 -147 101 -18 0 -86 48 -80 56 18 27 -50 100 -104 110 -25 5
-42 16 -57 40 -12 18 -38 42 -57 53 -20 11 -59 49 -88 85 -32 39 -68 72 -91
82 -29 13 -41 25 -52 58 -11 32 -21 43 -46 51 -18 5 -33 14 -33 21 0 22 -58
91 -87 103 -24 10 -29 17 -25 36 4 24 -39 115 -65 137 -8 6 -31 14 -51 17 -34
5 -40 12 -69 71 -18 36 -57 120 -87 188 -79 179 -149 298 -215 370 -53 57 -62
62 -100 62 -23 0 -57 -6 -75 -14 l-34 -14 -31 79 c-37 94 -64 224 -87 409 -34
282 5 747 102 1198 2 12 0 22 -5 22 -5 0 -14 -21 -19 -47z m197 -1679 c17 -14
31 -31 31 -37 0 -7 -28 -25 -63 -42 -34 -16 -64 -33 -67 -37 -3 -3 -12 -8 -20
-10 -8 -2 -21 -11 -29 -22 -11 -14 -15 -15 -22 -5 -7 11 -9 9 -9 -5 0 -11 -13
-31 -28 -45 -42 -40 -79 -102 -103 -177 -12 -38 -25 -76 -27 -84 -3 -8 -6 -19
-6 -25 -1 -5 -23 -11 -51 -12 -27 -1 -63 -4 -78 -7 -23 -5 -27 -3 -23 12 3 9
8 37 11 61 12 85 73 188 165 281 93 94 157 141 222 164 58 20 62 20 97 -10z
m-2013 -13 c69 -31 110 -77 229 -256 151 -228 252 -334 377 -394 183 -89 354
-88 576 0 42 17 107 42 145 55 37 13 100 36 140 50 57 21 91 27 167 28 92 1
98 0 180 -40 84 -42 205 -129 268 -197 l34 -35 -47 -31 c-53 -36 -67 -38 -103
-12 -39 27 -130 68 -183 82 -33 9 -60 10 -97 2 -56 -11 -62 -8 -34 14 15 13
15 13 -5 3 -13 -6 -23 -14 -23 -18 0 -6 -55 -32 -140 -66 -8 -3 -22 -10 -30
-15 -75 -43 -104 -50 -114 -28 -3 6 -4 3 -3 -7 2 -18 -43 -54 -70 -55 -7 -1
-37 -12 -67 -26 -30 -14 -58 -25 -61 -25 -4 0 -21 -6 -38 -14 -39 -17 -88 -30
-104 -27 -7 1 -13 -2 -13 -7 0 -11 -149 -42 -197 -42 -18 0 -33 5 -33 10 0 6
5 10 10 10 6 0 10 5 10 12 0 6 -8 4 -19 -6 -31 -28 -114 -8 -236 56 -41 22
-54 30 -138 86 -26 18 -52 32 -57 32 -5 0 -13 6 -17 13 -4 7 -25 21 -45 31
-21 9 -38 21 -38 26 0 6 -3 9 -7 8 -5 -1 -23 7 -40 18 -25 14 -31 24 -27 39 4
15 3 17 -5 6 -8 -13 -12 -13 -28 0 -10 8 -24 19 -31 24 -7 6 -21 17 -30 25 -9
8 -44 36 -77 61 -57 44 -139 127 -197 200 -14 19 -36 45 -48 59 l-21 25 15
-30 c25 -52 120 -163 320 -375 252 -268 377 -407 527 -587 232 -279 522 -610
547 -626 15 -10 11 -34 -15 -105 -19 -50 -12 -50 -162 -2 -102 33 -192 53
-335 74 -105 16 -101 13 -246 137 -30 26 -89 75 -130 109 -332 274 -563 535
-671 758 -27 56 -54 124 -60 150 -10 42 -9 52 9 81 l20 33 16 -49 c9 -26 38
-85 65 -131 120 -201 268 -379 554 -667 l199 -200 -183 195 c-269 285 -379
417 -504 600 -67 99 -135 233 -135 268 0 14 11 50 24 81 14 31 44 106 68 166
32 78 51 113 67 120 16 7 27 29 42 80 41 144 69 206 112 246 27 25 89 25 143
0z m2122 -114 c17 -29 77 -151 132 -272 56 -121 108 -227 116 -236 18 -20 18
-29 0 -29 -13 0 -153 -73 -214 -111 -22 -13 -25 -11 -72 37 -94 99 -215 185
-278 199 -18 3 -32 9 -32 12 0 23 36 136 56 174 30 61 106 137 184 185 33 20
60 39 60 41 0 8 -72 -28 -114 -56 -93 -65 -161 -166 -186 -283 -7 -32 -18 -55
-24 -53 -6 2 -23 6 -38 9 l-26 6 14 62 c24 101 68 181 130 237 75 67 221 145
250 134 5 -2 24 -27 42 -56z m354 -554 c9 -10 25 -36 35 -57 l20 -40 -71 -24
c-122 -40 -280 -138 -361 -222 -22 -23 -53 -48 -68 -56 -25 -14 -31 -14 -53 0
-34 23 -57 62 -49 85 8 27 113 123 183 168 237 151 327 188 364 146z m-2227
-168 c313 -203 399 -240 560 -239 130 1 352 75 647 218 173 83 239 101 312 86
44 -9 208 -79 225 -96 7 -6 -31 -44 -44 -44 -6 0 -42 18 -79 41 -74 44 -121
50 -121 14 0 -22 58 -65 89 -65 16 0 12 6 -18 23 -22 12 -41 28 -44 35 -7 22
29 13 99 -25 l68 -37 -25 -34 c-18 -23 -24 -40 -20 -56 8 -31 71 -86 99 -86
28 0 67 26 102 68 15 17 31 32 36 32 16 0 118 -74 119 -86 0 -5 -13 -23 -30
-39 -48 -46 -36 -97 32 -140 37 -23 71 -13 113 32 l32 35 34 -23 c64 -45 99
-78 89 -84 -19 -12 -42 -67 -36 -90 3 -12 24 -34 46 -50 50 -34 78 -29 117 24
l28 39 107 -81 107 -80 -15 -28 c-23 -45 -18 -74 21 -108 48 -42 90 -42 113
-1 9 16 19 30 22 30 3 0 18 -11 34 -23 28 -23 29 -25 13 -48 -25 -35 -21 -71
11 -101 57 -55 112 -53 140 4 l13 27 67 -46 c37 -26 71 -50 76 -55 6 -5 1 -24
-13 -48 -29 -52 -24 -76 21 -113 61 -49 86 -43 166 42 l68 73 48 -16 c27 -9
73 -16 105 -14 45 1 81 -7 186 -46 264 -96 349 -121 605 -177 74 -16 144 -31
155 -34 41 -9 332 -45 368 -45 83 0 48 -59 -68 -115 -135 -65 -370 -102 -584
-91 -305 15 -646 60 -768 101 -75 25 -211 97 -312 163 -51 34 -97 60 -101 57
-23 -14 -503 -87 -860 -131 -413 -50 -493 -57 -537 -45 -20 6 -39 9 -41 6 -2
-2 22 -11 54 -20 33 -10 150 -44 261 -76 336 -98 660 -177 872 -211 111 -18
201 -35 201 -38 0 -3 -66 -36 -146 -74 l-146 -69 -151 38 c-164 40 -343 99
-597 195 -251 94 -377 151 -594 265 -109 58 -207 105 -217 105 -22 0 -218 82
-219 91 0 3 14 25 30 48 l30 41 58 -39 c88 -60 141 -84 156 -72 7 6 91 44 187
85 96 40 291 124 434 185 395 170 501 212 519 205 9 -3 16 -4 16 -1 0 7 -108
77 -119 77 -6 0 -59 -21 -118 -46 -59 -25 -192 -80 -295 -120 -103 -41 -240
-97 -305 -125 -65 -28 -194 -82 -288 -120 -168 -68 -170 -68 -194 -51 -32 24
-38 42 -13 42 22 0 127 43 412 170 193 85 435 190 603 262 54 23 100 45 102
49 7 10 -322 238 -384 267 -75 35 -136 27 -351 -43 -228 -75 -223 -74 -211
-44 20 47 88 245 95 272 11 48 6 42 -235 -258 l-96 -120 -138 -49 c-77 -27
-153 -57 -170 -67 -16 -11 -33 -19 -36 -19 -4 0 -94 104 -200 232 -201 241
-337 394 -496 559 -51 53 -93 99 -93 102 0 4 26 -13 58 -36 31 -24 98 -70 147
-102z m-705 -151 c48 -96 134 -223 218 -319 121 -139 369 -372 520 -487 34
-27 61 -54 60 -60 -2 -7 5 -12 14 -12 10 1 16 -2 13 -6 -2 -4 20 -24 51 -45
30 -21 53 -39 51 -41 -1 -2 -34 2 -72 8 -62 10 -85 21 -205 100 -343 223 -526
375 -652 542 -66 88 -94 143 -139 278 l-29 86 36 64 c19 34 43 71 52 82 16 17
17 16 23 -34 5 -32 27 -91 59 -156z m2980 180 c0 -4 -41 -46 -92 -95 l-91 -88
-29 17 c-42 24 -54 50 -31 67 47 35 172 95 187 89 9 -3 16 -1 16 5 0 6 9 11
20 11 11 0 20 -3 20 -6z m67 -48 c15 -13 36 -37 45 -54 l18 -30 -56 -42 c-52
-39 -126 -111 -232 -224 -24 -25 -53 -46 -64 -46 -11 0 -36 16 -55 35 -34 34
-34 35 -18 62 27 47 299 323 317 323 9 0 29 -11 45 -24z m-311 -123 l45 -36
-27 -28 -27 -28 -45 32 c-26 18 -51 35 -57 40 -10 7 40 57 58 57 5 0 29 -16
53 -37z m442 -10 c14 -22 14 -23 -22 -23 -36 0 -114 -33 -169 -72 -52 -37 -38
-11 20 39 107 91 140 102 171 56z m-3297 -152 c98 -229 319 -439 755 -718 16
-11 15 -11 -9 -3 -53 19 -42 10 42 -33 l84 -42 -223 -3 -222 -2 -72 63 c-39
35 -129 102 -201 149 -172 113 -226 163 -267 246 -29 59 -33 78 -36 164 -2 54
-7 98 -12 98 -14 0 -19 -100 -9 -158 25 -133 99 -222 291 -348 108 -71 223
-158 248 -189 14 -17 11 -18 -46 -13 -54 4 -67 9 -135 59 -41 31 -122 90 -181
133 -171 123 -223 196 -230 318 -2 28 -7 43 -12 38 -12 -12 7 -128 29 -174 22
-46 119 -137 231 -216 140 -100 188 -140 167 -140 -10 0 -59 11 -108 24 -180
49 -330 121 -406 197 l-37 37 13 43 c7 24 21 69 30 99 27 88 128 283 174 335
29 33 61 108 76 175 l8 35 13 -49 c7 -27 27 -84 45 -125z m3289 94 c11 -13 3
-25 -45 -78 -32 -34 -62 -66 -66 -71 -5 -5 -28 8 -54 29 l-46 37 35 24 c51 35
128 73 147 74 9 0 22 -7 29 -15z m90 -40 c58 -43 58 -50 -2 -113 -30 -31 -76
-86 -102 -122 -68 -89 -97 -120 -116 -120 -21 0 -82 60 -76 75 8 22 159 220
199 263 23 23 46 42 52 42 6 0 26 -11 45 -25z m-276 -91 c53 -44 56 -48 43
-68 -22 -32 -38 -30 -100 14 l-57 41 20 30 c12 16 25 29 30 29 4 0 33 -21 64
-46z m-1119 -116 c-60 -179 -60 -178 -33 -178 13 0 71 13 130 28 l106 28 -31
-45 c-17 -25 -90 -128 -161 -229 -72 -101 -150 -211 -174 -244 -76 -109 -132
-180 -132 -170 0 10 65 191 139 390 37 98 43 95 -116 48 l-113 -32 27 35 c117
154 395 502 399 498 1 -1 -17 -59 -41 -129z m1485 117 c7 -9 11 -17 9 -18 -2
-1 -28 -12 -58 -25 l-54 -22 24 28 c49 56 59 61 79 37z m58 -59 c15 -8 37 -25
48 -38 38 -41 37 -59 -7 -118 -23 -30 -44 -56 -48 -58 -3 -1 -22 11 -41 27
l-35 30 32 60 c17 32 29 62 26 65 -7 7 -56 -2 -116 -21 -59 -18 -72 -9 -33 22
53 42 127 55 174 31z m-1013 -36 c3 -5 14 -10 24 -10 20 0 47 -25 34 -32 -4
-3 -3 -3 4 -2 14 3 62 -21 136 -70 57 -39 70 -56 41 -56 -8 0 -12 -4 -9 -10 4
-6 12 -6 23 1 14 9 30 3 80 -32 l62 -43 -33 -14 c-89 -39 -180 -77 -252 -106
-44 -18 -145 -62 -225 -98 -230 -104 -330 -148 -334 -148 -3 0 -37 -15 -78
-33 -182 -83 -194 -84 -147 -22 49 66 211 291 249 346 19 28 43 60 53 70 9 11
17 22 17 27 0 4 21 34 45 66 40 53 53 76 41 76 -2 0 -20 -7 -41 -16 -31 -13
-215 -64 -230 -64 -3 0 -5 9 -5 19 0 24 56 46 345 135 82 25 189 34 200 16z
m965 -18 c0 -12 -50 -82 -58 -82 -4 0 -23 13 -42 30 -30 25 -32 29 -15 30 11
0 31 7 45 15 27 15 70 20 70 7z m-65 -107 c52 -42 95 -80 95 -84 0 -5 -8 -19
-18 -31 l-17 -21 -85 66 c-47 37 -93 73 -103 80 -18 12 -18 14 -2 39 10 14 21
26 26 26 5 0 52 -34 104 -75z m305 25 l43 -39 -53 -53 c-30 -30 -73 -90 -99
-138 -27 -49 -54 -86 -64 -88 -18 -4 -92 46 -83 55 3 3 17 -4 32 -16 15 -11
32 -21 38 -21 6 0 -6 11 -27 25 -20 14 -37 34 -37 44 0 22 94 180 138 232 18
21 41 39 51 39 10 0 37 -18 61 -40z m69 -111 l24 -20 -34 -37 c-19 -20 -37
-41 -40 -46 -7 -8 -69 32 -69 44 0 11 73 80 84 80 6 -1 22 -10 35 -21z m-2101
-61 c-49 -59 -138 -176 -138 -182 0 -8 61 5 163 34 56 16 103 28 104 26 5 -5
-97 -261 -105 -264 -5 -1 -22 12 -37 30 -15 18 -51 58 -79 89 -48 51 -107 121
-154 179 l-20 25 31 18 c25 15 187 78 257 100 27 8 23 -2 -22 -55z m2225 4
c83 -62 85 -68 32 -81 -36 -9 -52 -21 -85 -64 -22 -30 -40 -58 -40 -63 0 -5
-11 -26 -25 -47 l-26 -37 -36 15 c-44 19 -49 19 -33 0 7 -8 18 -15 26 -15 7 0
16 -4 19 -10 13 -21 -16 -8 -47 21 -18 17 -27 28 -20 24 14 -7 17 11 2 20 -19
12 -10 36 51 133 68 108 96 142 116 142 8 0 37 -17 66 -38z m-217 -55 l28 -24
-24 -32 -23 -33 -29 29 c-26 27 -28 32 -17 56 15 33 30 34 65 4z m-635 -34
c16 -10 29 -20 29 -23 0 -3 -40 -20 -88 -39 -48 -18 -161 -65 -252 -103 -91
-38 -203 -85 -250 -104 -47 -20 -98 -42 -115 -49 -41 -19 -245 -107 -325 -140
-36 -15 -70 -31 -76 -36 -9 -8 -19 -4 -83 30 -23 13 -21 15 65 48 49 19 107
40 129 47 22 8 63 24 90 37 57 25 287 121 510 210 83 34 159 65 170 70 25 11
159 67 163 68 2 1 17 -7 33 -16z m980 -13 c41 -12 53 -23 62 -61 5 -21 -1 -37
-28 -72 l-35 -46 -73 50 c-40 28 -72 57 -72 67 0 11 18 22 55 34 43 14 47 17
20 14 -19 -2 -44 -8 -54 -12 -13 -5 -17 -4 -12 4 7 12 57 29 86 31 8 1 31 -4
51 -9z m-4401 -24 c0 -24 95 -103 166 -139 114 -57 300 -114 449 -138 33 -5
224 -14 425 -19 245 -6 399 -14 470 -25 224 -34 506 -116 504 -146 -1 -8 -5
-27 -9 -44 l-8 -30 31 29 31 29 63 -23 c35 -12 173 -76 308 -142 396 -193 913
-389 1246 -472 505 -127 821 -169 1264 -168 351 0 587 25 890 94 117 26 316
82 374 104 17 7 19 4 13 -34 -9 -67 -60 -166 -114 -217 -55 -53 -162 -109
-313 -163 -78 -28 -108 -43 -115 -60 -5 -12 -23 -26 -40 -32 -40 -12 -257 -56
-320 -65 -27 -3 -58 -8 -67 -11 -15 -4 -18 1 -19 33 0 21 -5 47 -10 58 -7 14
-8 3 -4 -37 6 -68 -7 -76 -27 -15 -23 67 -79 63 -93 -6 -13 -66 -14 -67 -55
-67 -36 0 -38 1 -35 31 1 17 8 34 14 39 10 5 9 9 -3 13 -9 4 -16 18 -16 32 0
21 5 25 29 25 l29 0 -3 -62 -4 -63 9 64 c5 35 10 65 12 66 2 2 49 8 106 14
130 14 319 52 453 91 141 42 351 111 347 115 -2 2 -62 -14 -133 -36 -160 -50
-410 -112 -530 -132 -151 -26 -307 -40 -315 -27 -12 19 -74 30 -175 30 -118 0
-175 -13 -183 -42 -5 -19 -11 -19 -186 -13 -368 12 -570 39 -733 96 -127 45
-326 147 -683 352 -349 200 -663 364 -875 458 -141 62 -346 139 -368 139 -7
-1 29 -16 78 -34 330 -120 636 -273 1235 -615 412 -236 590 -318 773 -356 128
-28 313 -46 530 -52 l217 -6 0 -39 0 -38 -142 -2 -143 -2 143 -3 142 -4 0 -34
0 -35 -145 0 -144 0 -3 73 -3 72 -83 3 -83 3 -12 -31 c-11 -29 -14 -30 -73
-30 -34 0 -82 3 -108 6 -44 6 -46 8 -46 40 0 27 -6 37 -32 51 -45 25 -313 27
-328 3 -5 -8 -10 -50 -10 -92 0 -72 -2 -78 -21 -78 -19 0 -20 3 -13 43 5 23 9
62 9 87 l0 45 -73 14 c-67 13 -74 12 -92 -4 -11 -10 -20 -24 -20 -32 0 -18 -3
-17 -119 17 -105 31 -339 121 -546 210 -495 212 -614 252 -890 299 -107 19
-385 51 -433 51 -17 0 -19 12 -25 137 -3 76 -4 139 -3 141 8 8 267 -55 381
-93 157 -51 307 -114 645 -270 310 -143 572 -257 577 -252 2 3 -65 35 -149 72
-84 38 -250 114 -368 170 -479 227 -734 325 -954 366 -61 12 -117 23 -124 25
-11 3 -13 40 -10 183 2 99 0 177 -4 174 -5 -2 -8 -83 -8 -180 l0 -175 -22 5
c-13 3 -51 9 -85 13 l-63 7 0 175 c0 96 -2 173 -5 170 -3 -3 -5 -80 -6 -171 0
-92 -3 -168 -7 -170 -11 -7 -426 31 -532 47 -248 39 -467 117 -623 220 -109
73 -141 109 -133 149 9 45 87 218 108 239 21 21 48 24 48 4z m4385 -166 c2 -4
-6 -17 -20 -30 l-24 -22 -70 46 c-39 26 -73 52 -77 57 -3 5 1 21 10 34 l16 24
80 -50 c44 -28 82 -54 85 -59z m179 57 c25 -24 46 -50 46 -58 0 -14 -161 -208
-184 -221 -17 -10 -93 38 -101 64 -7 21 3 38 120 192 28 36 55 66 61 66 6 0
32 -19 58 -43z m129 -108 c33 -15 53 -49 35 -60 -18 -12 -54 -11 -99 3 -43 12
-48 23 -21 49 20 21 51 24 85 8z m-4827 -110 c30 -34 133 -104 209 -142 228
-116 447 -167 830 -195 l230 -17 3 -144 3 -144 -98 7 c-573 40 -1062 185
-1306 388 -27 23 -27 24 -13 69 19 62 82 186 98 192 21 9 24 8 44 -14z m4414
-231 c36 -23 67 -43 70 -45 2 -2 -2 -8 -10 -14 -11 -7 -8 -8 10 -4 14 3 32 1
40 -5 13 -9 13 -11 0 -21 -12 -8 -11 -9 6 -4 14 3 51 -9 105 -36 46 -23 91
-43 99 -44 25 -6 26 -6 5 -16 -17 -8 -16 -9 6 -4 14 2 64 -4 110 -14 92 -20
91 -21 -45 -40 -86 -12 -224 -56 -323 -103 -35 -16 -68 -26 -74 -22 -7 4 -9 3
-6 -3 4 -6 -14 -19 -41 -31 -43 -18 -54 -19 -130 -9 -64 9 -81 14 -77 26 4 11
3 11 -9 1 -22 -17 -161 3 -150 22 5 7 2 8 -5 4 -20 -13 -143 15 -137 31 3 7 1
13 -3 13 -5 0 -11 -5 -13 -11 -3 -9 -31 -6 -98 10 -115 26 -418 104 -480 124
-25 8 -74 23 -110 33 -82 22 -96 34 -42 36 23 1 54 3 70 5 15 2 70 8 122 13
52 5 115 14 140 20 42 9 220 29 317 35 22 2 45 5 50 8 4 2 27 8 51 12 36 6 42
4 43 -12 1 -16 2 -16 6 0 2 9 12 18 21 18 9 1 26 3 37 5 34 6 118 22 153 30
27 5 32 4 32 -12 0 -16 2 -16 16 4 9 13 23 22 32 21 10 -1 24 1 32 4 15 6 55
12 95 16 11 0 49 -18 85 -41z m-4433 -118 l22 -15 -19 -55 c-11 -30 -19 -66
-19 -80 1 -14 12 9 26 52 l24 78 59 -30 c212 -107 533 -196 845 -234 148 -19
295 -32 579 -51 306 -21 546 -59 746 -117 106 -31 348 -125 495 -193 196 -90
579 -236 670 -255 33 -7 65 -14 71 -17 6 -2 17 10 23 28 l11 31 67 -7 c38 -4
71 -9 76 -12 11 -7 8 -53 -7 -108 -14 -48 -14 -49 -15 -15 -2 43 -11 80 -20
80 -4 0 -6 -25 -3 -57 5 -55 4 -56 -19 -50 -13 4 -34 7 -46 7 -13 0 -23 5 -23
11 0 24 32 77 53 88 22 11 22 11 -3 8 -19 -1 -32 -15 -54 -55 l-28 -54 -60 7
c-33 4 -92 15 -131 24 l-71 16 -12 45 -12 45 -1 -37 c-1 -21 -5 -38 -10 -38
-5 0 -46 14 -90 31 l-81 31 -2 41 c-1 37 -2 38 -5 10 -5 -38 -15 -40 -69 -14
-104 49 -191 89 -208 95 -14 5 -17 13 -14 37 3 16 1 32 -4 35 -4 3 -8 -1 -8
-8 0 -8 -6 -23 -14 -33 -12 -16 -16 -17 -30 -6 -19 16 -21 58 -4 63 9 3 9 6 0
12 -8 4 -16 -2 -22 -18 -11 -30 -14 -31 -70 -11 -151 53 -495 128 -642 140
-50 4 -85 11 -82 17 3 5 1 15 -5 22 -12 15 -82 20 -471 36 -577 25 -937 85
-1255 210 -75 30 -223 112 -282 157 -35 27 -35 27 -30 88 4 33 11 77 17 97
l11 38 62 -48 c34 -26 72 -54 84 -62z m6326 47 c40 -17 101 -84 129 -141 l21
-44 -22 -23 c-34 -36 -58 -89 -66 -144 -11 -78 -13 -82 -65 -104 -74 -32 -287
-88 -435 -115 -120 -22 -143 -23 -305 -16 -206 10 -346 29 -525 72 -132 31
-375 114 -375 128 0 10 130 48 205 60 l60 9 -74 -5 c-44 -2 -111 -17 -165 -35
-94 -31 -290 -122 -393 -181 -54 -31 -62 -33 -105 -25 -27 5 -48 13 -48 18 0
5 4 9 10 9 18 0 373 174 362 178 -6 2 -32 -8 -59 -22 -26 -14 -115 -56 -196
-95 -148 -70 -149 -70 -198 -60 l-50 11 158 75 c87 41 191 90 232 109 154 73
279 122 351 139 114 27 317 30 553 10 380 -33 633 -4 821 93 65 34 113 83 100
104 -8 13 43 9 79 -5z m-4878 -73 l25 -6 0 -140 0 -140 -31 6 c-17 3 -56 6
-85 6 l-54 0 0 146 0 147 60 -6 c33 -4 72 -10 85 -13z m-1535 -155 c61 -44
221 -117 335 -153 313 -99 529 -131 1090 -161 462 -24 505 -27 509 -33 2 -4 0
-29 -4 -56 -7 -48 -28 -76 -57 -76 -17 0 -17 48 1 83 13 23 13 27 1 27 -12 0
-19 -22 -28 -90 -2 -11 -21 -17 -67 -22 -96 -11 -101 -8 -94 59 8 66 0 74 -60
60 l-44 -10 -6 -58 -7 -59 -83 0 -82 0 0 72 c1 79 -10 93 -49 64 -19 -14 -19
-15 10 -13 28 2 30 0 28 -28 -1 -16 -5 -45 -8 -62 -5 -31 -9 -33 -45 -33 -44
0 -45 0 -31 83 4 26 4 47 0 47 -4 0 -11 -21 -14 -47 -12 -87 -7 -83 -102 -83
l-86 0 6 68 c4 37 3 72 -1 77 -11 16 -69 18 -78 3 -5 -7 -16 -40 -25 -73 -11
-43 -21 -60 -33 -59 -9 0 -33 1 -55 2 l-38 2 8 48 c5 26 11 60 14 75 2 15 1
26 -4 22 -5 -3 -15 -37 -21 -76 -11 -65 -14 -70 -34 -65 -11 3 -52 8 -89 12
l-69 7 4 80 c3 80 3 80 -25 90 -39 13 -59 -8 -82 -83 -10 -33 -22 -60 -26 -60
-10 0 -121 29 -125 32 -5 6 18 93 32 122 8 16 13 31 10 33 -8 9 -35 -42 -45
-86 -5 -24 -13 -47 -18 -52 -9 -9 -106 20 -197 60 -48 21 -48 22 -41 58 10 55
33 95 53 91 14 -3 17 -14 15 -63 -2 -41 0 -55 7 -44 16 27 16 99 -1 110 -38
24 -65 2 -89 -73 -13 -43 -16 -44 -50 -21 -67 45 -69 48 -52 115 14 58 14 62
-3 74 -30 22 -52 16 -66 -17 l-13 -32 -18 23 c-19 23 -48 110 -48 144 0 19 2
18 28 -5 15 -14 43 -36 62 -50z m6621 24 c14 -37 14 -268 -1 -336 -14 -68 -89
-189 -143 -230 -97 -74 -290 -151 -454 -183 -82 -15 -113 -7 -72 19 13 9 68
32 122 51 140 51 234 103 295 163 70 70 100 139 118 276 16 122 40 186 86 235
18 17 33 32 35 32 2 0 8 -12 14 -27z m-6573 -96 c11 -13 -3 -107 -16 -107 -12
0 -42 34 -42 47 0 19 29 73 39 73 5 0 13 -6 19 -13z m4750 -116 c70 -35 292
-101 441 -131 160 -32 315 -49 451 -51 l85 -1 -80 -14 c-93 -16 -404 -34 -584
-34 -96 0 -139 4 -185 19 -131 42 -277 83 -282 79 -4 -4 145 -53 236 -77 l35
-9 -45 -1 c-72 -1 -440 42 -480 56 -15 5 332 182 358 183 7 0 29 -8 50 -19z
m-4118 -145 c0 -24 -3 -58 -6 -76 -7 -30 -8 -31 -43 -25 -20 4 -38 9 -40 11
-4 4 12 65 30 111 6 16 17 23 34 23 23 0 25 -4 25 -44z m404 -12 c12 -4 16
-20 16 -54 0 -69 -6 -80 -47 -80 l-36 0 7 47 c3 26 13 57 21 70 17 26 17 25
39 17z m587 -74 c-4 -58 -6 -60 -50 -60 l-37 0 6 47 c4 40 9 48 30 54 48 14
55 7 51 -41z m491 14 c71 -12 38 -24 -64 -24 -118 0 -148 6 -148 28 0 13 13
14 87 8 48 -3 104 -9 125 -12z m198 -48 l75 -13 -145 -2 c-174 -1 -340 9 -340
21 0 13 327 8 410 -6z m144 -68 c5 -21 3 -28 -9 -28 -11 0 -15 11 -15 37 0 41
13 35 24 -9z m41 -3 c0 -33 -19 -33 -23 0 -2 16 2 25 10 25 8 0 14 -10 13 -25z
m42 6 c13 11 14 9 11 -11 -5 -36 -33 -32 -35 5 -1 17 1 22 4 12 4 -15 7 -16
20 -6z m99 -26 c18 -14 18 -14 -8 -15 -18 0 -28 5 -28 15 0 19 11 19 36 0z
m2485 -125 l36 -10 6 -282 c4 -155 9 -284 12 -286 3 -3 49 -8 104 -11 55 -3
102 -9 106 -12 3 -4 -70 -70 -163 -147 -93 -78 -174 -148 -181 -156 -8 -9 -19
-16 -26 -16 -11 0 -95 67 -337 270 l-57 48 114 7 115 7 0 289 0 288 38 6 c20
4 42 8 47 10 23 8 153 4 186 -5z m-1053 -33 c22 -12 23 -13 25 -277 2 -146 6
-271 10 -278 5 -7 33 -12 75 -13 37 0 84 -3 105 -7 l39 -7 -186 -155 c-103
-85 -190 -156 -194 -158 -4 -1 -52 35 -108 80 -55 46 -139 115 -187 153 -47
39 -86 73 -87 78 0 4 26 7 58 7 31 0 81 3 110 6 l52 7 0 283 c0 261 1 283 18
287 40 11 248 6 270 -6z m440 -110 c2 -46 -1 -67 -8 -62 -5 3 -10 19 -10 35 0
31 -22 60 -46 60 -32 0 -54 -22 -65 -66 l-12 -45 -121 3 -121 3 -3 43 -3 42
110 0 111 0 1 -32 c1 -24 4 -17 11 24 l10 57 52 4 c95 7 91 10 94 -66z m-1300
24 c64 -21 153 -46 197 -56 44 -9 88 -21 97 -26 10 -5 35 -9 56 -9 22 0 73 -3
115 -6 l77 -7 0 -128 0 -129 -208 0 c-115 0 -270 -3 -346 -7 l-136 -6 0 183
c1 100 -3 187 -8 192 -5 5 -33 12 -63 16 l-54 7 70 6 c39 3 73 6 78 7 4 1 60
-15 125 -37z m2157 3 c3 -20 4 -38 2 -40 -3 -3 -21 -8 -42 -11 l-38 -6 8 39
c9 50 12 54 39 54 19 0 25 -7 31 -36z m-2372 0 l37 -7 0 -238 c0 -132 3 -240
8 -240 4 -1 56 -4 115 -8 l108 -6 -187 -155 c-102 -85 -191 -155 -195 -155 -5
0 -94 68 -196 150 l-187 150 112 3 112 3 0 249 0 249 28 4 c45 7 204 7 245 1z
m1480 -51 c8 -46 3 -53 -38 -53 -42 0 -47 7 -34 53 8 31 14 37 38 37 25 0 29
-5 34 -37z m349 -189 c2 -64 1 -118 -1 -120 -2 -2 -161 -4 -353 -4 l-348 0 0
113 c0 63 3 116 6 120 3 3 161 6 349 6 l344 1 3 -116z"/>
<path d="M1630 7280 c-8 -5 -12 -11 -10 -14 3 -2 14 2 24 10 22 15 10 19 -14
4z"/>
<path d="M1622 7226 c7 -8 17 -12 22 -9 4 3 2 9 -5 14 -22 13 -31 11 -17 -5z"/>
<path d="M1500 7121 c0 -6 4 -13 10 -16 6 -3 7 1 4 9 -7 18 -14 21 -14 7z"/>
<path d="M1527 7059 c7 -7 15 -10 18 -7 3 3 -2 9 -12 12 -14 6 -15 5 -6 -5z"/>
<path d="M1658 6988 c5 -5 16 -8 23 -6 8 3 3 7 -10 11 -17 4 -21 3 -13 -5z"/>
<path d="M1860 6990 c0 -5 5 -10 11 -10 5 0 7 5 4 10 -3 6 -8 10 -11 10 -2 0
-4 -4 -4 -10z"/>
<path d="M1749 6923 c-13 -16 -12 -17 4 -4 16 13 21 21 13 21 -2 0 -10 -8 -17
-17z"/>
<path d="M1910 6930 c0 -5 5 -10 11 -10 5 0 7 5 4 10 -3 6 -8 10 -11 10 -2 0
-4 -4 -4 -10z"/>
<path d="M1685 6920 c3 -5 8 -10 11 -10 2 0 4 5 4 10 0 6 -5 10 -11 10 -5 0
-7 -4 -4 -10z"/>
<path d="M1615 6900 c-3 -5 -2 -10 4 -10 5 0 13 5 16 10 3 6 2 10 -4 10 -5 0
-13 -4 -16 -10z"/>
<path d="M1700 6890 c0 -5 5 -10 11 -10 5 0 7 5 4 10 -3 6 -8 10 -11 10 -2 0
-4 -4 -4 -10z"/>
<path d="M3485 6800 c3 -5 8 -10 11 -10 2 0 4 5 4 10 0 6 -5 10 -11 10 -5 0
-7 -4 -4 -10z"/>
<path d="M1970 6789 c0 -5 5 -7 10 -4 6 3 10 8 10 11 0 2 -4 4 -10 4 -5 0 -10
-5 -10 -11z"/>
<path d="M3340 6790 c0 -5 5 -10 11 -10 5 0 7 5 4 10 -3 6 -8 10 -11 10 -2 0
-4 -4 -4 -10z"/>
<path d="M3275 6760 c3 -5 8 -10 11 -10 2 0 4 5 4 10 0 6 -5 10 -11 10 -5 0
-7 -4 -4 -10z"/>
<path d="M3094 6738 c-19 -23 -19 -23 1 -7 11 9 27 19 35 22 13 5 13 6 -1 6
-9 1 -24 -9 -35 -21z"/>
<path d="M1366 6725 c30 -51 149 -190 474 -556 477 -535 555 -621 631 -694
l82 -80 -96 110 c-249 287 -338 388 -552 626 -232 257 -518 578 -543 608 -8 9
-6 3 4 -14z"/>
<path d="M1965 6740 c-3 -5 -1 -10 4 -10 6 0 11 5 11 10 0 6 -2 10 -4 10 -3 0
-8 -4 -11 -10z"/>
<path d="M3226 6739 c6 -11 31 -12 37 -1 3 4 -6 8 -19 8 -13 1 -21 -2 -18 -7z"/>
<path d="M3491 6717 c-13 -21 -12 -21 5 -5 10 10 16 20 13 22 -3 3 -11 -5 -18
-17z"/>
<path d="M1340 6663 c130 -231 404 -586 685 -883 172 -183 347 -362 324 -334
-13 17 -91 105 -174 194 -381 413 -631 722 -798 988 -66 103 -86 123 -37 35z"/>
<path d="M3400 6710 c0 -5 5 -10 11 -10 5 0 7 5 4 10 -3 6 -8 10 -11 10 -2 0
-4 -4 -4 -10z"/>
<path d="M3120 6695 c-7 -8 -8 -15 -2 -15 5 0 15 7 22 15 7 8 8 15 2 15 -5 0
-15 -7 -22 -15z"/>
<path d="M2041 6658 c-16 -26 -11 -30 11 -7 10 10 14 20 10 23 -5 3 -14 -4
-21 -16z"/>
<path d="M3500 6669 c0 -5 5 -7 10 -4 6 3 10 8 10 11 0 2 -4 4 -10 4 -5 0 -10
-5 -10 -11z"/>
<path d="M3255 6659 c-4 -6 -5 -12 -2 -15 2 -3 7 2 10 11 7 17 1 20 -8 4z"/>
<path d="M2155 6640 c-3 -6 1 -7 9 -4 18 7 21 14 7 14 -6 0 -13 -4 -16 -10z"/>
<path d="M2890 6640 c0 -6 7 -10 15 -10 8 0 15 2 15 4 0 2 -7 6 -15 10 -8 3
-15 1 -15 -4z"/>
<path d="M3020 6641 c0 -6 4 -13 10 -16 6 -3 7 1 4 9 -7 18 -14 21 -14 7z"/>
<path d="M3550 6640 c0 -5 7 -7 15 -4 8 4 15 8 15 10 0 2 -7 4 -15 4 -8 0 -15
-4 -15 -10z"/>
<path d="M2200 6630 c0 -5 5 -10 11 -10 5 0 7 5 4 10 -3 6 -8 10 -11 10 -2 0
-4 -4 -4 -10z"/>
<path d="M2940 6620 c-8 -5 -11 -12 -8 -16 4 -3 14 1 23 10 18 17 9 21 -15 6z"/>
<path d="M3185 6620 c-3 -5 -1 -10 4 -10 6 0 11 5 11 10 0 6 -2 10 -4 10 -3 0
-8 -4 -11 -10z"/>
<path d="M3610 6616 c0 -2 7 -6 15 -10 8 -3 15 -1 15 4 0 6 -7 10 -15 10 -8 0
-15 -2 -15 -4z"/>
<path d="M2175 6600 c3 -5 8 -10 11 -10 2 0 4 5 4 10 0 6 -5 10 -11 10 -5 0
-7 -4 -4 -10z"/>
<path d="M2315 6601 c-3 -6 -10 -9 -15 -6 -4 3 -14 -2 -21 -11 -11 -14 -10
-15 7 -12 22 3 49 26 41 34 -3 3 -8 0 -12 -5z"/>
<path d="M2868 6603 c7 -3 16 -2 19 1 4 3 -2 6 -13 5 -11 0 -14 -3 -6 -6z"/>
<path d="M2995 6590 c-10 -11 -15 -20 -11 -20 11 0 39 30 34 36 -3 2 -13 -5
-23 -16z"/>
<path d="M2406 6581 c-3 -5 1 -14 8 -20 12 -10 13 -8 9 8 -6 23 -9 25 -17 12z"/>
<path d="M2469 6553 c-13 -17 -13 -17 6 -3 11 8 22 16 24 17 2 2 0 3 -6 3 -6
0 -17 -8 -24 -17z"/>
<path d="M2511 6552 c-14 -26 -14 -32 1 -32 6 0 8 3 5 7 -4 3 -2 12 5 20 6 7
8 16 5 19 -3 3 -10 -3 -16 -14z"/>
<path d="M2550 6566 c0 -2 9 -6 20 -9 11 -3 20 -1 20 4 0 5 -9 9 -20 9 -11 0
-20 -2 -20 -4z"/>
<path d="M2685 6560 c-3 -5 -1 -10 4 -10 6 0 11 5 11 10 0 6 -2 10 -4 10 -3 0
-8 -4 -11 -10z"/>
<path d="M2225 6550 c-3 -5 -1 -10 4 -10 6 0 11 5 11 10 0 6 -2 10 -4 10 -3 0
-8 -4 -11 -10z"/>
<path d="M2330 6548 c0 -4 4 -8 9 -8 6 0 12 4 15 8 3 5 -1 9 -9 9 -8 0 -15 -4
-15 -9z"/>
<path d="M2920 6550 c0 -5 5 -10 11 -10 5 0 7 5 4 10 -3 6 -8 10 -11 10 -2 0
-4 -4 -4 -10z"/>
<path d="M2045 6540 c4 -6 11 -8 16 -5 14 9 11 15 -7 15 -8 0 -12 -5 -9 -10z"/>
<path d="M2380 6520 c0 -5 7 -7 15 -4 8 4 15 8 15 10 0 2 -7 4 -15 4 -8 0 -15
-4 -15 -10z"/>
<path d="M2618 6523 c7 -3 16 -2 19 1 4 3 -2 6 -13 5 -11 0 -14 -3 -6 -6z"/>
<path d="M2889 6513 c-13 -16 -12 -17 4 -4 9 7 17 15 17 17 0 8 -8 3 -21 -13z"/>
<path d="M2954 6514 c-18 -14 -18 -15 4 -4 12 6 22 13 22 15 0 8 -5 6 -26 -11z"/>
<path d="M2656 6505 c4 -8 10 -15 15 -15 4 0 6 7 3 15 -4 8 -10 15 -15 15 -4
0 -6 -7 -3 -15z"/>
<path d="M2540 6500 c0 -5 5 -10 10 -10 6 0 10 5 10 10 0 6 -4 10 -10 10 -5 0
-10 -4 -10 -10z"/>
<path d="M2210 6490 c0 -5 5 -10 10 -10 6 0 10 5 10 10 0 6 -4 10 -10 10 -5 0
-10 -4 -10 -10z"/>
<path d="M2699 6463 c-13 -16 -12 -17 4 -4 9 7 17 15 17 17 0 8 -8 3 -21 -13z"/>
<path d="M2805 6460 c3 -5 8 -10 11 -10 2 0 4 5 4 10 0 6 -5 10 -11 10 -5 0
-7 -4 -4 -10z"/>
<path d="M2760 6440 c0 -5 5 -10 11 -10 5 0 7 5 4 10 -3 6 -8 10 -11 10 -2 0
-4 -4 -4 -10z"/>
<path d="M2637 6433 c-4 -3 -19 -8 -33 -9 -27 -3 -41 -11 -33 -19 7 -7 77 14
84 25 7 11 -8 14 -18 3z"/>
<path d="M2500 6413 c0 -4 5 -15 10 -23 8 -13 10 -13 10 2 0 9 -4 20 -10 23
-5 3 -10 3 -10 -2z"/>
<path d="M2606 6391 c-4 -5 -2 -12 3 -15 5 -4 12 -2 15 3 4 5 2 12 -3 15 -5 4
-12 2 -15 -3z"/>
<path d="M2535 6370 c3 -5 8 -10 11 -10 2 0 4 5 4 10 0 6 -5 10 -11 10 -5 0
-7 -4 -4 -10z"/>
<path d="M2095 5600 c21 -22 41 -40 44 -40 3 0 -13 18 -34 40 -21 22 -41 40
-44 40 -3 0 13 -18 34 -40z"/>
<path d="M3804 7200 c19 -36 66 -139 106 -230 39 -91 80 -176 91 -190 17 -21
16 -17 -4 25 -14 28 -46 102 -72 165 -58 140 -106 237 -134 270 -14 17 -10 3
13 -40z"/>
<path d="M3555 6910 c3 -5 8 -10 11 -10 2 0 4 5 4 10 0 6 -5 10 -11 10 -5 0
-7 -4 -4 -10z"/>
<path d="M3646 6894 c-5 -14 -4 -15 9 -4 17 14 19 20 6 20 -5 0 -12 -7 -15
-16z"/>
<path d="M3530 6889 c0 -5 5 -7 10 -4 6 3 10 8 10 11 0 2 -4 4 -10 4 -5 0 -10
-5 -10 -11z"/>
<path d="M3565 6879 c-4 -6 -5 -12 -2 -15 2 -3 7 2 10 11 7 17 1 20 -8 4z"/>
<path d="M3685 6839 c-4 -6 -5 -12 -2 -15 2 -3 7 2 10 11 7 17 1 20 -8 4z"/>
<path d="M3736 6805 c-9 -26 -7 -32 5 -12 6 10 9 21 6 23 -2 3 -7 -2 -11 -11z"/>
<path d="M3755 6780 c-3 -5 -1 -10 4 -10 6 0 11 5 11 10 0 6 -2 10 -4 10 -3 0
-8 -4 -11 -10z"/>
<path d="M3770 6750 c0 -5 5 -10 11 -10 5 0 7 5 4 10 -3 6 -8 10 -11 10 -2 0
-4 -4 -4 -10z"/>
<path d="M3964 6574 c-18 -14 -18 -15 4 -4 12 6 22 13 22 15 0 8 -5 6 -26 -11z"/>
<path d="M3879 6523 c-13 -16 -12 -17 4 -4 9 7 17 15 17 17 0 8 -8 3 -21 -13z"/>
<path d="M3250 6433 c-30 -6 -190 -79 -190 -87 0 -4 26 7 58 23 79 40 164 63
198 55 15 -4 48 -28 73 -53 25 -25 39 -34 30 -21 -40 61 -109 95 -169 83z"/>
<path d="M2950 6287 c-206 -113 -312 -152 -463 -166 l-82 -8 66 -2 c79 -1 192
26 300 73 105 45 303 157 277 156 -2 0 -46 -24 -98 -53z"/>
<path d="M2261 6174 c19 -23 88 -54 119 -53 19 0 14 4 -17 14 -24 7 -59 23
-80 35 -29 17 -34 18 -22 4z"/>
<path d="M4225 5604 c-72 -31 -179 -75 -240 -99 -60 -24 -180 -71 -265 -105
-198 -78 -446 -176 -485 -190 -21 -8 -26 -13 -16 -19 8 -5 42 3 85 19 53 21
118 33 251 50 583 70 1085 153 1085 180 0 12 -206 171 -275 212 -6 4 -69 -18
-140 -48z m187 -11 c26 -21 65 -51 87 -66 28 -19 38 -33 35 -45 -4 -12 -3 -13
3 -4 8 10 15 8 37 -9 15 -12 25 -23 23 -26 -7 -6 -111 -30 -183 -42 -32 -5
-111 -18 -174 -29 -63 -11 -135 -23 -160 -26 -51 -6 -96 -12 -187 -24 -44 -6
-63 -5 -64 2 0 6 -3 6 -6 -1 -7 -20 -51 -16 -56 5 -4 13 -5 13 -6 -4 -1 -20
-11 -23 -135 -39 -73 -10 -139 -16 -146 -13 -13 4 70 39 265 113 55 21 120 46
145 57 125 53 141 59 152 52 6 -4 8 -2 4 4 -7 12 28 27 43 18 5 -3 11 1 15 9
3 8 12 15 20 15 9 0 41 12 73 26 116 52 140 62 158 63 6 1 31 -16 57 -36z"/>
<path d="M4348 5603 c7 -3 16 -2 19 1 4 3 -2 6 -13 5 -11 0 -14 -3 -6 -6z"/>
<path d="M4370 5560 c8 -5 20 -10 25 -10 6 0 3 5 -5 10 -8 5 -19 10 -25 10 -5
0 -3 -5 5 -10z"/>
<path d="M4410 5546 c0 -2 6 -9 13 -15 10 -8 14 -7 14 4 0 8 -6 15 -14 15 -7
0 -13 -2 -13 -4z"/>
<path d="M4135 5520 c-8 -13 5 -13 25 0 13 8 13 10 -2 10 -9 0 -20 -4 -23 -10z"/>
<path d="M4476 5505 c4 -8 8 -15 10 -15 2 0 4 7 4 15 0 8 -4 15 -10 15 -5 0
-7 -7 -4 -15z"/>
<path d="M4070 5595 c-14 -8 -20 -14 -15 -14 6 0 21 6 35 14 14 8 21 14 15 14
-5 0 -21 -6 -35 -14z"/>
<path d="M3917 5537 c-42 -17 -75 -32 -73 -34 4 -5 166 56 166 63 0 7 -11 3
-93 -29z"/>
<path d="M3697 5453 c-64 -25 -116 -48 -113 -50 3 -4 236 84 245 92 10 11 -21
1 -132 -42z"/>
<path d="M5315 5420 c-3 -5 -2 -10 4 -10 5 0 13 5 16 10 3 6 2 10 -4 10 -5 0
-13 -4 -16 -10z"/>
<path d="M4690 5413 c0 -7 24 -24 151 -106 16 -11 29 -15 29 -10 0 7 -24 24
-151 106 -16 11 -29 15 -29 10z"/>
<path d="M5420 5406 c0 -2 7 -6 15 -10 8 -3 15 -1 15 4 0 6 -7 10 -15 10 -8 0
-15 -2 -15 -4z"/>
<path d="M3351 5320 c-112 -44 -211 -81 -220 -83 -9 -3 -2 -3 14 -2 27 3 377
134 415 156 36 21 -18 2 -209 -71z"/>
<path d="M5388 5383 c7 -3 16 -2 19 1 4 3 -2 6 -13 5 -11 0 -14 -3 -6 -6z"/>
<path d="M5275 5350 c7 -11 105 -63 110 -58 2 2 -24 18 -56 36 -33 18 -57 28
-54 22z"/>
<path d="M5421 5324 c0 -11 3 -14 6 -6 3 7 2 16 -1 19 -3 4 -6 -2 -5 -13z"/>
<path d="M5530 5330 c0 -5 5 -10 11 -10 5 0 7 5 4 10 -3 6 -8 10 -11 10 -2 0
-4 -4 -4 -10z"/>
<path d="M4358 5323 c7 -3 16 -2 19 1 4 3 -2 6 -13 5 -11 0 -14 -3 -6 -6z"/>
<path d="M4293 5313 c9 -2 23 -2 30 0 6 3 -1 5 -18 5 -16 0 -22 -2 -12 -5z"/>
<path d="M4067 5287 c-75 -11 -135 -22 -133 -24 5 -5 225 23 291 36 78 16 -14
9 -158 -12z"/>
<path d="M5561 5274 c0 -11 3 -14 6 -6 3 7 2 16 -1 19 -3 4 -6 -2 -5 -13z"/>
<path d="M5440 5266 c14 -7 36 -16 50 -20 14 -3 7 3 -15 13 -45 22 -73 27 -35
7z"/>
<path d="M5650 5265 c-7 -8 -9 -15 -6 -15 4 0 14 7 22 15 9 8 11 15 6 15 -5 0
-15 -7 -22 -15z"/>
<path d="M4771 5259 c-65 -13 -74 -19 -16 -12 28 3 57 9 65 14 18 10 10 10
-49 -2z"/>
<path d="M3780 5245 c-41 -7 -61 -13 -45 -13 17 0 66 5 110 13 44 7 64 13 45
13 -19 -1 -69 -6 -110 -13z"/>
<path d="M4470 5210 c-96 -16 -294 -43 -440 -61 -146 -19 -258 -35 -249 -37
35 -7 905 111 918 124 9 8 -59 1 -229 -26z"/>
<path d="M5522 5235 c16 -17 376 -106 417 -104 15 1 -7 6 -174 45 -38 8 -106
27 -151 40 -81 24 -102 28 -92 19z"/>
<path d="M3638 5223 c12 -2 30 -2 40 0 9 3 -1 5 -23 4 -22 0 -30 -2 -17 -4z"/>
<path d="M3563 5213 c9 -2 25 -2 35 0 9 3 1 5 -18 5 -19 0 -27 -2 -17 -5z"/>
<path d="M3488 5203 c6 -2 18 -2 25 0 6 3 1 5 -13 5 -14 0 -19 -2 -12 -5z"/>
<path d="M6030 5114 c41 -7 89 -13 105 -12 17 0 -4 6 -45 13 -41 8 -88 13
-105 13 -16 0 4 -6 45 -14z"/>
<path d="M6595 5110 c-3 -6 1 -7 9 -4 18 7 21 14 7 14 -6 0 -13 -4 -16 -10z"/>
<path d="M3713 5103 c9 -2 25 -2 35 0 9 3 1 5 -18 5 -19 0 -27 -2 -17 -5z"/>
<path d="M6558 5103 c7 -3 16 -2 19 1 4 3 -2 6 -13 5 -11 0 -14 -3 -6 -6z"/>
<path d="M3658 5093 c6 -2 18 -2 25 0 6 3 1 5 -13 5 -14 0 -19 -2 -12 -5z"/>
<path d="M6263 5093 c42 -2 112 -2 155 0 42 1 7 3 -78 3 -85 0 -120 -2 -77 -3z"/>
<path d="M3784 4933 c3 -3 97 -37 210 -74 112 -38 251 -89 308 -114 162 -73
168 -76 168 -70 0 12 -188 97 -320 144 -149 54 -377 124 -366 114z"/>
<path d="M1125 6505 c4 -16 22 -61 40 -100 105 -219 300 -435 617 -687 187
-150 218 -172 224 -166 3 3 -19 23 -48 44 -99 73 -323 255 -412 337 -153 140
-305 337 -371 480 -61 135 -56 126 -50 92z"/>
<path d="M1161 6247 c-1 -4 22 -43 51 -85 59 -88 255 -288 373 -379 168 -131
434 -317 442 -310 2 3 -20 19 -49 37 -29 18 -89 61 -133 95 -44 34 -102 77
-130 95 -200 135 -436 368 -542 536 -6 10 -12 15 -12 11z"/>
<path d="M4056 6495 c-9 -26 -7 -32 5 -12 6 10 9 21 6 23 -2 3 -7 -2 -11 -11z"/>
<path d="M4094 6308 l-19 -23 23 19 c21 18 27 26 19 26 -2 0 -12 -10 -23 -22z"/>
<path d="M4049 6263 c-13 -16 -12 -17 4 -4 9 7 17 15 17 17 0 8 -8 3 -21 -13z"/>
<path d="M1082 6088 c37 -67 183 -213 292 -293 112 -81 274 -180 283 -172 3 3
-18 17 -46 31 -69 35 -228 144 -317 217 -84 68 -165 156 -201 217 -32 54 -41
55 -11 0z"/>
<path d="M1711 5596 c2 -2 15 -9 29 -15 24 -11 24 -11 6 3 -16 13 -49 24 -35
12z"/>
<path d="M4276 6257 c3 -10 9 -15 12 -12 3 3 0 11 -7 18 -10 9 -11 8 -5 -6z"/>
<path d="M4450 6259 c0 -5 5 -7 10 -4 6 3 10 8 10 11 0 2 -4 4 -10 4 -5 0 -10
-5 -10 -11z"/>
<path d="M4420 6210 c-12 -16 -19 -30 -16 -30 2 0 14 14 26 30 12 17 19 30 16
30 -2 0 -14 -13 -26 -30z"/>
<path d="M4369 6143 l-24 -28 28 24 c25 23 32 31 24 31 -2 0 -14 -12 -28 -27z"/>
<path d="M4318 6068 c-29 -39 -41 -58 -35 -58 2 0 18 20 36 45 37 51 36 62 -1
13z"/>
<path d="M4247 5989 c7 -7 15 -10 18 -7 3 3 -2 9 -12 12 -14 6 -15 5 -6 -5z"/>
<path d="M3560 6110 c0 -5 5 -10 11 -10 5 0 7 5 4 10 -3 6 -8 10 -11 10 -2 0
-4 -4 -4 -10z"/>
<path d="M3620 6070 c0 -5 7 -7 15 -4 8 4 15 8 15 10 0 2 -7 4 -15 4 -8 0 -15
-4 -15 -10z"/>
<path d="M3675 6050 c3 -5 8 -10 11 -10 2 0 4 5 4 10 0 6 -5 10 -11 10 -5 0
-7 -4 -4 -10z"/>
<path d="M3729 6023 c-13 -16 -12 -17 4 -4 16 13 21 21 13 21 -2 0 -10 -8 -17
-17z"/>
<path d="M3800 5981 c0 -6 4 -13 10 -16 6 -3 7 1 4 9 -7 18 -14 21 -14 7z"/>
<path d="M4768 5966 c-50 -68 -134 -206 -124 -206 3 0 24 33 47 73 23 39 55
89 72 110 16 21 28 40 26 41 -2 2 -12 -6 -21 -18z"/>
<path d="M4925 5759 c-4 -6 -5 -12 -2 -15 2 -3 7 2 10 11 7 17 1 20 -8 4z"/>
<path d="M4906 5715 c-9 -26 -7 -32 5 -12 6 10 9 21 6 23 -2 3 -7 -2 -11 -11z"/>
<path d="M673 5520 c43 -64 193 -149 350 -199 53 -17 105 -31 115 -31 9 1 -30
16 -88 34 -165 52 -272 108 -354 185 -28 25 -34 29 -23 11z"/>
<path d="M940 5495 c0 -4 26 -17 57 -31 180 -80 360 -113 643 -118 107 -2 166
-2 130 0 -445 24 -591 49 -792 138 -21 9 -38 14 -38 11z"/>
<path d="M1958 5333 c7 -3 16 -2 19 1 4 3 -2 6 -13 5 -11 0 -14 -3 -6 -6z"/>
<path d="M2168 5303 c6 -2 18 -2 25 0 6 3 1 5 -13 5 -14 0 -19 -2 -12 -5z"/>
<path d="M2218 5293 c6 -2 18 -2 25 0 6 3 1 5 -13 5 -14 0 -19 -2 -12 -5z"/>
<path d="M2280 5280 c14 -4 34 -8 45 -8 16 0 15 2 -5 8 -14 4 -34 8 -45 8 -16
0 -15 -2 5 -8z"/>
<path d="M1208 5273 c6 -2 18 -2 25 0 6 3 1 5 -13 5 -14 0 -19 -2 -12 -5z"/>
<path d="M1258 5263 c7 -3 16 -2 19 1 4 3 -2 6 -13 5 -11 0 -14 -3 -6 -6z"/>
<path d="M2358 5263 c7 -3 16 -2 19 1 4 3 -2 6 -13 5 -11 0 -14 -3 -6 -6z"/>
<path d="M1318 5253 c7 -3 16 -2 19 1 4 3 -2 6 -13 5 -11 0 -14 -3 -6 -6z"/>
<path d="M2398 5253 c7 -3 16 -2 19 1 4 3 -2 6 -13 5 -11 0 -14 -3 -6 -6z"/>
<path d="M2445 5240 c11 -5 27 -9 35 -9 9 0 8 4 -5 9 -11 5 -27 9 -35 9 -9 0
-8 -4 5 -9z"/>
<path d="M1943 5203 c9 -2 23 -2 30 0 6 3 -1 5 -18 5 -16 0 -22 -2 -12 -5z"/>
<path d="M2028 5193 c7 -3 16 -2 19 1 4 3 -2 6 -13 5 -11 0 -14 -3 -6 -6z"/>
<path d="M2115 5184 c11 -3 76 -19 145 -35 237 -56 470 -143 778 -289 78 -38
142 -66 142 -64 0 7 -279 141 -416 199 -187 81 -498 175 -619 189 -27 3 -41 3
-30 0z"/>
<path d="M2235 4910 c152 -38 320 -94 454 -149 41 -17 76 -30 78 -28 8 8 -254
110 -387 150 -101 31 -254 67 -278 66 -9 0 51 -18 133 -39z"/>
<path d="M3244 4756 c11 -9 24 -16 30 -16 12 0 7 5 -24 19 -24 11 -24 11 -6
-3z"/>
<path d="M4065 4676 c75 -65 330 -198 481 -250 135 -46 294 -81 494 -108 143
-19 212 -22 510 -23 378 0 467 8 775 67 188 35 568 146 509 148 -6 0 -44 -11
-85 -25 -196 -67 -443 -121 -717 -157 -139 -18 -217 -22 -467 -22 -637 0
-1021 87 -1394 316 -37 23 -82 50 -101 60 l-35 20 30 -26z"/>
<path d="M3745 4380 c33 -16 65 -29 70 -29 13 1 -107 57 -120 57 -5 0 17 -13
50 -28z"/>
<path d="M3851 4336 c2 -2 15 -9 29 -15 24 -11 24 -11 6 3 -16 13 -49 24 -35
12z"/>
<path d="M6195 4178 c-212 -53 -232 -59 -175 -52 58 7 228 48 305 73 94 30 45
22 -130 -21z"/>
<path d="M5254 5498 l-19 -23 23 19 c21 18 27 26 19 26 -2 0 -12 -10 -23 -22z"/>
<path d="M530 5290 c0 -24 195 -134 318 -179 226 -83 456 -118 897 -134 170
-7 31 8 -215 22 -231 14 -399 40 -560 86 -138 40 -319 122 -392 178 -27 20
-48 33 -48 27z"/>
<path d="M4928 5193 c7 -3 16 -2 19 1 4 3 -2 6 -13 5 -11 0 -14 -3 -6 -6z"/>
<path d="M4880 5159 c0 -5 5 -7 10 -4 6 3 10 8 10 11 0 2 -4 4 -10 4 -5 0 -10
-5 -10 -11z"/>
<path d="M4944 5135 c-18 -14 -18 -14 4 -8 12 3 22 9 22 14 0 12 -3 11 -26 -6z"/>
<path d="M4845 5120 c-3 -6 1 -7 9 -4 18 7 21 14 7 14 -6 0 -13 -4 -16 -10z"/>
<path d="M4998 5108 c5 -5 16 -8 23 -6 8 3 3 7 -10 11 -17 4 -21 3 -13 -5z"/>
<path d="M5054 5075 c3 -9 6 -19 6 -21 0 -2 7 -4 15 -4 21 0 19 13 -6 29 -19
11 -21 11 -15 -4z"/>
<path d="M4065 5070 c-3 -5 -2 -10 4 -10 5 0 13 5 16 10 3 6 2 10 -4 10 -5 0
-13 -4 -16 -10z"/>
<path d="M3846 5033 c-6 -14 -5 -15 5 -6 7 7 10 15 7 18 -3 3 -9 -2 -12 -12z"/>
<path d="M4978 5042 c-10 -2 -18 -8 -18 -13 0 -5 3 -8 8 -7 4 1 18 -4 32 -12
24 -13 24 -12 10 5 -8 10 -13 20 -12 22 6 8 -2 10 -20 5z"/>
<path d="M5115 5029 c-4 -6 -5 -12 -2 -15 2 -3 7 2 10 11 7 17 1 20 -8 4z"/>
<path d="M4218 5023 c7 -3 16 -2 19 1 4 3 -2 6 -13 5 -11 0 -14 -3 -6 -6z"/>
<path d="M4068 5003 c7 -3 16 -2 19 1 4 3 -2 6 -13 5 -11 0 -14 -3 -6 -6z"/>
<path d="M4051 4964 c0 -11 3 -14 6 -6 3 7 2 16 -1 19 -3 4 -6 -2 -5 -13z"/>
<path d="M4230 4970 c-8 -5 -12 -12 -9 -15 4 -3 12 1 19 10 14 17 11 19 -10 5z"/>
<path d="M4835 4940 c3 -5 8 -10 11 -10 2 0 4 5 4 10 0 6 -5 10 -11 10 -5 0
-7 -4 -4 -10z"/>
<path d="M4185 4920 c-3 -5 -1 -10 4 -10 6 0 11 5 11 10 0 6 -2 10 -4 10 -3 0
-8 -4 -11 -10z"/>
<path d="M4360 4920 c0 -5 5 -10 11 -10 5 0 7 5 4 10 -3 6 -8 10 -11 10 -2 0
-4 -4 -4 -10z"/>
<path d="M4810 4920 c0 -5 5 -10 11 -10 5 0 7 5 4 10 -3 6 -8 10 -11 10 -2 0
-4 -4 -4 -10z"/>
<path d="M4245 4910 c-3 -5 -1 -10 4 -10 6 0 11 5 11 10 0 6 -2 10 -4 10 -3 0
-8 -4 -11 -10z"/>
<path d="M4475 4910 c-3 -5 -1 -10 4 -10 6 0 11 5 11 10 0 6 -2 10 -4 10 -3 0
-8 -4 -11 -10z"/>
<path d="M4290 4889 c0 -5 5 -7 10 -4 6 3 10 8 10 11 0 2 -4 4 -10 4 -5 0 -10
-5 -10 -11z"/>
<path d="M4640 4884 c0 -8 5 -12 10 -9 6 3 10 10 10 16 0 5 -4 9 -10 9 -5 0
-10 -7 -10 -16z"/>
<path d="M4803 4884 c-15 -16 -16 -24 -4 -24 8 0 24 30 19 35 -2 2 -9 -3 -15
-11z"/>
<path d="M4888 4893 c7 -3 16 -2 19 1 4 3 -2 6 -13 5 -11 0 -14 -3 -6 -6z"/>
<path d="M4570 4880 c0 -5 5 -10 11 -10 5 0 7 5 4 10 -3 6 -8 10 -11 10 -2 0
-4 -4 -4 -10z"/>
<path d="M4698 4873 c7 -3 16 -2 19 1 4 3 -2 6 -13 5 -11 0 -14 -3 -6 -6z"/>
<path d="M4905 4869 c-4 -6 -5 -12 -2 -15 2 -3 7 2 10 11 7 17 1 20 -8 4z"/>
<path d="M4675 4850 c-3 -5 -2 -10 4 -10 5 0 13 5 16 10 3 6 2 10 -4 10 -5 0
-13 -4 -16 -10z"/>
<path d="M4610 4839 c0 -5 5 -7 10 -4 6 3 10 8 10 11 0 2 -4 4 -10 4 -5 0 -10
-5 -10 -11z"/>
<path d="M4740 4840 c8 -5 20 -10 25 -10 6 0 3 5 -5 10 -8 5 -19 10 -25 10 -5
0 -3 -5 5 -10z"/>
<path d="M4964 4835 c11 -8 22 -12 25 -9 6 6 -19 24 -34 24 -5 -1 -1 -7 9 -15z"/>
<path d="M4651 4814 c0 -11 3 -14 6 -6 3 7 2 16 -1 19 -3 4 -6 -2 -5 -13z"/>
<path d="M4705 4820 c-3 -5 1 -10 9 -10 9 0 16 5 16 10 0 6 -4 10 -9 10 -6 0
-13 -4 -16 -10z"/>
<path d="M4799 4803 c-13 -17 -13 -17 6 -3 11 8 22 16 24 17 2 2 0 3 -6 3 -6
0 -17 -8 -24 -17z"/>
<path d="M670 4905 c14 -8 30 -14 35 -14 6 0 -1 6 -15 14 -14 8 -29 14 -35 14
-5 0 1 -6 15 -14z"/>
<path d="M750 4870 c8 -5 20 -10 25 -10 6 0 3 5 -5 10 -8 5 -19 10 -25 10 -5
0 -3 -5 5 -10z"/>
<path d="M803 4849 c23 -13 157 -59 171 -59 6 1 -32 17 -84 35 -99 37 -117 41
-87 24z"/>
<path d="M1006 4781 c36 -16 255 -62 273 -58 12 4 11 5 -4 6 -11 1 -67 12
-125 25 -157 36 -169 38 -144 27z"/>
<path d="M1300 4717 c11 -12 418 -58 489 -56 20 1 -2 6 -49 10 -131 13 -360
39 -405 46 -22 3 -38 3 -35 0z"/>
<path d="M1878 4653 c17 -2 47 -2 65 0 17 2 3 4 -33 4 -36 0 -50 -2 -32 -4z"/>
<path d="M2058 4643 c18 -2 45 -2 60 0 15 2 0 4 -33 4 -33 0 -45 -2 -27 -4z"/>
<path d="M2228 4633 c12 -2 30 -2 40 0 9 3 -1 5 -23 4 -22 0 -30 -2 -17 -4z"/>
<path d="M2338 4623 c12 -2 32 -2 45 0 12 2 2 4 -23 4 -25 0 -35 -2 -22 -4z"/>
<path d="M2443 4613 c9 -2 23 -2 30 0 6 3 -1 5 -18 5 -16 0 -22 -2 -12 -5z"/>
<path d="M2508 4603 c6 -2 18 -2 25 0 6 3 1 5 -13 5 -14 0 -19 -2 -12 -5z"/>
<path d="M2558 4593 c6 -2 18 -2 25 0 6 3 1 5 -13 5 -14 0 -19 -2 -12 -5z"/>
<path d="M2714 4559 c65 -16 121 -28 123 -25 5 5 -201 56 -224 55 -10 0 36
-14 101 -30z"/>
<path d="M2880 4515 c19 -7 42 -13 50 -13 8 0 -1 6 -20 13 -19 7 -42 13 -50
13 -8 0 1 -6 20 -13z"/>
<path d="M2980 4486 c19 -8 42 -15 50 -15 26 -1 -10 16 -50 23 l-35 6 35 -14z"/>
<path d="M3065 4460 c27 -12 43 -12 25 0 -8 5 -22 9 -30 9 -10 0 -8 -3 5 -9z"/>
<path d="M4076 4105 c-3 -9 -6 -22 -5 -28 0 -7 5 -1 10 12 5 13 8 26 5 28 -2
2 -6 -3 -10 -12z"/>
<path d="M6905 5006 c-39 -60 -120 -100 -315 -155 -30 -9 -28 -9 20 -4 131 13
337 131 318 181 -1 5 -12 -5 -23 -22z"/>
<path d="M5507 4841 c-32 -5 -61 -12 -65 -16 -4 -4 10 -5 31 -1 56 10 265 8
402 -5 66 -6 158 -9 205 -7 75 3 64 4 -95 16 -262 18 -412 22 -478 13z"/>
<path d="M6528 4833 c7 -3 16 -2 19 1 4 3 -2 6 -13 5 -11 0 -14 -3 -6 -6z"/>
<path d="M5850 4775 c85 -7 218 -13 295 -12 l140 0 -170 7 c-93 4 -226 10
-295 13 l-125 6 155 -14z"/>
<path d="M6403 4783 c9 -2 23 -2 30 0 6 3 -1 5 -18 5 -16 0 -22 -2 -12 -5z"/>
<path d="M6318 4773 c12 -2 30 -2 40 0 9 3 -1 5 -23 4 -22 0 -30 -2 -17 -4z"/>
<path d="M1958 4963 c12 -2 32 -2 45 0 12 2 2 4 -23 4 -25 0 -35 -2 -22 -4z"/>
<path d="M7088 4793 c-9 -16 -21 -71 -28 -123 -24 -202 -48 -254 -160 -343
-30 -24 -27 -23 20 6 88 54 190 192 189 257 0 16 -8 3 -24 -39 -13 -35 -31
-71 -39 -80 -15 -14 -15 -12 -2 29 8 25 19 89 25 143 7 67 17 110 30 133 23
39 25 44 13 44 -4 0 -15 -12 -24 -27z"/>
<path d="M5221 4620 c29 -17 173 -61 297 -91 174 -41 175 -35 2 11 -80 21
-180 49 -223 64 -81 27 -103 32 -76 16z"/>
<path d="M5688 4493 c6 -2 18 -2 25 0 6 3 1 5 -13 5 -14 0 -19 -2 -12 -5z"/>
<path d="M5738 4483 c6 -2 18 -2 25 0 6 3 1 5 -13 5 -14 0 -19 -2 -12 -5z"/>
<path d="M3376 9113 c-10 -33 -55 -286 -70 -393 -44 -310 -47 -663 -7 -875 23
-123 86 -359 102 -384 9 -13 9 -12 4 4 -23 67 -87 340 -102 436 -14 89 -18
166 -17 349 2 252 16 388 73 710 26 148 33 204 17 153z"/>
<path d="M1815 9050 c3 -30 13 -125 22 -210 12 -109 17 -242 17 -450 0 -357
-9 -452 -89 -899 -3 -14 2 -6 10 18 23 68 63 327 81 521 20 212 15 614 -11
845 -16 155 -40 290 -30 175z"/>
<path d="M13093 7228 c-100 -4 -194 -13 -208 -18 -25 -9 -25 -11 -25 -113 l0
-104 -97 -12 c-54 -7 -109 -19 -121 -28 -21 -13 -23 -21 -20 -73 l3 -59 -65
-6 c-36 -3 -78 -9 -95 -13 -29 -8 -30 -9 -33 -76 -2 -39 2 -74 8 -80 7 -7 10
-320 10 -993 l0 -983 -202 -3 -203 -2 203 -3 202 -2 0 -70 0 -71 -416 1 c-346
1 -419 -1 -433 -13 -32 -28 -165 -100 -263 -143 -291 -127 -686 -223 -1108
-269 -384 -42 -1166 -35 -1674 15 -103 10 -213 13 -205 5 10 -9 475 -44 746
-56 308 -13 877 -7 1058 11 588 59 1114 209 1423 406 l53 34 407 -2 407 -3 3
-317 2 -317 -52 -4 -53 -3 53 -2 c49 -2 52 -4 52 -28 0 -55 95 -73 505 -95
354 -19 1058 1 1191 34 l49 12 3 97 3 97 142 4 142 3 -142 2 -143 2 0 140 c0
138 0 140 23 141 l22 0 -22 9 c-22 9 -23 15 -23 115 l0 105 233 2 232 2 -230
6 -230 5 -3 48 -3 47 318 2 318 3 -315 5 -314 5 1 1004 c2 678 6 1008 13 1015
15 15 13 141 -4 155 -7 6 -55 14 -106 18 l-92 6 6 49 c11 83 -26 102 -239 120
l-30 3 3 102 c3 95 2 102 -18 113 -12 6 -99 15 -193 20 -191 11 -198 11 -454
-2z m627 -36 c3 -4 3 -49 0 -99 l-5 -93 -408 -2 -407 -3 -5 30 c-12 81 -12
155 -2 162 31 19 812 24 827 5z m207 -239 c29 -5 56 -13 60 -17 4 -4 7 -30 8
-57 l0 -51 -135 4 c-241 6 -850 3 -1032 -5 l-178 -8 0 60 0 59 68 11 c37 6 87
13 112 15 92 7 1047 -3 1097 -11z m221 -159 l52 -7 0 -57 0 -57 -137 -6 c-76
-3 -469 -4 -873 -3 l-735 1 0 54 c0 52 1 55 30 62 69 18 428 26 1000 23 336
-2 634 -6 663 -10z m-67 -591 c1 -247 5 -752 9 -1123 6 -586 6 -527 5 443 l-2
1117 33 0 34 0 0 -1360 0 -1359 -32 -5 c-214 -35 -533 -50 -948 -43 -357 6
-512 16 -627 38 l-63 13 0 1356 0 1357 39 1 39 2 -5 -1228 c-3 -675 -3 -1224
1 -1221 3 3 7 397 8 875 1 478 4 1028 6 1221 l3 353 407 3 c224 1 561 3 750 5
l342 2 1 -447z m-1461 -2322 c331 -45 969 -48 1350 -6 217 24 195 27 198 -27
4 -55 11 -52 -153 -70 -84 -9 -282 -13 -655 -13 -460 0 -553 3 -664 18 -71 10
-146 25 -167 34 -35 13 -39 19 -39 50 0 32 2 34 28 29 15 -3 61 -10 102 -15z"/>
<path d="M13073 7110 c0 -30 2 -43 4 -27 2 15 2 39 0 55 -2 15 -4 2 -4 -28z"/>
<path d="M13273 7115 c0 -27 2 -38 4 -22 2 15 2 37 0 50 -2 12 -4 0 -4 -28z"/>
<path d="M13373 7120 c0 -25 2 -35 4 -22 2 12 2 32 0 45 -2 12 -4 2 -4 -23z"/>
<path d="M13423 7115 c0 -27 2 -38 4 -22 2 15 2 37 0 50 -2 12 -4 0 -4 -28z"/>
<path d="M13473 7110 c0 -30 2 -43 4 -27 2 15 2 39 0 55 -2 15 -4 2 -4 -28z"/>
<path d="M13523 7110 c0 -30 2 -43 4 -27 2 15 2 39 0 55 -2 15 -4 2 -4 -28z"/>
<path d="M13572 7135 c0 -16 2 -22 5 -12 2 9 2 23 0 30 -3 6 -5 -1 -5 -18z"/>
<path d="M12943 7100 c0 -30 2 -43 4 -27 2 15 2 39 0 55 -2 15 -4 2 -4 -28z"/>
<path d="M13123 7105 c0 -27 2 -38 4 -22 2 15 2 37 0 50 -2 12 -4 0 -4 -28z"/>
<path d="M12982 7090 c0 -19 2 -27 5 -17 2 9 2 25 0 35 -3 9 -5 1 -5 -18z"/>
<path d="M12998 7031 c-42 -3 -80 -10 -85 -15 -5 -5 13 -6 42 -1 28 4 194 11
370 14 l320 7 -285 1 c-157 0 -320 -3 -362 -6z"/>
<path d="M12623 6710 c0 -25 2 -35 4 -22 2 12 2 32 0 45 -2 12 -4 2 -4 -23z"/>
<path d="M14063 6715 c0 -22 2 -30 4 -17 2 12 2 30 0 40 -3 9 -5 -1 -4 -23z"/>
<path d="M12511 6694 c0 -11 3 -14 6 -6 3 7 2 16 -1 19 -3 4 -6 -2 -5 -13z"/>
<path d="M12514 6455 c0 -77 2 -107 3 -67 2 40 2 103 0 140 -2 37 -3 4 -3 -73z"/>
<path d="M13584 6108 c-88 -101 -229 -264 -314 -363 -85 -99 -214 -248 -287
-332 -73 -83 -133 -154 -133 -158 0 -4 10 -5 23 -2 36 10 335 39 355 35 17 -3
7 -37 -102 -328 -150 -400 -176 -473 -172 -478 2 -2 35 34 73 80 171 208 398
477 658 782 44 51 115 132 158 178 42 47 77 87 77 90 0 4 -140 -10 -342 -35
-60 -8 -108 -12 -108 -10 0 4 115 306 175 458 79 201 103 265 100 265 -1 0
-74 -82 -161 -182z m54 -20 c-11 -29 -62 -163 -115 -297 -52 -134 -91 -247
-86 -250 7 -6 190 11 367 34 l49 6 -54 -63 c-30 -35 -88 -102 -129 -149 -41
-47 -96 -110 -121 -140 -25 -30 -135 -160 -245 -289 -109 -130 -216 -256 -236
-280 l-38 -45 29 80 c67 181 162 436 197 527 21 54 35 100 33 103 -3 2 -79 -4
-170 -15 -214 -26 -205 -26 -182 4 18 24 265 311 507 591 117 135 207 235 212
235 1 0 -7 -24 -18 -52z"/>
<path d="M12524 4700 c0 -135 2 -190 3 -122 2 67 2 177 0 245 -1 67 -3 12 -3
-123z"/>
<path d="M14050 4190 l-45 -7 42 -1 c23 -1 45 3 48 8 3 6 5 9 3 8 -2 0 -23 -4
-48 -8z"/>
<path d="M12645 4180 c50 -8 202 -13 194 -6 -2 2 -58 6 -124 9 -77 3 -102 2
-70 -3z"/>
<path d="M13923 4173 c9 -2 23 -2 30 0 6 3 -1 5 -18 5 -16 0 -22 -2 -12 -5z"/>
<path d="M12893 4163 c26 -2 67 -2 90 0 23 2 2 3 -48 3 -49 0 -68 -1 -42 -3z"/>
<path d="M13708 4163 c23 -2 59 -2 80 0 20 2 1 4 -43 4 -44 0 -61 -2 -37 -4z"/>
<path d="M12644 4035 c0 -71 1 -99 3 -62 2 37 2 96 0 130 -2 34 -3 4 -3 -68z"/>
<path d="M13252 4153 c59 -2 158 -2 220 0 62 1 14 3 -107 3 -121 0 -172 -2
-113 -3z"/>
<path d="M14104 4025 c0 -49 1 -71 3 -48 2 23 2 64 0 90 -2 26 -3 8 -3 -42z"/>
<path d="M2550 7145 c0 -11 21 -57 48 -102 26 -45 55 -96 65 -114 10 -17 20
-29 23 -26 3 3 -26 63 -65 134 -39 70 -71 119 -71 108z"/>
<path d="M7590 6620 c-393 -16 -886 -74 -1275 -150 -88 -18 -162 -34 -165 -37
-3 -3 11 -3 30 1 637 123 1168 176 1759 176 919 0 1741 -132 2679 -430 107
-34 196 -60 198 -57 5 5 -405 136 -566 181 -908 253 -1741 352 -2660 316z"/>
<path d="M7525 6470 c-287 -23 -631 -68 -870 -115 -166 -33 -427 -96 -421
-103 3 -3 31 2 63 11 100 28 450 95 633 121 1003 145 2152 78 3159 -184 85
-22 156 -39 158 -37 4 5 -306 88 -452 121 -370 83 -756 145 -1110 177 -153 13
-1015 20 -1160 9z"/>
<path d="M6118 6423 c7 -3 16 -2 19 1 4 3 -2 6 -13 5 -11 0 -14 -3 -6 -6z"/>
<path d="M6078 6413 c7 -3 16 -2 19 1 4 3 -2 6 -13 5 -11 0 -14 -3 -6 -6z"/>
<path d="M7582 6243 l-2 -61 -77 -7 c-161 -15 -204 -24 -88 -19 61 3 123 8
138 10 l28 6 -3 -114 -3 -113 -45 -7 c-49 -7 -18 -6 285 13 164 10 373 9 755
-6 394 -15 764 -62 1340 -169 162 -30 338 -59 390 -65 124 -14 290 -20 290
-11 0 4 -53 10 -117 13 -113 6 -309 37 -575 91 -701 141 -1409 200 -2018 166
-96 -5 -201 -13 -232 -16 l-58 -7 0 110 0 110 77 7 c118 10 771 7 938 -4 306
-21 640 -66 966 -130 189 -38 531 -120 672 -161 38 -11 71 -18 73 -16 8 7
-350 105 -536 146 -663 148 -1174 201 -1805 187 -159 -4 -311 -9 -337 -13
l-47 -5 -4 63 -3 64 -2 -62z"/>
<path d="M6168 6233 c7 -3 16 -2 19 1 4 3 -2 6 -13 5 -11 0 -14 -3 -6 -6z"/>
<path d="M7710 6209 l-45 -6 58 -1 c31 -1 57 2 57 6 0 10 -7 10 -70 1z"/>
<path d="M10275 6150 c11 -5 27 -9 35 -9 9 0 8 4 -5 9 -11 5 -27 9 -35 9 -9 0
-8 -4 5 -9z"/>
<path d="M7238 6143 c12 -2 32 -2 45 0 12 2 2 4 -23 4 -25 0 -35 -2 -22 -4z"/>
<path d="M7173 6133 c9 -2 23 -2 30 0 6 3 -1 5 -18 5 -16 0 -22 -2 -12 -5z"/>
<path d="M10840 6112 c8 -5 26 -13 40 -16 17 -5 20 -4 10 2 -8 5 -26 13 -40
16 -17 5 -20 4 -10 -2z"/>
<path d="M10625 6040 c27 -12 43 -12 25 0 -8 5 -22 9 -30 9 -10 0 -8 -3 5 -9z"/>
<path d="M6903 6033 c15 -2 37 -2 50 0 12 2 0 4 -28 4 -27 0 -38 -2 -22 -4z"/>
<path d="M7068 6033 c17 -2 47 -2 65 0 17 2 3 4 -33 4 -36 0 -50 -2 -32 -4z"/>
<path d="M7215 5980 c27 -27 51 -50 54 -50 3 0 -17 23 -44 50 -27 28 -51 50
-54 50 -3 0 17 -22 44 -50z"/>
<path d="M7280 5810 l0 -90 -282 -1 c-156 -1 -375 -5 -488 -9 -164 -5 -105 -7
292 -8 l497 -2 3 71 3 71 80 -69 c44 -37 124 -105 177 -151 l98 -82 -58 -42
c-31 -23 -110 -81 -174 -130 l-118 -87 0 68 0 68 -82 6 c-104 8 -843 9 -835 1
3 -3 205 -9 449 -12 l443 -7 5 -81 5 -81 197 146 c108 80 196 149 195 152 -1
3 -36 35 -77 71 -41 36 -132 115 -202 177 l-128 111 0 -90z"/>
<path d="M7971 5874 c0 -11 3 -14 6 -6 3 7 2 16 -1 19 -3 4 -6 -2 -5 -13z"/>
<path d="M11640 5806 l0 -86 -297 -1 c-164 -1 -327 -5 -363 -9 -38 -4 89 -8
307 -8 l372 -2 3 70 3 70 170 -146 c94 -80 172 -148 175 -151 3 -2 -3 -9 -12
-14 -9 -5 -86 -63 -172 -129 l-156 -119 0 68 0 68 -77 7 c-42 3 -211 5 -377 4
-227 -1 -274 -3 -191 -8 61 -4 182 -8 271 -9 88 0 202 -4 252 -7 l92 -7 0 -78
c0 -44 2 -79 5 -79 11 0 390 292 390 300 0 8 -220 205 -347 312 l-48 40 0 -86z"/>
<path d="M8431 5845 c0 -5 9 -28 20 -50 10 -22 16 -29 13 -15 -7 28 -33 80
-33 65z"/>
<path d="M10375 5840 c11 -5 27 -9 35 -9 9 0 8 4 -5 9 -11 5 -27 9 -35 9 -9 0
-8 -4 5 -9z"/>
<path d="M10445 5820 c27 -12 43 -12 25 0 -8 5 -22 9 -30 9 -10 0 -8 -3 5 -9z"/>
<path d="M7984 5550 c0 -151 2 -213 3 -137 2 75 2 199 0 275 -1 75 -3 13 -3
-138z"/>
<path d="M8480 5728 c0 -3 7 -25 15 -48 8 -23 15 -56 15 -72 0 -30 32 -102 51
-113 22 -14 -4 89 -42 164 -22 41 -39 73 -39 69z"/>
<path d="M9007 5657 c-30 -59 -34 -75 -13 -57 17 13 52 98 44 105 -3 3 -17
-19 -31 -48z"/>
<path d="M8810 5610 c0 -26 4 -30 27 -30 14 0 35 -7 45 -17 17 -15 18 -15 18
4 0 31 -38 73 -66 73 -20 0 -24 -5 -24 -30z m44 -5 c3 -9 0 -15 -9 -15 -8 0
-15 7 -15 15 0 8 4 15 9 15 5 0 11 -7 15 -15z"/>
<path d="M9328 5553 c7 -3 16 -2 19 1 4 3 -2 6 -13 5 -11 0 -14 -3 -6 -6z"/>
<path d="M9413 5543 c9 -2 25 -2 35 0 9 3 1 5 -18 5 -19 0 -27 -2 -17 -5z"/>
<path d="M9685 5504 c39 -7 81 -13 95 -12 14 0 -6 6 -45 14 -38 7 -81 13 -95
12 -14 0 7 -6 45 -14z"/>
<path d="M9978 5453 c7 -3 16 -2 19 1 4 3 -2 6 -13 5 -11 0 -14 -3 -6 -6z"/>
<path d="M8846 5392 c-6 -39 -11 -51 -19 -43 -23 23 -37 12 -37 -31 0 -58 -16
-111 -40 -133 -11 -10 -20 -23 -20 -29 0 -6 6 -4 13 5 12 16 101 79 111 79 8
0 8 -365 0 -372 -3 -3 -22 -2 -42 3 -20 5 -68 11 -107 14 -129 10 -150 17
-153 48 l-3 28 53 -6 c29 -4 77 -11 107 -16 63 -10 127 -12 118 -2 -4 3 -24 9
-44 12 -33 6 -38 10 -38 33 1 15 -3 24 -7 22 -4 -3 -10 8 -13 23 -3 15 -13 41
-21 57 -20 39 -10 44 79 40 l72 -3 -80 10 c-44 6 -87 17 -96 26 -12 10 -18 11
-21 3 -3 -9 -26 -9 -93 -1 -219 27 -226 23 -20 -12 120 -21 130 -24 131 -44 1
-13 6 -29 13 -36 6 -8 17 -34 25 -59 15 -52 20 -50 -91 -42 l-73 6 0 38 c0 28
-7 47 -26 67 l-26 28 21 -29 c17 -24 21 -43 21 -114 l0 -85 107 -104 c59 -57
111 -103 116 -103 15 0 -25 44 -115 125 -49 44 -88 83 -88 88 0 5 12 6 28 3
15 -3 60 -10 100 -17 54 -9 72 -16 72 -28 1 -9 7 -27 15 -41 14 -24 15 -23 8
19 -6 43 -5 44 18 38 13 -4 32 -7 42 -7 15 0 17 -6 13 -27 -3 -16 -2 -59 2
-98 7 -60 9 -42 15 129 4 110 7 247 7 305 l1 106 44 33 c51 37 55 31 21 -36
-13 -26 -26 -65 -30 -87 -4 -22 -9 -47 -12 -56 -4 -13 8 -17 68 -22 40 -4 93
-10 118 -13 31 -5 42 -3 35 4 -5 5 -32 13 -60 16 -27 3 -71 9 -96 12 l-45 5 6
49 c4 27 14 58 24 69 20 21 45 85 46 114 0 16 -9 14 -64 -17 -35 -20 -67 -36
-70 -36 -3 0 -6 33 -8 73 l-3 72 -9 -53z m0 -89 c6 -20 2 -31 -16 -45 -30 -24
-34 -19 -20 31 12 47 27 53 36 14z"/>
<path d="M10108 5423 c6 -2 18 -2 25 0 6 3 1 5 -13 5 -14 0 -19 -2 -12 -5z"/>
<path d="M10158 5413 c7 -3 16 -2 19 1 4 3 -2 6 -13 5 -11 0 -14 -3 -6 -6z"/>
<path d="M10198 5403 c7 -3 16 -2 19 1 4 3 -2 6 -13 5 -11 0 -14 -3 -6 -6z"/>
<path d="M8574 5371 c3 -19 17 -58 31 -85 21 -45 24 -48 25 -23 0 31 -21 86
-46 120 -16 22 -16 22 -10 -12z"/>
<path d="M10416 5336 c248 -83 388 -161 494 -273 105 -110 124 -133 118 -139
-12 -11 -154 -43 -263 -58 -227 -31 -631 -61 -709 -51 -126 15 -242 39 -252
53 -7 10 -24 13 -57 11 -26 -2 -47 -2 -47 2 0 3 12 16 26 30 31 29 54 71 54
99 0 11 -1 20 -2 20 -2 1 -106 12 -233 25 -126 13 -259 27 -295 31 -36 4 -69
13 -75 20 -16 22 -33 2 -38 -44 -5 -43 -15 -62 -59 -114 -21 -25 -26 -26 -63
-18 -28 6 -42 6 -47 -3 -6 -9 -8 -9 -8 1 0 14 -46 16 -55 2 -3 -5 -3 -10 2
-10 40 -2 89 -14 95 -24 6 -8 8 -8 8 2 0 6 7 12 15 12 18 0 18 -2 3 -35 -11
-25 -14 -26 -70 -20 -35 4 -58 3 -58 -3 0 -5 20 -12 45 -15 56 -6 60 -9 44
-39 -7 -12 -12 -29 -10 -36 1 -8 -2 -19 -7 -25 -17 -21 -42 -88 -30 -81 8 5 9
1 4 -12 -8 -23 84 80 101 113 20 39 0 26 -42 -27 -21 -27 -40 -48 -42 -46 -1
1 6 19 16 40 11 20 24 51 30 67 10 29 11 30 63 23 29 -4 63 -11 76 -15 13 -5
41 -9 63 -9 21 0 39 -3 39 -7 0 -4 -12 -20 -27 -35 l-27 -28 30 0 c16 0 54 -7
84 -15 30 -8 64 -15 75 -14 11 0 -16 9 -60 21 -44 11 -82 22 -84 24 -3 3 3 12
12 21 16 16 26 15 164 -11 82 -16 154 -31 161 -34 27 -10 10 -31 -35 -41 -71
-15 -154 -50 -123 -51 13 0 47 9 75 19 27 11 62 23 78 26 19 4 27 12 27 26 0
11 7 34 15 52 l16 32 -20 -23 -20 -23 -148 31 c-81 17 -150 35 -153 40 -3 6
-18 11 -33 12 -23 2 -25 4 -12 18 8 9 12 20 8 24 -4 4 -15 -3 -24 -15 -16 -22
-19 -22 -90 -10 -41 7 -80 15 -86 17 -22 6 -14 24 10 24 20 1 20 2 4 11 -32
19 -9 25 70 18 340 -32 431 -39 521 -39 56 0 102 -4 102 -8 0 -5 -29 -40 -65
-77 -36 -38 -65 -72 -65 -75 0 -4 53 -14 118 -24 64 -10 122 -23 129 -28 7 -6
39 -58 73 -116 58 -105 159 -231 148 -186 -5 20 0 22 60 27 78 8 84 2 76 -65
-5 -33 -3 -48 5 -48 7 0 11 24 11 69 0 60 3 71 23 84 l22 16 -22 0 c-13 1 -28
-8 -35 -19 -11 -17 -24 -20 -89 -20 -53 0 -80 4 -88 14 -14 16 13 26 74 26 22
0 118 7 213 17 199 20 200 19 210 -62 5 -46 22 -45 22 1 0 24 20 31 165 59 44
8 159 36 255 60 163 42 215 64 196 82 -4 5 -64 7 -132 5 l-125 -4 3 79 3 78
400 -3 c220 -1 425 -4 455 -7 48 -4 52 -3 30 7 -18 9 -143 13 -453 16 -385 3
-428 5 -425 19 2 10 26 22 66 33 75 21 89 32 76 59 -17 36 -184 221 -242 267
-78 62 -312 175 -453 218 -175 54 -165 43 17 -18z m-1099 -270 c135 -18 270
-34 348 -41 97 -10 105 -12 97 -35 -4 -11 -24 -40 -45 -65 l-38 -45 -73 0
c-93 0 -136 9 -136 27 0 8 4 12 9 8 6 -3 23 14 39 37 41 61 44 68 34 68 -5 0
-14 -12 -21 -26 -6 -15 -14 -24 -18 -21 -3 4 -1 13 5 20 16 19 5 27 -37 27
-20 0 -100 7 -178 17 -103 12 -143 20 -143 30 0 17 24 16 157 -1z m-44 -41
c31 -4 57 -9 57 -13 -1 -4 -21 -29 -45 -56 l-43 -49 -76 8 c-42 4 -76 11 -76
17 0 5 16 28 35 50 19 23 32 44 29 49 -2 4 10 6 28 4 18 -3 59 -7 91 -10z
m223 -20 c14 -4 11 -62 -4 -77 -9 -9 -12 -9 -12 -1 0 7 5 15 10 18 6 3 10 11
10 17 0 18 -27 -10 -41 -44 l-12 -31 -80 7 c-82 7 -106 14 -90 25 5 3 26 27
46 53 l38 46 62 -5 c34 -2 67 -6 73 -8z m1582 -156 c-24 -13 -204 -58 -300
-74 -214 -38 -657 -58 -753 -35 -22 5 -94 19 -160 30 -66 12 -121 23 -123 25
-2 1 10 12 26 24 l30 21 123 -26 c124 -26 124 -26 354 -15 310 14 645 59 745
99 21 9 29 7 48 -15 19 -20 21 -28 10 -34z m-1140 -121 c6 -6 16 -25 21 -42 9
-30 9 -31 10 -4 1 15 -3 30 -9 33 -20 13 -9 23 17 16 28 -7 28 -8 31 -113 2
-62 0 -108 -6 -112 -5 -3 -32 32 -58 79 -27 46 -56 87 -64 90 -8 3 -48 10 -90
15 -41 6 -88 13 -103 16 l-29 6 31 32 32 33 102 -20 c56 -10 108 -24 115 -29z
m992 -53 c0 -98 -2 -106 -23 -119 -22 -15 -120 -41 -187 -50 -19 -3 -66 -9
-105 -15 -38 -6 -83 -10 -100 -10 -31 1 -28 3 16 13 l27 6 -20 39 -20 40 -51
-5 c-94 -9 -98 -11 -91 -42 3 -15 14 -34 25 -43 17 -16 16 -17 -22 -23 -22 -3
-110 -11 -196 -17 -126 -8 -158 -8 -164 3 -5 7 -7 19 -4 26 3 8 5 63 5 123 l0
109 159 0 c185 0 482 23 626 49 55 10 106 19 113 20 9 1 12 -26 12 -104z m234
-105 c-11 -11 -142 -45 -406 -104 -140 -31 -188 -39 -188 -29 0 7 -5 13 -12
13 -6 0 -9 2 -6 5 3 3 45 10 94 16 49 6 143 24 209 40 66 16 130 29 142 29 12
0 25 4 28 10 4 6 -11 7 -39 4 -30 -5 -46 -3 -46 4 0 13 38 18 150 20 55 1 81
-1 74 -8z m-644 -26 c12 -32 12 -34 0 -34 -6 0 -15 10 -20 23 -10 22 -10 22
-7 -2 2 -23 -1 -25 -48 -25 -47 -1 -50 1 -53 25 -3 24 0 26 44 28 26 0 50 3
52 6 11 11 23 4 32 -21z"/>
<path d="M9213 4945 c-9 -25 2 -27 22 -5 17 18 17 20 1 20 -9 0 -19 -7 -23
-15z"/>
<path d="M10694 4620 c0 -52 1 -74 3 -47 2 26 2 68 0 95 -2 26 -3 4 -3 -48z"/>
<path d="M10084 4590 c0 -58 1 -81 3 -52 2 28 2 76 0 105 -2 28 -3 5 -3 -53z"/>
<path d="M10153 4615 c0 -44 2 -61 4 -37 2 23 2 59 0 80 -2 20 -4 1 -4 -43z"/>
<path d="M10583 4645 c0 -27 2 -38 4 -22 2 15 2 37 0 50 -2 12 -4 0 -4 -28z"/>
<path d="M9596 5302 l-19 -27 26 24 c28 26 32 31 20 31 -5 0 -17 -13 -27 -28z"/>
<path d="M8052 5294 c3 -3 97 -5 209 -5 175 1 205 -1 221 -16 20 -18 25 -4 6
15 -9 9 -73 12 -227 12 -118 0 -212 -3 -209 -6z"/>
<path d="M9165 5269 c-4 -6 -5 -12 -2 -15 2 -3 7 2 10 11 7 17 1 20 -8 4z"/>
<path d="M9299 5263 c-13 -16 -12 -17 4 -4 9 7 17 15 17 17 0 8 -8 3 -21 -13z"/>
<path d="M7759 5216 c13 -16 51 -41 51 -33 0 2 -15 14 -32 27 -21 15 -28 17
-19 6z"/>
<path d="M9500 5193 c79 -13 282 -68 366 -99 53 -19 99 -32 102 -30 3 3 -1 8
-9 11 -239 86 -394 128 -463 124 -17 -1 -17 -2 4 -6z"/>
<path d="M9240 5158 l-23 -33 28 27 c16 15 26 30 23 33 -3 4 -16 -9 -28 -27z"/>
<path d="M8300 5144 c0 -6 15 -25 33 -42 l33 -32 -39 -43 -39 -42 39 -6 c81
-14 193 -20 193 -12 0 5 -38 14 -85 20 -47 5 -88 13 -92 17 -11 11 48 65 78
71 36 8 65 -8 89 -48 15 -23 20 -27 20 -13 0 10 -15 33 -34 52 -30 30 -38 33
-84 31 -44 -2 -55 2 -81 27 -17 17 -31 25 -31 20z"/>
<path d="M8190 5099 c-8 -11 -33 -26 -55 -34 -26 -9 -32 -14 -19 -15 12 0 47
13 78 29 30 16 65 31 78 34 13 2 3 5 -22 5 -34 1 -49 -4 -60 -19z"/>
<path d="M8595 5090 c-3 -5 1 -10 10 -10 9 0 24 -18 35 -42 l19 -43 -6 45 c-7
53 -3 46 -30 54 -12 4 -24 2 -28 -4z"/>
<path d="M10423 5093 c-66 -6 -51 -18 17 -15 33 2 60 8 60 13 0 5 -8 8 -17 7
-10 -1 -37 -3 -60 -5z"/>
<path d="M8260 5043 c-36 -20 -66 -40 -68 -45 -5 -12 -52 -9 -106 7 -27 8 -51
13 -54 10 -7 -7 39 -22 103 -34 47 -9 60 -8 69 3 6 8 37 30 69 50 31 20 57 39
57 41 0 7 -1 7 -70 -32z"/>
<path d="M10085 5070 c-34 -6 -30 -7 33 -9 42 0 72 3 72 9 0 11 -43 11 -105 0z"/>
<path d="M8756 5044 c-4 -9 -4 -19 -1 -22 2 -3 7 3 11 12 4 9 4 19 1 22 -2 3
-7 -3 -11 -12z"/>
<path d="M9025 5050 c22 -4 49 -4 60 1 13 5 0 8 -40 7 -56 0 -58 -1 -20 -8z"/>
<path d="M293 5033 c9 -2 25 -2 35 0 9 3 1 5 -18 5 -19 0 -27 -2 -17 -5z"/>
<path d="M7624 5031 c7 -11 46 -35 46 -28 0 3 -12 12 -26 22 -15 9 -23 12 -20
6z"/>
<path d="M7870 4925 l0 -85 -97 -2 -98 -2 95 -5 95 -6 3 -37 c3 -34 7 -38 50
-52 76 -26 200 -46 303 -51 53 -3 109 -9 123 -15 15 -5 33 -10 39 -10 13 -1
66 -29 55 -30 -3 0 -34 7 -68 16 -62 16 -87 14 -53 -4 10 -5 44 -15 76 -22 31
-6 90 -23 130 -36 83 -29 147 -43 197 -43 29 1 24 3 -25 15 -122 29 -206 57
-193 67 8 5 5 6 -9 2 -16 -4 -33 1 -55 18 -18 14 -50 30 -70 37 -21 6 -38 16
-38 21 0 5 -7 9 -16 9 -8 0 -12 -4 -9 -10 8 -12 15 -13 -139 5 -147 18 -251
41 -272 62 -10 11 -14 42 -14 124 l0 111 65 -46 c61 -42 71 -46 123 -45 l57 1
-50 8 c-29 4 -80 25 -122 49 -40 22 -75 41 -78 41 -3 0 -5 -38 -5 -85z"/>
<path d="M9025 4999 c-4 -6 -5 -12 -2 -15 2 -3 7 2 10 11 7 17 1 20 -8 4z"/>
<path d="M57 4963 c24 -2 62 -2 85 0 24 2 5 4 -42 4 -47 0 -66 -2 -43 -4z"/>
<path d="M10070 4946 c0 -2 7 -6 15 -10 8 -3 15 -1 15 4 0 6 -7 10 -15 10 -8
0 -15 -2 -15 -4z"/>
<path d="M8310 4931 c75 -18 176 -33 195 -29 24 5 -96 28 -175 34 -46 3 -49 2
-20 -5z"/>
<path d="M8159 4915 c18 -8 36 -15 40 -15 13 1 -45 29 -59 29 -8 0 0 -6 19
-14z"/>
<path d="M7982 4870 c0 -19 2 -27 5 -17 2 9 2 25 0 35 -3 9 -5 1 -5 -18z"/>
<path d="M8305 4890 c3 -5 8 -10 11 -10 2 0 4 5 4 10 0 6 -5 10 -11 10 -5 0
-7 -4 -4 -10z"/>
<path d="M8430 4863 c1 -5 17 -18 36 -30 34 -22 36 -16 6 20 -15 17 -42 24
-42 10z"/>
<path d="M10018 4853 c7 -3 16 -2 19 1 4 3 -2 6 -13 5 -11 0 -14 -3 -6 -6z"/>
<path d="M8046 4820 c-5 -19 -13 -41 -18 -47 -8 -9 -6 -13 6 -13 18 0 30 36
24 71 -3 21 -5 19 -12 -11z"/>
<path d="M8381 4835 c3 -2 23 -11 45 -20 l39 -16 -25 20 c-21 17 -74 32 -59
16z"/>
<path d="M8740 4809 c0 -13 5 -31 10 -39 7 -11 8 -5 4 20 -8 43 -14 51 -14 19z"/>
<path d="M8520 4775 c13 -14 26 -25 28 -25 3 0 -5 11 -18 25 -13 14 -26 25
-28 25 -3 0 5 -11 18 -25z"/>
<path d="M7459 4762 c-57 -37 -71 -55 -78 -100 l-6 -37 -95 -6 -95 -5 98 -2
97 -2 0 -50 c0 -58 0 -58 125 -91 l89 -23 -49 -13 c-43 -10 -44 -12 -12 -8 21
2 49 0 63 -5 24 -10 35 3 12 14 -22 10 70 -1 267 -33 475 -76 1051 -115 1837
-123 l226 -2 42 28 c54 36 46 43 -12 12 -44 -23 -51 -24 -192 -19 -114 5 -146
9 -142 19 3 7 13 47 23 89 l17 76 93 80 c51 45 93 83 93 85 0 11 -48 -23 -116
-82 -41 -36 -78 -63 -83 -60 -5 3 -87 22 -182 41 -207 43 -282 63 -274 75 3 4
29 16 58 25 28 10 59 24 67 31 8 8 -14 3 -50 -11 -35 -14 -69 -30 -74 -35 -6
-6 -29 -10 -51 -10 -48 0 -65 -15 -90 -78 l-18 -43 -76 4 c-42 3 -64 3 -48 0
l27 -4 0 -90 0 -90 -72 3 -73 3 -6 85 -5 85 -2 -83 -2 -83 -77 3 -78 3 0 83
c0 54 -4 82 -11 82 -6 0 -26 3 -43 6 -19 4 -31 2 -31 -4 0 -6 14 -12 32 -14
l32 -3 -3 -70 c-1 -38 -4 -72 -7 -74 -4 -5 -225 17 -231 23 -2 2 -1 43 3 90 5
66 9 83 18 71 14 -17 59 -35 92 -35 13 0 24 -5 24 -11 0 -7 -10 -9 -25 -7 -14
3 -25 1 -25 -3 0 -5 10 -9 23 -9 13 0 28 -5 34 -11 7 -7 12 -2 15 19 4 29 3
30 -44 34 -54 6 -68 15 -70 45 -2 15 -9 19 -32 19 -137 1 -576 60 -773 103
-111 25 -125 30 -116 45 4 6 -1 5 -10 -3 -9 -7 -17 -17 -17 -21 0 -19 293 -75
608 -116 l132 -17 0 -57 c0 -32 -3 -72 -6 -90 l-7 -32 -71 7 c-39 4 -136 17
-216 29 l-145 21 -6 75 -5 75 -2 -73 -2 -73 -37 7 c-86 14 -231 45 -273 58
l-45 13 1 87 c1 100 12 118 98 161 30 15 42 25 30 25 -11 0 -40 -13 -65 -28z
m1746 -177 c46 -4 389 -81 423 -95 28 -12 28 -38 1 -125 l-21 -68 -180 6 c-99
3 -182 7 -184 10 -3 3 -4 25 -2 48 4 43 4 43 16 19 12 -24 12 -24 7 9 -3 18
-5 45 -6 60 -1 21 -4 17 -15 -17 -7 -24 -14 -62 -16 -83 l-2 -39 -112 0 c-62
0 -119 3 -128 6 -13 5 -16 23 -16 91 0 74 2 84 16 79 9 -3 26 -6 39 -6 24 0
24 0 10 -47 -8 -27 -15 -54 -15 -62 0 -31 16 4 36 77 17 63 24 77 40 75 133
-13 136 -14 130 -36 -4 -12 -12 -43 -18 -69 l-11 -48 -56 6 c-31 4 -59 9 -62
13 -4 3 1 30 11 59 9 28 14 52 10 52 -7 0 -51 -122 -46 -127 2 -2 36 -6 77 -9
l74 -7 25 82 c17 58 26 77 32 64 5 -13 7 -9 7 14 1 31 -27 63 -53 63 -6 0 0
-7 13 -16 37 -26 12 -38 -63 -29 -36 3 -68 10 -71 15 -3 5 -1 20 5 34 9 23 12
25 37 15 15 -6 46 -12 68 -14z m-845 -40 c3 -2 3 -43 0 -91 l-5 -88 -60 3
c-33 1 -63 5 -67 7 -5 3 -8 46 -8 96 l0 90 68 -7 c37 -4 69 -8 72 -10z"/>
<path d="M9280 4462 c0 -4 46 -18 103 -31 56 -14 111 -27 121 -29 12 -3 17 -1
12 6 -3 6 -56 22 -116 36 -125 29 -120 29 -120 18z"/>
<path d="M9147 4413 c-4 -3 -7 -11 -7 -17 0 -6 5 -5 12 2 6 6 9 14 7 17 -3 3
-9 2 -12 -2z"/>
<path d="M9305 4350 c3 -5 -1 -10 -10 -10 -9 0 -14 -4 -10 -10 8 -13 35 -1 35
16 0 8 -5 14 -11 14 -5 0 -7 -4 -4 -10z"/>
<path d="M9133 4739 c-63 -54 -64 -56 -22 -31 20 12 43 22 50 22 8 0 19 11 26
25 16 36 1 31 -54 -16z"/>
<path d="M9085 4760 c-4 -6 5 -10 19 -10 14 0 26 5 26 10 0 6 -9 10 -19 10
-11 0 -23 -4 -26 -10z"/>
<path d="M9149 4683 l-24 -28 28 24 c25 23 32 31 24 31 -2 0 -14 -12 -28 -27z"/>
<path d="M11153 4693 c42 -2 112 -2 155 0 42 1 7 3 -78 3 -85 0 -120 -2 -77
-3z"/>
<path d="M7985 4680 c-3 -6 1 -7 9 -4 18 7 21 14 7 14 -6 0 -13 -4 -16 -10z"/>
<path d="M8466 4681 c58 -52 116 -67 129 -34 4 13 3 14 -9 4 -11 -10 -25 -7
-65 13 -51 26 -73 33 -55 17z"/>
<path d="M8915 4679 c-4 -6 -5 -12 -2 -15 2 -3 7 2 10 11 7 17 1 20 -8 4z"/>
<path d="M9010 4643 l-45 -47 41 32 c46 35 71 62 57 62 -5 0 -29 -21 -53 -47z"/>
<path d="M9445 4680 c27 -12 43 -12 25 0 -8 5 -22 9 -30 9 -10 0 -8 -3 5 -9z"/>
<path d="M8690 4665 c7 -9 15 -13 17 -11 7 7 -7 26 -19 26 -6 0 -6 -6 2 -15z"/>
<path d="M7845 4660 c-8 -12 81 -12 110 0 14 6 2 9 -42 9 -34 1 -65 -3 -68 -9z"/>
<path d="M11718 4663 c7 -3 16 -2 19 1 4 3 -2 6 -13 5 -11 0 -14 -3 -6 -6z"/>
<path d="M98 4653 c12 -2 30 -2 40 0 9 3 -1 5 -23 4 -22 0 -30 -2 -17 -4z"/>
<path d="M353 4653 c9 -2 23 -2 30 0 6 3 -1 5 -18 5 -16 0 -22 -2 -12 -5z"/>
<path d="M8660 4643 c0 -5 10 -18 23 -29 l22 -19 -20 25 c-11 14 -21 27 -22
29 -2 2 -3 0 -3 -6z"/>
<path d="M9045 4620 c-3 -6 1 -7 9 -4 18 7 21 14 7 14 -6 0 -13 -4 -16 -10z"/>
<path d="M8068 4613 c12 -2 32 -2 45 0 12 2 2 4 -23 4 -25 0 -35 -2 -22 -4z"/>
<path d="M8620 4600 c8 -5 20 -10 25 -10 6 0 3 5 -5 10 -8 5 -19 10 -25 10 -5
0 -3 -5 5 -10z"/>
<path d="M11858 4603 c18 -2 45 -2 60 0 15 2 0 4 -33 4 -33 0 -45 -2 -27 -4z"/>
<path d="M14743 4593 c26 -2 67 -2 90 0 23 2 2 3 -48 3 -49 0 -68 -1 -42 -3z"/>
<path d="M14923 4593 c9 -2 25 -2 35 0 9 3 1 5 -18 5 -19 0 -27 -2 -17 -5z"/>
<path d="M15033 4593 c9 -2 23 -2 30 0 6 3 -1 5 -18 5 -16 0 -22 -2 -12 -5z"/>
<path d="M11444 4549 c-97 -108 -696 -264 -1224 -318 -109 -12 -236 -14 -211
-4 8 3 42 24 75 46 68 44 38 41 -36 -3 -74 -45 -108 -50 -338 -50 -426 0
-1052 37 -1528 90 -271 31 -299 33 -291 25 12 -11 589 -77 839 -95 357 -26
503 -32 926 -37 482 -6 546 -3 844 43 214 33 396 74 600 136 174 52 331 125
358 166 18 28 11 29 -14 1z"/>
<path d="M7800 4531 c0 -10 7 -24 15 -31 21 -17 39 1 30 29 -8 27 -45 28 -45
2z"/>
<path d="M9851 4536 c-9 -11 -4 -28 22 -77 65 -124 87 -153 87 -114 0 8 -5 15
-11 15 -6 0 -8 7 -5 16 3 8 2 12 -4 9 -14 -9 -88 120 -76 132 3 3 19 -22 35
-56 17 -34 34 -61 36 -61 3 0 -3 17 -13 38 -11 20 -25 54 -31 75 -13 40 -22
45 -40 23z"/>
<path d="M8997 4529 c7 -7 15 -10 18 -7 3 3 -2 9 -12 12 -14 6 -15 5 -6 -5z"/>
<path d="M9745 4475 c-33 -27 -30 -31 10 -13 14 6 25 17 25 25 0 17 1 17 -35
-12z"/>
<path d="M7256 4469 c17 -28 327 -99 361 -83 13 5 0 10 -42 15 -98 11 -186 29
-257 53 -37 12 -65 19 -62 15z"/>
<path d="M788 4453 c6 -2 18 -2 25 0 6 3 1 5 -13 5 -14 0 -19 -2 -12 -5z"/>
<path d="M10373 4408 c-46 -11 -83 -24 -83 -30 0 -6 8 -7 18 -3 9 4 58 15 107
26 110 24 120 27 75 27 -19 0 -72 -9 -117 -20z"/>
<path d="M440 4390 c-14 -11 -20 -20 -14 -20 14 0 50 27 44 33 -3 3 -16 -3
-30 -13z"/>
<path d="M490 4391 c-16 -30 -12 -36 10 -16 21 19 26 35 10 35 -5 0 -14 -9
-20 -19z"/>
<path d="M547 4399 c-21 -12 -23 -41 -3 -33 13 5 30 33 24 40 -2 1 -11 -2 -21
-7z"/>
<path d="M596 4395 c-20 -20 -21 -36 -2 -29 15 6 30 34 22 41 -2 2 -11 -3 -20
-12z"/>
<path d="M640 4389 c-7 -11 -9 -24 -5 -27 7 -7 35 25 35 40 0 16 -19 8 -30
-13z"/>
<path d="M677 4393 c-4 -3 -7 -13 -7 -20 0 -11 9 -12 38 -7 44 8 46 9 37 24
-5 8 -11 7 -23 -2 -12 -10 -14 -10 -8 0 8 13 -25 18 -37 5z"/>
<path d="M310 4380 c-24 -8 -24 -8 5 -9 17 0 37 4 45 9 12 8 11 10 -5 9 -11
-1 -31 -5 -45 -9z"/>
<path d="M178 4283 c12 -2 30 -2 40 0 9 3 -1 5 -23 4 -22 0 -30 -2 -17 -4z"/>
<path d="M328 4283 c12 -2 30 -2 40 0 9 3 -1 5 -23 4 -22 0 -30 -2 -17 -4z"/>
<path d="M653 4283 c126 -2 328 -2 450 0 122 1 20 2 -228 2 -247 0 -347 -1
-222 -2z"/>
<path d="M14410 4280 c0 -6 25 -10 58 -9 41 0 51 3 37 9 -28 12 -95 12 -95 0z"/>
<path d="M14663 4279 c14 -8 22 -8 30 0 8 8 3 11 -18 11 -26 -1 -28 -2 -12
-11z"/>
<path d="M11893 4231 c-32 -27 -71 -64 -88 -82 -16 -19 -3 -9 30 21 33 31 76
68 95 83 19 15 32 27 28 27 -4 0 -33 -22 -65 -49z"/>
<path d="M14878 4243 c6 -2 18 -2 25 0 6 3 1 5 -13 5 -14 0 -19 -2 -12 -5z"/>
<path d="M970 4225 c147 -9 433 -13 1010 -12 l805 1 -870 7 c-478 3 -933 9
-1010 12 -91 4 -68 1 65 -8z"/>
<path d="M2837 4223 c18 -2 50 -2 70 0 21 2 7 4 -32 4 -38 0 -55 -2 -38 -4z"/>
<path d="M7363 4150 c0 -41 2 -58 4 -37 2 20 2 54 0 75 -2 20 -4 3 -4 -38z"/>
<path d="M7440 4160 c-45 -15 -50 -18 -25 -18 17 -1 55 7 85 18 45 15 50 18
25 18 -16 1 -55 -7 -85 -18z"/>
<path d="M7565 4160 c-16 -4 -48 -11 -70 -15 l-40 -8 32 -8 c24 -7 45 -4 87
12 31 11 56 22 56 25 0 6 -31 3 -65 -6z"/>
<path d="M7603 4138 c-39 -13 -45 -33 -7 -24 14 4 31 2 38 -3 14 -12 83 2 100
19 8 10 2 11 -27 6 -21 -4 -46 -9 -55 -12 -9 -3 -6 2 8 10 l25 15 -25 0 c-14
-1 -40 -6 -57 -11z"/>
<path d="M7762 4120 c-36 -8 -49 -17 -40 -26 8 -7 86 14 93 26 7 11 -6 11 -53
0z"/>
<path d="M11740 4099 c-22 -18 -22 -19 -3 -10 12 6 25 16 28 21 9 15 3 12 -25
-11z"/>
<path d="M7913 4103 c9 -2 25 -2 35 0 9 3 1 5 -18 5 -19 0 -27 -2 -17 -5z"/>
<path d="M8083 4093 c9 -2 25 -2 35 0 9 3 1 5 -18 5 -19 0 -27 -2 -17 -5z"/>
<path d="M11598 4043 c6 -2 18 -2 25 0 6 3 1 5 -13 5 -14 0 -19 -2 -12 -5z"/>
<path d="M11548 4033 c6 -2 18 -2 25 0 6 3 1 5 -13 5 -14 0 -19 -2 -12 -5z"/>
<path d="M11020 4020 c-78 -5 -61 -7 97 -8 119 -1 194 2 198 8 7 11 -129 11
-295 0z"/>
<path d="M11388 4023 c29 -2 74 -2 100 0 26 2 2 3 -53 3 -55 0 -76 -1 -47 -3z"/>
<path d="M1018 4003 c382 -2 1003 -2 1380 0 378 1 66 2 -693 2 -759 0 -1068
-1 -687 -2z"/>
<path d="M10768 4003 c12 -2 30 -2 40 0 9 3 -1 5 -23 4 -22 0 -30 -2 -17 -4z"/>
<path d="M6803 3983 c15 -2 39 -2 55 0 15 2 2 4 -28 4 -30 0 -43 -2 -27 -4z"/>
<path d="M6958 3983 c18 -2 45 -2 60 0 15 2 0 4 -33 4 -33 0 -45 -2 -27 -4z"/>
<path d="M7822 3973 c37 -2 100 -2 140 0 40 1 10 3 -67 3 -77 0 -110 -1 -73
-3z"/>
<path d="M14678 3973 c17 -2 47 -2 65 0 17 2 3 4 -33 4 -36 0 -50 -2 -32 -4z"/>
<path d="M9313 3963 c76 -2 198 -2 270 0 73 1 11 3 -138 3 -148 0 -208 -2
-132 -3z"/>
<path d="M12158 3863 c18 -2 45 -2 60 0 15 2 0 4 -33 4 -33 0 -45 -2 -27 -4z"/>
<path d="M12391 2826 c-31 -32 -31 -34 -12 -39 15 -3 34 5 61 28 21 18 36 35
33 39 -16 15 -52 3 -82 -28z"/>
<path d="M7388 2811 c-34 -32 -35 -41 -5 -41 12 1 40 16 61 35 l39 35 -34 -1
c-22 -1 -43 -10 -61 -28z"/>
<path d="M8108 2811 c-27 -26 -28 -41 -4 -41 6 0 31 16 55 35 l44 35 -34 0
c-24 0 -42 -9 -61 -29z"/>
<path d="M1580 2605 l0 -185 30 0 30 0 0 70 0 70 79 0 c70 0 83 3 109 25 37
31 49 88 32 141 -17 50 -55 64 -180 64 l-100 0 0 -185z m205 125 c9 -8 15 -30
15 -56 0 -57 -24 -74 -102 -74 l-58 0 0 76 0 77 65 -5 c36 -3 72 -11 80 -18z"/>
<path d="M1932 2608 l3 -183 29 0 c28 0 28 0 30 70 l2 70 46 3 46 3 39 -73
c34 -66 41 -73 71 -76 17 -2 32 0 32 5 0 5 -18 40 -41 78 -28 48 -36 71 -28
74 35 11 59 51 59 96 0 93 -37 115 -190 115 l-100 0 2 -182z m212 116 c22 -22
20 -70 -4 -94 -17 -17 -31 -20 -82 -18 l-61 3 -2 63 -2 62 68 0 c48 0 72 -5
83 -16z"/>
<path d="M2302 2608 l3 -183 123 -3 122 -3 0 26 0 25 -95 0 -96 0 3 58 3 57
83 3 c73 2 82 5 82 22 0 17 -9 20 -82 22 l-83 3 -3 53 -3 52 95 0 c96 0 96 0
96 25 l0 25 -125 0 -125 0 2 -182z"/>
<path d="M2659 2775 c-39 -21 -55 -67 -40 -115 14 -48 43 -65 124 -75 63 -8
87 -24 87 -59 0 -43 -29 -56 -123 -56 -79 0 -87 -2 -87 -19 0 -16 10 -21 46
-27 59 -9 155 0 182 17 56 35 57 140 1 169 -11 6 -48 16 -82 21 -75 12 -87 22
-87 65 0 46 31 58 123 49 68 -7 69 -7 65 16 -3 23 -7 24 -93 26 -63 2 -98 -2
-116 -12z"/>
<path d="M3004 2780 c-55 -22 -72 -108 -31 -155 17 -21 38 -29 97 -39 63 -10
77 -16 89 -38 13 -23 13 -29 -2 -52 -17 -25 -21 -26 -112 -26 -87 0 -95 -2
-95 -19 0 -24 60 -36 150 -29 103 7 151 69 117 150 -17 40 -42 51 -139 63 -53
7 -74 30 -64 71 9 35 49 47 129 39 62 -6 67 -5 67 13 0 11 -7 23 -16 26 -23 9
-166 6 -190 -4z"/>
<path d="M3307 2658 c-4 -73 -5 -142 -3 -153 3 -11 5 -35 5 -53 1 -30 4 -33
29 -30 l27 3 3 183 2 182 -28 0 -29 0 -6 -132z"/>
<path d="M3509 2767 c-19 -13 -39 -38 -46 -57 -17 -49 -16 -174 1 -215 20 -47
77 -75 156 -75 122 0 160 39 168 173 9 151 -31 197 -171 197 -61 0 -80 -4
-108 -23z m194 -46 c20 -19 22 -32 22 -117 0 -87 -2 -97 -22 -114 -32 -25 -84
-32 -129 -18 -50 17 -68 63 -61 160 6 96 32 121 120 114 33 -2 56 -10 70 -25z"/>
<path d="M3872 2608 l3 -183 27 -3 27 -3 3 148 3 148 85 -145 85 -145 40 0 40
0 3 183 2 182 -30 0 -29 0 -3 -147 -3 -148 -74 125 c-41 69 -80 135 -88 148
-10 17 -23 22 -53 22 l-40 0 2 -182z"/>
<path d="M6998 2751 c-48 -10 -87 -36 -98 -67 -6 -14 -10 -69 -10 -122 0 -110
10 -135 66 -158 35 -15 138 -19 193 -8 l31 7 0 88 0 89 -65 0 c-51 0 -65 -3
-65 -15 0 -10 14 -17 40 -21 l41 -7 -3 -51 -3 -51 -62 -3 c-56 -3 -66 0 -88
22 -23 23 -25 32 -25 114 0 128 9 137 129 136 82 -1 91 1 91 17 0 11 -9 21
-22 23 -51 11 -115 13 -150 7z"/>
<path d="M12270 2580 l0 -180 125 0 125 0 0 25 c0 25 0 25 -95 25 l-95 0 0 55
0 55 81 0 c78 0 80 1 77 23 -3 20 -9 22 -80 25 l-78 3 0 49 0 50 68 2 c37 1
77 2 90 2 16 0 22 6 22 23 0 23 -2 23 -120 23 l-120 0 0 -180z"/>
<path d="M12590 2581 l0 -181 30 0 30 0 0 147 0 148 87 -148 86 -147 39 0 38
0 0 180 0 180 -31 0 -31 0 7 -56 c4 -31 3 -94 0 -140 l-7 -85 -83 138 -82 138
-41 3 -42 3 0 -180z"/>
<path d="M13000 2580 l0 -180 126 0 c124 0 125 0 122 23 -3 21 -8 22 -95 25
l-93 3 0 54 0 55 80 0 c79 0 80 0 80 25 0 25 -1 25 -80 25 l-80 0 0 50 0 50
78 2 c42 0 83 1 90 1 6 -1 12 10 12 23 0 24 0 24 -120 24 l-120 0 0 -180z"/>
<path d="M13320 2580 l0 -180 30 0 30 0 0 70 0 70 48 0 48 0 38 -70 c35 -65
40 -70 71 -70 l34 0 -40 70 -40 71 29 24 c33 27 47 81 34 130 -13 48 -58 65
-179 65 l-103 0 0 -180z m194 130 c14 -5 28 -20 32 -35 17 -67 -28 -102 -116
-90 l-50 7 0 57 c0 32 3 61 7 64 10 10 98 8 127 -3z"/>
<path d="M13743 2745 c-49 -21 -63 -59 -63 -174 0 -97 1 -102 29 -133 27 -30
34 -33 105 -36 42 -2 97 -1 121 3 l45 6 0 89 0 88 -65 4 c-55 2 -65 0 -65 -13
0 -18 20 -29 51 -29 18 0 20 -6 17 -52 l-3 -53 -62 -3 c-56 -3 -66 0 -88 22
-23 23 -25 32 -25 114 0 128 9 137 129 137 76 0 91 2 94 16 3 11 -3 19 -17 23
-40 11 -171 5 -203 -9z"/>
<path d="M14070 2580 l0 -180 30 0 30 0 0 180 0 180 -30 0 -30 0 0 -180z"/>
<path d="M14230 2580 l0 -181 123 3 c114 3 122 4 122 23 0 18 -8 20 -91 23
l-92 3 -7 44 c-3 25 -3 49 0 55 3 5 42 10 86 10 78 0 80 1 77 23 -3 20 -9 22
-80 25 l-78 3 0 52 0 52 87 0 c84 0 88 1 91 23 3 22 2 22 -117 22 l-121 0 0
-180z"/>
<path d="M7270 2570 l0 -180 126 0 c124 0 125 0 122 23 -3 21 -8 22 -95 25
l-93 3 0 54 0 55 80 0 c73 0 80 2 80 20 0 17 -8 19 -77 22 l-78 3 -3 53 -3 52
90 0 c90 0 91 0 91 25 l0 25 -120 0 -120 0 0 -180z"/>
<path d="M7590 2570 l0 -180 30 0 29 0 3 141 3 142 83 -142 84 -141 39 0 39 0
0 180 0 180 -30 0 -29 0 -3 -141 -3 -142 -83 142 -84 141 -39 0 -39 0 0 -180z"/>
<path d="M7990 2570 l0 -180 125 0 125 0 0 25 c0 25 0 25 -95 25 l-95 0 0 55
0 55 80 0 c71 0 80 2 80 19 0 16 -11 19 -80 25 l-80 7 0 49 0 49 93 3 c88 3
92 4 93 26 1 22 0 22 -122 22 l-124 0 0 -180z"/>
<path d="M8310 2570 l0 -180 30 0 30 0 0 70 0 70 48 0 47 0 38 -70 c35 -66 39
-70 72 -70 l35 0 -45 75 c-39 66 -42 77 -27 82 40 14 52 35 52 90 0 30 -4 63
-10 73 -15 28 -65 40 -171 40 l-99 0 0 -180z m205 120 c19 -16 20 -84 0 -100
-18 -15 -86 -24 -119 -16 -24 6 -26 10 -26 65 0 48 3 61 18 65 29 8 110 0 127
-14z"/>
<path d="M8713 2587 c-35 -89 -66 -170 -69 -179 -5 -15 0 -18 24 -18 27 0 32
5 44 43 l15 42 85 3 86 3 14 -43 c13 -37 19 -43 46 -46 l32 -3 -29 78 c-16 43
-47 124 -68 180 l-38 103 -40 0 -40 -1 -62 -162z m135 31 l30 -83 -60 -3 c-33
-2 -62 -1 -64 1 -6 5 50 167 58 167 3 0 20 -37 36 -82z"/>
<path d="M8990 2725 c0 -24 3 -25 60 -25 l60 0 0 -155 0 -155 30 0 30 0 0 155
0 155 60 0 c57 0 60 1 60 25 l0 25 -150 0 -150 0 0 -25z"/>
<path d="M9360 2570 l0 -180 30 0 30 0 0 180 0 180 -30 0 -30 0 0 -180z"/>
<path d="M9559 2727 c-46 -31 -62 -81 -57 -177 8 -129 44 -164 168 -163 72 1
124 23 144 62 22 42 22 217 0 249 -26 37 -67 52 -147 52 -61 0 -80 -4 -108
-23z m193 -47 c14 -18 18 -40 18 -112 0 -81 -2 -91 -25 -113 -34 -35 -112 -35
-151 -1 -26 22 -28 29 -28 102 -1 134 15 156 113 150 42 -2 59 -8 73 -26z"/>
<path d="M9920 2570 l0 -180 25 0 25 0 0 141 c0 77 4 138 8 135 5 -3 44 -66
87 -141 l79 -135 38 0 38 0 0 180 0 180 -25 0 -25 0 0 -140 c0 -77 -3 -140 -7
-140 -5 1 -44 63 -88 140 l-80 140 -37 0 -38 0 0 -180z"/>
<path d="M5680 2471 l0 -81 -407 0 c-223 0 -404 -2 -402 -4 2 -2 190 -6 417
-9 l412 -5 0 64 c0 35 3 64 6 64 3 0 45 -33 92 -73 48 -40 120 -99 160 -131
39 -32 72 -62 72 -66 0 -10 -308 -240 -321 -240 -5 0 -9 27 -9 59 0 44 -4 60
-16 65 -9 3 -205 5 -437 4 -319 -1 -384 -3 -267 -8 85 -4 278 -8 428 -9 l272
-1 0 -80 c0 -44 2 -80 5 -80 4 0 358 262 378 280 5 4 -71 75 -168 156 -242
204 -215 192 -215 95z"/>
<path d="M11490 2476 l0 -76 -322 -2 c-259 -1 -297 -3 -193 -9 72 -3 221 -7
333 -8 l202 -1 0 55 c0 30 3 55 8 55 13 0 301 -255 299 -265 -2 -9 -283 -215
-293 -215 -2 0 -4 24 -4 53 l0 54 -202 6 c-112 4 -270 6 -353 6 -248 -2 -108
-18 230 -26 l300 -8 5 -68 5 -67 71 52 c39 29 119 87 177 128 59 41 105 80
104 85 -3 9 -208 194 -317 285 l-50 42 0 -76z"/>
<path d="M7470 2085 c-33 -35 -34 -35 -9 -35 13 0 42 16 64 35 l40 34 -31 1
c-22 0 -39 -10 -64 -35z"/>
<path d="M10370 2085 c-33 -35 -34 -35 -9 -35 13 0 42 16 64 35 l40 34 -31 1
c-22 0 -39 -10 -64 -35z"/>
<path d="M12052 2077 c-35 -36 -39 -47 -18 -47 15 0 95 60 95 73 2 20 -49 3
-77 -26z"/>
<path d="M1920 1875 l0 -185 104 0 c91 0 107 3 137 23 18 12 39 34 46 47 18
36 17 203 -2 239 -22 43 -78 61 -190 61 l-95 0 0 -185z m219 109 c17 -22 21
-41 21 -110 0 -120 -26 -144 -152 -136 l-28 2 0 135 0 135 69 0 c63 0 71 -2
90 -26z"/>
<path d="M2300 1925 c0 -202 22 -235 155 -235 134 0 155 31 155 230 l0 140
-30 0 -30 0 0 -140 c0 -136 -1 -142 -25 -165 -31 -32 -101 -35 -136 -6 -23 18
-24 26 -27 165 l-3 146 -30 0 -29 0 0 -135z"/>
<path d="M2840 1874 l0 -185 27 3 c21 2 28 9 28 28 1 14 2 44 3 68 l2 42 70 0
c114 0 150 28 150 118 0 88 -41 111 -197 112 l-83 0 0 -186z m204 120 c21 -20
20 -83 -1 -106 -12 -14 -31 -18 -78 -18 l-62 0 -7 46 c-3 25 -3 57 0 70 6 22
11 24 69 24 44 0 68 -5 79 -16z"/>
<path d="M3190 1875 l0 -185 30 0 30 0 0 185 0 185 -30 0 -30 0 0 -185z"/>
<path d="M3350 1875 l0 -185 125 0 125 0 0 25 c0 25 0 25 -95 25 l-95 0 0 55
0 55 53 2 c28 1 66 2 82 3 23 1 30 6 30 21 0 17 -8 19 -82 22 l-83 3 0 54 0
54 93 3 c84 3 92 5 92 23 0 19 -8 20 -122 23 l-123 3 0 -186z"/>
<path d="M3680 1875 l0 -185 95 0 c103 0 147 12 180 50 17 19 20 39 23 129 5
167 -21 191 -205 191 l-93 0 0 -185z m219 109 c30 -38 31 -179 1 -217 -22 -28
-89 -44 -135 -33 l-25 6 0 135 0 135 69 0 c63 0 71 -2 90 -26z"/>
<path d="M6888 2023 l-68 -4 0 -174 0 -175 95 0 c170 0 195 23 195 181 0 129
-12 151 -91 168 -27 6 -53 10 -57 9 -4 -1 -37 -3 -74 -5z m142 -63 c17 -17 20
-33 20 -110 0 -83 -2 -93 -25 -115 -20 -21 -34 -25 -85 -25 l-60 0 0 135 0
135 65 0 c52 0 69 -4 85 -20z"/>
<path d="M7215 2018 c-29 -92 -33 -119 -18 -125 21 -8 37 13 62 80 l21 57 -30
0 c-17 0 -32 -6 -35 -12z"/>
<path d="M7393 2023 l-43 -4 0 -175 0 -174 120 0 c113 0 120 1 120 20 0 19 -7
20 -90 20 l-90 0 0 60 0 60 80 0 c73 0 80 2 80 20 0 18 -7 20 -80 20 l-80 0 0
55 0 55 90 0 c81 0 90 2 90 19 0 29 -60 36 -197 24z"/>
<path d="M7670 1850 l0 -180 115 0 115 0 0 25 c0 25 -1 25 -85 25 l-85 0 0
155 0 155 -30 0 -30 0 0 -180z"/>
<path d="M7956 2020 c-2 -3 -3 -83 -4 -177 l-1 -173 124 0 c118 0 125 1 125
20 0 18 -8 20 -92 22 l-93 3 0 55 0 55 83 3 c73 2 82 5 82 22 0 17 -9 20 -82
22 l-83 3 -3 53 -3 52 95 0 c89 0 96 1 96 20 0 14 -7 21 -22 22 -52 4 -220 3
-222 -2z"/>
<path d="M8341 2016 c-55 -20 -74 -53 -79 -143 -5 -96 10 -157 44 -180 33 -21
106 -32 169 -24 40 5 51 10 53 26 3 19 -2 20 -71 17 -66 -4 -76 -2 -101 19
-32 28 -41 75 -31 154 10 83 26 95 125 95 71 0 80 2 80 19 0 14 -10 20 -37 25
-57 9 -114 6 -152 -8z"/>
<path d="M8693 2023 c-123 -3 -133 -5 -133 -23 0 -16 9 -19 63 -22 l62 -3 3
-152 3 -153 29 0 30 0 0 155 0 155 60 0 c52 0 60 2 60 19 0 17 -22 34 -38 29
-4 -1 -67 -4 -139 -5z"/>
<path d="M8973 2023 l-43 -4 0 -175 0 -174 30 0 c17 0 29 3 29 8 -1 4 -1 35 0
70 l1 63 42 -3 c40 -3 44 -6 79 -68 33 -59 39 -65 73 -68 l36 -3 -41 71 -42
71 32 27 c31 26 32 30 29 86 -2 49 -7 62 -28 78 -27 19 -119 29 -197 21z m148
-53 c14 -8 19 -21 19 -55 0 -54 -16 -65 -94 -65 l-56 0 0 65 0 65 56 0 c30 0
64 -5 75 -10z"/>
<path d="M9290 1850 l0 -181 28 3 27 3 0 175 0 175 -27 3 -28 3 0 -181z"/>
<path d="M9514 2019 c-16 -5 -41 -20 -55 -35 -21 -23 -24 -36 -27 -118 -6
-160 29 -201 169 -199 84 1 101 6 92 28 -4 11 -23 15 -78 15 -110 0 -120 11
-120 135 0 124 10 135 121 135 66 0 74 2 74 19 0 14 -10 20 -37 25 -50 8 -101
6 -139 -5z"/>
<path d="M9770 1851 l0 -181 30 0 30 0 -2 178 -3 177 -27 3 -28 3 0 -180z"/>
<path d="M9948 2023 c-50 -3 -58 -7 -58 -23 0 -18 7 -20 60 -20 l60 0 0 -155
0 -155 30 0 29 0 3 153 3 152 63 3 c57 3 63 5 60 23 -3 19 -11 21 -98 23 -52
1 -121 1 -152 -1z"/>
<path d="M10254 2021 c-2 -2 -4 -82 -4 -178 l0 -173 125 0 c118 0 125 1 125
20 0 19 -7 20 -95 20 l-95 0 0 60 0 60 80 0 c73 0 80 2 80 20 0 18 -7 20 -80
20 l-80 0 0 55 0 55 90 0 c82 0 90 2 90 19 0 17 -10 20 -77 24 -85 5 -152 4
-159 -2z"/>
<path d="M11930 1830 l0 -180 120 0 120 0 0 25 c0 25 -1 25 -90 25 l-90 0 0
55 0 54 78 3 c69 3 77 5 77 23 0 18 -8 20 -77 23 l-78 3 0 49 0 50 85 0 c84 0
85 0 85 25 l0 25 -115 0 -115 0 0 -180z"/>
<path d="M12250 1830 l0 -180 110 0 c61 0 110 4 110 9 0 5 3 16 6 25 5 13 -8
16 -83 18 l-88 3 4 108 c2 59 0 127 -3 152 -6 39 -10 45 -32 45 l-24 0 0 -180z"/>
<path d="M12530 1830 l0 -180 120 0 120 0 0 25 c0 25 -1 25 -90 25 l-90 0 0
55 0 54 78 3 c71 3 77 5 80 26 3 21 1 22 -77 22 l-81 0 0 50 0 50 90 0 c89 0
90 0 90 25 l0 25 -120 0 -120 0 0 -180z"/>
<path d="M12900 1993 c-55 -28 -72 -72 -68 -174 6 -133 42 -169 172 -169 76 0
96 6 96 29 0 15 -11 17 -80 16 -109 0 -122 13 -128 128 -4 78 -3 85 21 113 24
28 29 29 107 28 77 -1 81 0 78 20 -3 19 -10 21 -83 24 -61 2 -88 -2 -115 -15z"/>
<path d="M13130 1985 c0 -24 3 -25 60 -25 l59 0 3 -152 3 -153 28 -3 27 -3 0
155 0 156 60 0 c57 0 60 1 60 25 l0 25 -150 0 -150 0 0 -25z"/>
<path d="M13490 1831 l0 -181 30 0 30 0 0 70 0 70 44 0 c43 0 44 0 82 -67 34
-60 43 -68 72 -71 17 -2 32 -1 32 2 0 2 -18 35 -39 72 l-39 67 34 32 c29 28
34 39 34 78 0 34 -6 53 -24 74 -23 27 -28 28 -140 31 l-116 4 0 -181z m205
119 c9 -7 15 -29 15 -51 0 -48 -18 -59 -99 -59 l-61 0 0 58 c0 32 2 61 5 64
11 10 125 0 140 -12z"/>
<path d="M13850 1830 l0 -180 30 0 30 0 0 180 0 180 -30 0 -30 0 0 -180z"/>
<path d="M14050 1991 c-23 -12 -39 -30 -47 -52 -18 -51 -16 -184 3 -224 18
-38 66 -65 116 -65 39 0 45 -4 81 -52 25 -34 33 -38 73 -38 51 0 62 24 14 33
-33 7 -74 57 -52 65 8 2 25 14 40 27 26 22 27 28 30 132 3 124 -5 149 -58 175
-48 25 -154 24 -200 -1z m182 -51 c14 -18 18 -41 18 -112 0 -82 -2 -91 -26
-115 -23 -23 -32 -25 -80 -21 -77 7 -88 21 -93 119 -5 127 22 163 119 155 30
-3 50 -11 62 -26z"/>
<path d="M14390 1865 l0 -145 29 -32 c28 -31 33 -33 108 -36 65 -2 83 0 111
17 18 12 37 33 42 47 6 14 10 86 10 160 l0 134 -30 0 -30 0 0 -139 0 -140 -27
-21 c-23 -18 -37 -21 -77 -17 -72 7 -76 16 -76 179 l0 138 -30 0 -30 0 0 -145z"/>
<path d="M14780 1830 l0 -180 120 0 120 0 0 25 c0 25 -1 25 -90 25 l-90 0 0
55 0 55 80 0 c79 0 80 0 80 25 0 25 -1 25 -80 25 l-80 0 0 50 0 50 90 0 c89 0
90 0 90 25 l0 25 -120 0 -120 0 0 -180z"/>
</g>
</svg>
